<svg width="20" height="20" xmlns="http://www.w3.org/2000/svg">
    <g fill="currentColor" fill-rule="nonzero">
        <path d="M1.8115942 0c1.00051585 0 1.81159421.81107835 1.81159421 1.8115942 0 1.00051585-.81107836 1.81159421-1.81159421 1.81159421S0 2.81211005 0 1.8115942.81107835 0 1.8115942 0zm0 .9057971c-.50025792 0-.9057971.40553918-.9057971.9057971 0 .50025793.40553918.9057971.9057971.9057971.50025793 0 .9057971-.40553917.9057971-.9057971 0-.50025792-.40553917-.9057971-.9057971-.9057971z"/>
        <path d="M3.17028986 1.35869565h13.5869565v1H3.17028986z"/>
        <path d="M18.115942 0c1.0005159 0 1.8115942.81107835 1.8115942 1.8115942 0 1.00051585-.8110783 1.81159421-1.8115942 1.81159421-1.0005158 0-1.8115942-.81107836-1.8115942-1.81159421S17.1154262 0 18.115942 0zm0 .9057971c-.5002579 0-.9057971.40553918-.9057971.9057971 0 .50025793.4055392.9057971.9057971.9057971s.9057971-.40553917.9057971-.9057971c0-.50025792-.4055392-.9057971-.9057971-.9057971zM1.8115942 16.3043478c1.00051585 0 1.81159421.8110784 1.81159421 1.8115942 0 1.0005159-.81107836 1.8115942-1.81159421 1.8115942S0 19.1164579 0 18.115942c0-1.0005158.81107835-1.8115942 1.8115942-1.8115942zm0 .9057971c-.50025792 0-.9057971.4055392-.9057971.9057971s.40553918.9057971.9057971.9057971c.50025793 0 .9057971-.4055392.9057971-.9057971s-.40553917-.9057971-.9057971-.9057971z"/>
        <path d="M3.17028986 17.6630435h13.5869565v1H3.17028986z"/>
        <path d="M18.115942 16.3043478c1.0005159 0 1.8115942.8110784 1.8115942 1.8115942 0 1.0005159-.8110783 1.8115942-1.8115942 1.8115942-1.0005158 0-1.8115942-.8110783-1.8115942-1.8115942 0-1.0005158.8110784-1.8115942 1.8115942-1.8115942zm0 .9057971c-.5002579 0-.9057971.4055392-.9057971.9057971s.4055392.9057971.9057971.9057971.9057971-.4055392.9057971-.9057971-.4055392-.9057971-.9057971-.9057971zM1.35869565 3.17028986h1v13.5869565h-1z"/>
        <path d="M17.6630435 3.17028986h1v13.5869565h-1z"/>
    </g>
</svg>