<svg width="24" height="24" xmlns="http://www.w3.org/2000/svg">
  <path d="M4.56611096 7.4257332C3.74592595 8.75582575 3.27272727 10.3226521 3.27272727 12c0 4.8199396 3.90733309 8.7272727 8.72727273 8.7272727 1.6773479 0 3.2441743-.4731987 4.5742668-1.2933836L4.56611096 7.4257332zm2.21045311-2.41788226L18.9921491 17.2234359C20.0818875 15.7670497 20.7272727 13.9588937 20.7272727 12c0-4.81993964-3.9073331-8.72727273-8.7272727-8.72727273-1.9588937 0-3.76704971.64538519-5.22343593 1.73512367zM12 24C5.372583 24 0 18.6274169 0 12 0 5.372583 5.372583 0 12 0c6.6274169 0 12 5.372583 12 12 0 6.6274169-5.3725831 12-12 12z" fill="#A9ACB1" fill-rule="nonzero"/>
</svg>
