<svg fill="none" xmlns="http://www.w3.org/2000/svg" viewBox="0 0 491 140"><path d="M61.459 13.126a48 48 0 0 0-5.406.313.503.503 0 0 0-.293.854l5.434 5.44a.483.483 0 0 0 .292.139c18.888 2.07 33.48 18.18 33.253 37.575-2.026 46.974-68.335 49.694-74.521 3.498a.496.496 0 0 0-.138-.282l-5.567-5.573a.506.506 0 0 0-.857.288c-3.7 28.311 19.071 54.316 47.803 54.07 63.881-2.534 63.87-93.795 0-96.323v.001Z" fill="navy"/><path d="M66.256 24.894 83.58 42.14c.29.289.404.71.3 1.106l-8.212 31.087a1.148 1.148 0 0 1-.811.815l-31.052 8.354a1.147 1.147 0 0 1-1.105-.292L25.277 65.983a1.147 1.147 0 0 1 .51-1.924l29.771-7.977c.396-.106.706-.416.812-.812l7.969-29.857a1.147 1.147 0 0 1 1.918-.517l-.001-.002Z" fill="navy"/><path d="M20.594 51.678 8.069 39.153a1.032 1.032 0 0 1-.263-1.009l6.601-23.364a1.03 1.03 0 0 1 .717-.713l23.398-6.48c.358-.099.741.002 1.004.264l12.52 12.52a1.03 1.03 0 0 1-.454 1.722l-22.274 6.169a1.03 1.03 0 0 0-.717.713L22.313 51.23a1.03 1.03 0 0 1-1.72.45l.001-.002Z" fill="#007AB8"/><path d="M137.738 52.403C127.733 12.851 84.885-9.727 46.652 4.067a.553.553 0 0 0-.2.907L50.072 8.6c.13.13.318.184.498.145 75.287-16.396 103.062 90.101 29.15 112.499C37.094 132.764-2.822 92.11 8.995 49.958a.54.54 0 0 0-.136-.526l-3.586-3.59a.552.552 0 0 0-.904.195c-19.41 51.915 28.99 106.022 83.244 91.596 37.377-9.693 59.819-47.852 50.125-85.23ZM170.603 23.143l1.768-3.124c.302-.489 1.017-.414 1.28-.226.151.075 2.86 2.07 5.344 2.07 1.505 0 2.596-.941 2.596-2.258 0-1.58-1.316-2.785-3.876-3.801-3.236-1.279-7.3-3.801-7.3-8.316C170.414 3.763 173.312 0 179.107 0c3.914 0 6.924 1.994 8.052 2.822.452.264.376.941.226 1.204l-1.919 2.898c-.264.414-.941.752-1.28.489-.339-.188-3.085-2.258-5.381-2.258-1.354 0-2.371.903-2.371 1.919 0 1.392 1.129 2.446 4.102 3.65 2.935 1.166 7.601 3.462 7.601 8.58 0 3.876-3.349 7.789-8.881 7.789-4.892 0-7.601-2.032-8.467-2.897-.376-.377-.489-.527-.188-1.054l.002.001ZM191.979 25.739 203.757.414c.114-.226.377-.414.64-.414h.376c.264 0 .527.188.64.414l11.778 25.325c.225.489-.075.978-.64.978h-4.176c-.678 0-.979-.226-1.317-.941l-1.355-2.973h-10.235l-1.355 3.01c-.188.452-.602.903-1.355.903h-4.139c-.565 0-.866-.488-.64-.977Zm15.466-8.053-2.86-6.209h-.038l-2.822 6.209h5.72ZM222.877.678c0-.377.338-.678.715-.678h.941l15.015 14.45h.037V1.091c0-.376.302-.715.716-.715h4.515c.376 0 .716.339.716.715v25.325c0 .376-.339.677-.716.677h-.602c-.113 0-.414-.113-.489-.188l-14.864-14.939h-.038v14.036a.715.715 0 0 1-.715.715h-4.478a.74.74 0 0 1-.715-.715L222.877.678ZM254.642 1.091c0-.376.301-.715.715-.715h15.579c.414 0 .716.339.716.715v4.101a.716.716 0 0 1-.716.715h-10.423v5.419h8.58a.74.74 0 0 1 .715.715v4.102a.74.74 0 0 1-.715.715h-8.58v9.144a.74.74 0 0 1-.715.715h-4.44a.715.715 0 0 1-.715-.715V1.091h-.001ZM290.054 0c7.526 0 13.547 6.059 13.547 13.584 0 7.525-6.021 13.509-13.547 13.509-7.526 0-13.509-5.983-13.509-13.509C276.545 6.058 282.529 0 290.054 0Zm0 21.073c4.14 0 7.526-3.387 7.526-7.489 0-4.139-3.386-7.563-7.526-7.563-4.102 0-7.488 3.424-7.488 7.563 0 4.102 3.386 7.489 7.488 7.489ZM310.793 1.091c0-.376.301-.715.715-.715h11.251c4.516 0 8.204 3.65 8.204 8.128 0 3.462-2.296 6.247-5.569 7.563l5.155 9.558c.263.489 0 1.091-.64 1.091h-5.004a.695.695 0 0 1-.603-.339l-5.004-9.972h-2.597v9.596a.74.74 0 0 1-.715.715h-4.478a.715.715 0 0 1-.715-.715V1.091Zm11.477 10.536c1.544 0 2.86-1.43 2.86-3.01 0-1.58-1.316-2.86-2.86-2.86h-5.569v5.87h5.569ZM338.642 1.091c0-.376.301-.715.677-.715h9.182c7.263 0 13.208 5.908 13.208 13.133 0 7.3-5.945 13.208-13.208 13.208h-9.182c-.376 0-.677-.339-.677-.715V1.091Zm9.482 20.057c4.253 0 7.338-3.349 7.338-7.639 0-4.252-3.085-7.601-7.338-7.601h-3.612v15.24h3.612ZM171.732 38.727a.74.74 0 0 1 .715-.715h4.629c.414 0 .715.339.715.715v15.24c0 2.634 1.957 4.741 4.628 4.741 2.709 0 4.704-2.108 4.704-4.741v-15.24c0-.376.301-.715.715-.715h4.628a.74.74 0 0 1 .715.715v15.541c0 5.72-4.817 10.461-10.762 10.461-5.908 0-10.687-4.741-10.687-10.461V38.727ZM201.839 38.313c0-.376.339-.678.715-.678h.941l15.014 14.45h.038V38.726c0-.376.302-.715.716-.715h4.515c.376 0 .716.339.716.715v25.325c0 .376-.339.677-.716.677h-.602c-.113 0-.414-.113-.489-.188l-14.864-14.939h-.038v14.036a.715.715 0 0 1-.715.715h-4.478a.74.74 0 0 1-.715-.715l-.038-25.324ZM233.604 38.727c0-.376.301-.715.677-.715h9.182c7.263 0 13.208 5.908 13.208 13.133 0 7.3-5.945 13.208-13.208 13.208h-9.182c-.376 0-.677-.339-.677-.715V38.727Zm9.482 20.057c4.253 0 7.338-3.349 7.338-7.639 0-4.252-3.085-7.601-7.338-7.601h-3.612v15.24h3.612ZM263.899 38.727c0-.376.301-.715.715-.715h15.579c.414 0 .716.339.716.715v4.101a.715.715 0 0 1-.716.715H269.77v4.666h8.58a.74.74 0 0 1 .715.715v4.102a.715.715 0 0 1-.715.715h-8.58v5.081h10.423c.414 0 .716.339.716.715v4.102a.716.716 0 0 1-.716.715h-15.579a.715.715 0 0 1-.715-.715V38.727ZM288.589 38.727c0-.376.301-.715.715-.715h11.251c4.516 0 8.204 3.65 8.204 8.128 0 3.463-2.296 6.247-5.569 7.564l5.155 9.558c.263.489 0 1.091-.64 1.091h-5.004a.697.697 0 0 1-.603-.339l-5.004-9.972h-2.597v9.596a.74.74 0 0 1-.715.715h-4.478a.715.715 0 0 1-.715-.715V38.727Zm11.477 10.537c1.543 0 2.86-1.43 2.86-3.011 0-1.581-1.317-2.86-2.86-2.86h-5.569v5.871h5.569ZM328.066 37.673c3.161 0 6.622 1.317 9.182 3.537.339.264.376.715.075 1.016l-2.973 3.161a.795.795 0 0 1-1.016.038c-1.43-1.317-3.085-1.806-4.93-1.806-4.102 0-7.413 3.462-7.413 7.601 0 4.101 3.348 7.488 7.45 7.488 1.091 0 2.221-.151 3.349-.602v-2.183h-2.371c-.414 0-.716-.301-.716-.677V51.52c0-.414.302-.715.716-.715h7.563c.376 0 .677.339.677.715l.038 10.123c0 .188-.151.489-.301.602 0 0-3.877 2.446-9.332 2.446-7.488 0-13.509-5.945-13.509-13.471s6.021-13.547 13.509-13.547h.002ZM345.493 38.727c0-.376.301-.715.715-.715h11.251c4.516 0 8.204 3.65 8.204 8.128 0 3.463-2.296 6.247-5.569 7.564l5.155 9.558c.263.489 0 1.091-.64 1.091h-5.004a.697.697 0 0 1-.603-.339l-5.004-9.972h-2.597v9.596a.74.74 0 0 1-.715.715h-4.478a.715.715 0 0 1-.715-.715V38.727Zm11.477 10.537c1.543 0 2.86-1.43 2.86-3.011 0-1.581-1.317-2.86-2.86-2.86h-5.569v5.871h5.569ZM384.933 37.635c7.526 0 13.547 6.058 13.547 13.585 0 7.527-6.021 13.509-13.547 13.509-7.526 0-13.509-5.983-13.509-13.509 0-7.526 5.983-13.585 13.509-13.585Zm0 21.073c4.14 0 7.526-3.387 7.526-7.488 0-4.14-3.386-7.563-7.526-7.563-4.102 0-7.488 3.424-7.488 7.563 0 4.101 3.386 7.488 7.488 7.488ZM405.296 38.727a.74.74 0 0 1 .715-.715h4.629c.414 0 .715.339.715.715v15.24c0 2.634 1.957 4.741 4.628 4.741 2.709 0 4.704-2.108 4.704-4.741v-15.24c0-.376.301-.715.715-.715h4.628a.74.74 0 0 1 .715.715v15.541c0 5.72-4.817 10.461-10.762 10.461-5.908 0-10.687-4.741-10.687-10.461V38.727ZM435.403 38.313c0-.376.339-.678.715-.678h.941l15.014 14.45h.038V38.726c0-.376.302-.715.716-.715h4.515c.376 0 .716.339.716.715v25.325c0 .376-.339.677-.716.677h-.602c-.113 0-.414-.113-.489-.188l-14.864-14.939h-.038v14.036a.715.715 0 0 1-.715.715h-4.478a.74.74 0 0 1-.715-.715l-.038-25.324ZM467.168 38.727c0-.376.301-.715.677-.715h9.182c7.263 0 13.208 5.908 13.208 13.133 0 7.3-5.945 13.208-13.208 13.208h-9.182c-.376 0-.677-.339-.677-.715V38.727Zm9.482 20.057c4.253 0 7.338-3.349 7.338-7.639 0-4.252-3.085-7.601-7.338-7.601h-3.612v15.24h3.612ZM172.108 76.362c0-.376.301-.715.715-.715h11.251c4.516 0 8.204 3.65 8.204 8.127 0 3.463-2.296 6.247-5.569 7.564l5.155 9.558c.263.489 0 1.091-.64 1.091h-5.004a.697.697 0 0 1-.603-.339l-5.004-9.972h-2.597v9.596a.74.74 0 0 1-.715.715h-4.478a.715.715 0 0 1-.715-.715v-24.91Zm11.477 10.537c1.543 0 2.86-1.43 2.86-3.011 0-1.581-1.317-2.86-2.86-2.86h-5.569v5.871h5.569ZM199.958 76.362c0-.376.301-.715.715-.715h15.579c.414 0 .716.339.716.715v4.102a.716.716 0 0 1-.716.715h-10.423v4.666h8.58a.74.74 0 0 1 .715.715v4.102a.715.715 0 0 1-.715.715h-8.58v5.081h10.423c.414 0 .716.339.716.715v4.102a.716.716 0 0 1-.716.715h-15.579a.715.715 0 0 1-.715-.715V76.362ZM223.142 98.414l1.768-3.123c.302-.49 1.017-.414 1.28-.226.151.075 2.86 2.07 5.344 2.07 1.505 0 2.596-.941 2.596-2.257 0-1.58-1.316-2.785-3.876-3.801-3.236-1.28-7.3-3.8-7.3-8.316 0-3.726 2.898-7.488 8.692-7.488 3.914 0 6.924 1.994 8.053 2.822.452.263.377.94.226 1.204l-1.919 2.897c-.264.414-.941.752-1.28.489-.339-.188-3.085-2.257-5.381-2.257-1.354 0-2.371.902-2.371 1.919 0 1.392 1.129 2.446 4.102 3.65 2.935 1.166 7.601 3.462 7.601 8.579 0 3.877-3.349 7.79-8.881 7.79-4.892 0-7.601-2.032-8.467-2.898-.376-.376-.489-.526-.188-1.053l.001-.001ZM247.905 76.362c0-.376.301-.715.715-.715h15.579c.414 0 .716.339.716.715v4.102a.716.716 0 0 1-.716.715h-10.423v4.666h8.58a.74.74 0 0 1 .715.715v4.102a.715.715 0 0 1-.715.715h-8.58v5.081h10.423c.414 0 .716.339.716.715v4.102a.716.716 0 0 1-.716.715H248.62a.715.715 0 0 1-.715-.715V76.362ZM269.206 101.009l11.778-25.324c.113-.226.376-.414.639-.414H282c.263 0 .526.188.639.414l11.778 25.324c.225.489-.075.979-.64.979h-4.176c-.678 0-.979-.225-1.317-.941l-1.355-2.972h-10.235l-1.355 3.01c-.188.452-.602.903-1.355.903h-4.139c-.565 0-.866-.489-.64-.979h.001Zm15.466-8.053-2.86-6.208h-.038l-2.822 6.208h5.72ZM300.143 76.362c0-.376.301-.715.715-.715h11.251c4.516 0 8.204 3.65 8.204 8.127 0 3.463-2.296 6.247-5.569 7.564l5.155 9.558c.263.489 0 1.091-.64 1.091h-5.004a.697.697 0 0 1-.603-.339l-5.004-9.972h-2.597v9.596a.74.74 0 0 1-.715.715h-4.478a.715.715 0 0 1-.715-.715v-24.91Zm11.477 10.537c1.543 0 2.86-1.43 2.86-3.011 0-1.581-1.317-2.86-2.86-2.86h-5.569v5.871h5.569ZM339.658 75.271c3.762 0 6.548 1.166 9.106 3.499.339.301.339.752.038 1.053l-2.935 3.049a.659.659 0 0 1-.94 0 7.689 7.689 0 0 0-5.081-1.92c-4.252 0-7.375 3.538-7.375 7.752 0 4.177 3.161 7.639 7.413 7.639 1.769 0 3.688-.639 5.043-1.806.263-.226.752-.226.978.037l2.935 3.124c.263.263.225.752-.038 1.016-2.559 2.484-5.794 3.65-9.144 3.65-7.526 0-13.584-5.983-13.584-13.509a13.554 13.554 0 0 1 13.584-13.584ZM355.955 76.362a.74.74 0 0 1 .715-.715h4.478c.414 0 .715.339.715.715v9.482h10.762v-9.482c0-.376.302-.715.716-.715h4.477a.74.74 0 0 1 .716.715v24.911a.74.74 0 0 1-.716.715h-4.477a.716.716 0 0 1-.716-.715v-9.897h-10.762v9.897a.715.715 0 0 1-.715.715h-4.478a.74.74 0 0 1-.715-.715V76.362ZM172.108 113.998c0-.376.301-.715.715-.715h15.579c.414 0 .716.339.716.715v4.102a.716.716 0 0 1-.716.715h-10.423v5.418h8.58a.74.74 0 0 1 .715.716v4.101a.742.742 0 0 1-.715.716h-8.58v9.144a.74.74 0 0 1-.715.715h-4.44a.715.715 0 0 1-.715-.715v-24.911l-.001-.001ZM191.566 138.645l11.778-25.324c.113-.226.376-.414.639-.414h.377c.263 0 .526.188.639.414l11.778 25.324c.225.489-.075.979-.64.979h-4.176c-.678 0-.979-.225-1.317-.941l-1.355-2.972h-10.235l-1.355 3.01c-.188.452-.602.903-1.355.903h-4.139c-.565 0-.865-.489-.639-.979Zm15.466-8.053-2.86-6.208h-.038l-2.822 6.208h5.72ZM233.941 112.907c3.763 0 6.548 1.166 9.106 3.499.339.301.339.752.038 1.053l-2.935 3.049a.659.659 0 0 1-.94 0 7.689 7.689 0 0 0-5.081-1.92c-4.252 0-7.375 3.538-7.375 7.752 0 4.177 3.161 7.639 7.413 7.639 1.769 0 3.688-.639 5.043-1.806.263-.226.752-.226.978.037l2.935 3.124c.263.263.225.752-.038 1.016-2.559 2.484-5.794 3.65-9.144 3.65-7.526 0-13.584-5.983-13.584-13.509a13.554 13.554 0 0 1 13.584-13.584ZM250.239 113.998a.74.74 0 0 1 .715-.715h4.516a.74.74 0 0 1 .715.715v24.911a.74.74 0 0 1-.715.715h-4.516a.74.74 0 0 1-.715-.715v-24.911ZM265.292 113.998c0-.376.301-.715.715-.715h4.478a.74.74 0 0 1 .715.715v20.094h8.956c.414 0 .715.339.715.715v4.102a.715.715 0 0 1-.715.715h-14.149a.715.715 0 0 1-.715-.715v-24.911ZM287.158 113.998a.74.74 0 0 1 .715-.715h4.516a.74.74 0 0 1 .715.715v24.911a.74.74 0 0 1-.715.715h-4.516a.74.74 0 0 1-.715-.715v-24.911ZM305.599 118.815h-5.381a.715.715 0 0 1-.715-.715v-4.102c0-.376.301-.715.715-.715h16.707c.414 0 .716.339.716.715v4.102a.716.716 0 0 1-.716.715h-5.381v20.094a.74.74 0 0 1-.716.715h-4.515a.74.74 0 0 1-.715-.715v-20.094h.001ZM330.174 126.943l-8.316-12.569c-.302-.489 0-1.091.602-1.091h4.892c.301 0 .489.188.602.339l5.231 7.714 5.231-7.714c.113-.151.264-.339.603-.339h4.892c.602 0 .902.602.602 1.091l-8.429 12.531v12.004a.74.74 0 0 1-.715.715h-4.478a.715.715 0 0 1-.715-.715v-11.966h-.002Z" fill="navy"/></svg>