<svg width="16" height="20" xmlns="http://www.w3.org/2000/svg"><g fill="currentColor" fill-rule="evenodd"><path d="M8.634 9.577l4.699.654c1.368.178 2.379 1.309 2.379 2.736v4.283a2.729 2.729 0 01-2.736 2.736H5.778c-.951 0-1.784-.416-2.32-1.249L.248 13.8c-.417-.595-.298-1.428.297-1.844l.535-.416c.595-.417 1.428-.357 1.904.238l1.07 1.368a.387.387 0 00.536.119c.178-.06.297-.179.297-.417V3.926c0-.714.595-1.368 1.368-1.368h.595c.773 0 1.368.654 1.368 1.368V9.16c0 .179.179.417.417.417z"/><path d="M4.291 2.736a.825.825 0 01-1.01.238c-.298-.178-.417-.654-.239-1.011A4.046 4.046 0 016.492 0c1.428 0 2.796.773 3.51 1.963.178.357.06.833-.298 1.011-.297.179-.773.06-.951-.238a2.55 2.55 0 00-2.26-1.308c-.893 0-1.726.475-2.202 1.308z" fill-rule="nonzero"/></g></svg>