<svg xmlns="http://www.w3.org/2000/svg" xmlns:xlink="http://www.w3.org/1999/xlink" width="694.75" height="85.25" viewBox="0 0 694.75 85.25"><path d="M429.946 13.138v15.115c0 4.519 1.714 6.817 4.753 6.817 3.116 0 4.83-2.181 4.83-6.817V13.138h5.922v14.726c0 8.103-4.091 11.959-10.947 11.959-6.622 0-10.518-3.662-10.518-12.038V13.138h5.96zm19.242 13.284c0-2.376-.077-4.402-.155-6.077h5.142l.273 2.61h.116c.779-1.208 2.728-3.039 5.883-3.039 3.896 0 6.817 2.571 6.817 8.181v11.297h-5.922V28.837c0-2.454-.856-4.129-2.999-4.129-1.637 0-2.61 1.13-3 2.221-.156.351-.233.935-.233 1.48v10.985h-5.922V26.422zm40.316-14.686v21.971c0 2.143.078 4.402.156 5.688h-5.259l-.272-2.805h-.078c-1.208 2.143-3.506 3.233-5.96 3.233-4.52 0-8.143-3.857-8.143-9.778-.038-6.427 3.974-10.128 8.531-10.128 2.338 0 4.169.818 5.025 2.143h.078V11.736h5.922zm-5.921 16.673c0-.312-.039-.74-.078-1.052-.351-1.597-1.636-2.922-3.467-2.922-2.688 0-4.09 2.415-4.09 5.415 0 3.233 1.597 5.259 4.051 5.259 1.714 0 3.078-1.168 3.429-2.844.116-.429.155-.857.155-1.363v-2.493zm14.256 3.35c.194 2.454 2.609 3.623 5.375 3.623 2.026 0 3.662-.273 5.26-.779l.778 4.012c-1.947.779-4.323 1.169-6.895 1.169-6.467 0-10.168-3.74-10.168-9.7 0-4.831 3-10.167 9.622-10.167 6.155 0 8.493 4.792 8.493 9.505 0 1.013-.117 1.909-.195 2.337h-12.27zm6.973-4.051c0-1.441-.623-3.857-3.351-3.857-2.493 0-3.506 2.26-3.661 3.857h7.012zm8.061-1.091c0-2.805-.077-4.636-.155-6.272h5.103l.195 3.506h.155c.975-2.766 3.312-3.935 5.143-3.935.545 0 .818 0 1.247.078v5.571a8.495 8.495 0 0 0-1.598-.156c-2.182 0-3.662 1.168-4.052 3-.077.39-.116.857-.116 1.324v9.661h-5.922V26.617zm31.708-6.272c-.078 1.208-.155 2.805-.155 5.648v10.635c0 3.662-.74 6.661-2.883 8.57-2.104 1.792-4.947 2.337-7.752 2.337-2.493 0-5.143-.506-6.856-1.48l1.169-4.48c1.207.701 3.311 1.441 5.531 1.441 2.805 0 4.947-1.52 4.947-5.025v-1.247h-.078c-1.13 1.597-2.96 2.493-5.142 2.493-4.714 0-8.064-3.818-8.064-9.311 0-6.116 3.974-10.012 8.648-10.012 2.61 0 4.246 1.13 5.22 2.688h.078l.195-2.259h5.142zm-6.077 7.752c0-.389-.039-.779-.116-1.09-.429-1.559-1.559-2.61-3.194-2.61-2.143 0-3.896 1.948-3.896 5.415 0 2.844 1.402 5.064 3.896 5.064 1.519 0 2.727-1.013 3.116-2.415.155-.429.194-1.052.194-1.558v-2.806zm9.697-1.48c0-2.805-.077-4.636-.155-6.272h5.103l.195 3.506h.155c.975-2.766 3.312-3.935 5.143-3.935.545 0 .818 0 1.247.078v5.571a8.495 8.495 0 0 0-1.598-.156c-2.182 0-3.662 1.168-4.052 3-.077.39-.116.857-.116 1.324v9.661h-5.922V26.617zm32.332 3.039c0 6.973-4.948 10.167-10.051 10.167-5.571 0-9.856-3.662-9.856-9.817s4.052-10.09 10.168-10.09c5.843.001 9.739 4.013 9.739 9.74zm-13.791.195c0 3.272 1.363 5.726 3.896 5.726 2.299 0 3.779-2.298 3.779-5.726 0-2.844-1.091-5.727-3.779-5.727-2.844 0-3.896 2.921-3.896 5.727zm34.435 3.427c0 2.493.078 4.519.155 6.116h-5.142l-.272-2.688h-.117c-.74 1.169-2.532 3.117-5.96 3.117-3.856 0-6.7-2.416-6.7-8.298v-11.18h5.96V30.59c0 2.766.896 4.441 2.96 4.441 1.637 0 2.571-1.129 2.961-2.064.156-.351.195-.818.195-1.286V20.345h5.96v12.933zm3.776-6.856c0-2.376-.077-4.402-.155-6.077h5.142l.273 2.61h.116c.779-1.208 2.728-3.039 5.883-3.039 3.896 0 6.817 2.571 6.817 8.181v11.297h-5.922V28.837c0-2.454-.856-4.129-2.999-4.129-1.637 0-2.61 1.13-3 2.221-.156.351-.233.935-.233 1.48v10.985h-5.922V26.422zm40.317-14.686v21.971c0 2.143.078 4.402.156 5.688h-5.259l-.272-2.805h-.078c-1.208 2.143-3.506 3.233-5.96 3.233-4.52 0-8.143-3.857-8.143-9.778-.038-6.427 3.974-10.128 8.531-10.128 2.338 0 4.169.818 5.025 2.143h.078V11.736h5.922zm-5.921 16.673c0-.312-.039-.74-.078-1.052-.351-1.597-1.636-2.922-3.467-2.922-2.688 0-4.09 2.415-4.09 5.415 0 3.233 1.597 5.259 4.051 5.259 1.714 0 3.078-1.168 3.429-2.844.116-.429.155-.857.155-1.363v-2.493zm-215.324 20.83c1.908-.312 4.752-.545 7.908-.545 3.896 0 6.622.584 8.492 2.064 1.558 1.247 2.415 3.078 2.415 5.493 0 3.351-2.376 5.648-4.636 6.467v.117c1.831.739 2.844 2.493 3.506 4.908.818 2.96 1.637 6.389 2.143 7.401h-6.077c-.429-.74-1.052-2.883-1.831-6.116-.701-3.272-1.831-4.168-4.246-4.207h-1.792v10.323h-5.882V49.239zm5.882 11.297h2.338c2.96 0 4.713-1.48 4.713-3.779 0-2.415-1.636-3.623-4.362-3.662-1.441 0-2.26.117-2.688.195v7.246zm20.216 6.973c.194 2.455 2.609 3.623 5.375 3.623 2.026 0 3.662-.272 5.26-.779l.778 4.013c-1.947.779-4.323 1.169-6.895 1.169-6.467 0-10.168-3.74-10.168-9.7 0-4.83 3-10.167 9.622-10.167 6.155 0 8.493 4.792 8.493 9.505 0 1.013-.117 1.909-.195 2.337h-12.27zm6.973-4.051c0-1.441-.623-3.856-3.351-3.856-2.493 0-3.506 2.259-3.661 3.856h7.012zm7.866 6.506c1.091.662 3.351 1.44 5.104 1.44 1.792 0 2.532-.623 2.532-1.597s-.584-1.441-2.805-2.182c-3.935-1.324-5.454-3.467-5.415-5.727 0-3.545 3.039-6.233 7.752-6.233 2.221 0 4.208.507 5.376 1.091l-1.052 4.09c-.856-.468-2.493-1.091-4.129-1.091-1.441 0-2.26.585-2.26 1.559 0 .896.74 1.363 3.077 2.182 3.623 1.246 5.143 3.077 5.182 5.882 0 3.545-2.805 6.155-8.259 6.155-2.493 0-4.714-.546-6.155-1.324l1.052-4.245zm20.529-2.455c.194 2.455 2.609 3.623 5.375 3.623 2.026 0 3.662-.272 5.26-.779l.778 4.013c-1.947.779-4.323 1.169-6.895 1.169-6.467 0-10.168-3.74-10.168-9.7 0-4.83 3-10.167 9.622-10.167 6.155 0 8.493 4.792 8.493 9.505 0 1.013-.117 1.909-.195 2.337h-12.27zm6.973-4.051c0-1.441-.623-3.856-3.351-3.856-2.493 0-3.506 2.259-3.661 3.856h7.012zm18.89 11.687l-.351-1.909h-.117c-1.246 1.52-3.194 2.338-5.453 2.338-3.857 0-6.155-2.805-6.155-5.844 0-4.947 4.44-7.323 11.18-7.284v-.273c0-1.013-.545-2.454-3.467-2.454-1.947 0-4.013.662-5.259 1.441l-1.091-3.817c1.324-.74 3.935-1.675 7.401-1.675 6.35 0 8.376 3.74 8.376 8.22v6.622c0 1.831.077 3.584.272 4.636h-5.336zm-.701-8.999c-3.116-.039-5.532.701-5.532 3 0 1.52 1.014 2.259 2.338 2.259 1.48 0 2.688-.974 3.077-2.181a4.25 4.25 0 0 0 .117-1.014v-2.064zm9.464-3.779c0-2.805-.077-4.636-.155-6.272h5.103l.195 3.506h.155c.975-2.766 3.312-3.935 5.143-3.935.545 0 .818 0 1.247.078v5.571a8.495 8.495 0 0 0-1.598-.156c-2.182 0-3.662 1.169-4.052 3-.077.39-.116.856-.116 1.324v9.661h-5.922V62.367zm27.814 12.31c-1.052.468-3.038.857-5.298.857-6.155 0-10.09-3.74-10.09-9.739 0-5.57 3.818-10.128 10.908-10.128 1.558 0 3.272.273 4.519.74l-.935 4.402c-.701-.312-1.753-.584-3.312-.584-3.116 0-5.143 2.221-5.104 5.337 0 3.506 2.338 5.337 5.221 5.337 1.402 0 2.493-.233 3.389-.584l.702 4.362zm2.374-27.191h5.922v10.869h.077c.624-.818 1.403-1.441 2.338-1.948.857-.467 1.986-.74 3.077-.74 3.779 0 6.662 2.61 6.662 8.336v11.142h-5.922v-10.48c0-2.493-.856-4.207-3.077-4.207-1.559 0-2.532 1.013-2.961 2.064-.155.39-.194.896-.194 1.325v11.297h-5.922V47.486zm28.94 1.402h16.05v4.87h-10.09v5.999h9.428v4.831h-9.428v10.557h-5.96V48.888zm28.943 26.257l-.351-1.909h-.117c-1.246 1.52-3.194 2.338-5.453 2.338-3.857 0-6.155-2.805-6.155-5.844 0-4.947 4.44-7.323 11.18-7.284v-.273c0-1.013-.545-2.454-3.467-2.454-1.947 0-4.013.662-5.259 1.441l-1.091-3.817c1.324-.74 3.935-1.675 7.401-1.675 6.35 0 8.376 3.74 8.376 8.22v6.622c0 1.831.077 3.584.272 4.636h-5.336zm-.702-8.999c-3.116-.039-5.532.701-5.532 3 0 1.52 1.014 2.259 2.338 2.259 1.48 0 2.688-.974 3.077-2.181a4.25 4.25 0 0 0 .117-1.014v-2.064zm23.45 8.531c-1.052.468-3.038.857-5.298.857-6.155 0-10.09-3.74-10.09-9.739 0-5.57 3.818-10.128 10.908-10.128 1.558 0 3.272.273 4.519.74l-.935 4.402c-.701-.312-1.753-.584-3.312-.584-3.116 0-5.143 2.221-5.104 5.337 0 3.506 2.338 5.337 5.221 5.337 1.402 0 2.493-.233 3.389-.584l.702 4.362zm8.412-23.88c0 1.636-1.246 2.96-3.194 2.96-1.87 0-3.116-1.324-3.077-2.96-.039-1.714 1.207-3 3.116-3s3.116 1.286 3.155 3zm-6.117 24.348v-19.05h5.922v19.049h-5.922zm9.699-27.659h5.922v27.659h-5.922V47.486zm15.853 3.311c0 1.636-1.246 2.96-3.194 2.96-1.87 0-3.116-1.324-3.077-2.96-.039-1.714 1.207-3 3.116-3s3.116 1.286 3.155 3zm-6.116 24.348v-19.05h5.922v19.049h-5.922zm16.321-24.503v5.454h4.246v4.363h-4.246v6.896c0 2.298.545 3.35 2.337 3.35a9.68 9.68 0 0 0 1.753-.155l.039 4.479c-.779.312-2.182.507-3.856.507-1.909 0-3.506-.662-4.441-1.636-1.091-1.13-1.636-2.961-1.636-5.649V60.46h-2.532v-4.363h2.532v-4.129l5.804-1.326zm11.686 5.453l2.844 9.349c.312 1.13.701 2.532.935 3.545h.117c.272-1.013.584-2.454.857-3.545l2.337-9.349h6.35l-4.44 12.543c-2.728 7.558-4.559 10.597-6.701 12.505a10.915 10.915 0 0 1-5.727 2.61L676 78.728c.74-.117 1.675-.468 2.571-1.013.896-.468 1.87-1.402 2.454-2.377.194-.272.312-.584.312-.856 0-.195-.039-.507-.272-.974l-6.974-17.414h6.583z" fill="#699280"/><defs><path id="a" d="M21.43 6.928c0-.001 0-.001 0 0m.001-.001l.004-.002-.004.002m.069-.046c-.021.012-.042.028-.063.042l.063-.042.033-.021c-.011.007-.02.014-.033.021m.131-.088a.251.251 0 0 0 .027-.018l-.027.018m-.072.049l.072-.049-.076.052c-.008.005-.015.009-.022.015a.07.07 0 0 1 .009-.007l-.107.072.003-.002-.003.002-.005.003 28.031 42.045a7.237 7.237 0 0 1 10.824 6.286 7.234 7.234 0 0 1-7.236 7.234 7.234 7.234 0 0 1-6.21-10.951L10.154 17.011A41 41 0 0 0 1.583 42.16c0 22.745 18.437 41.183 41.184 41.183 22.744 0 41.182-18.438 41.182-41.183C83.949 19.416 65.511.976 42.767.976c-8.423 0-14.706 1.54-21.208 5.866"/></defs><clipPath id="c"><use xlink:href="#a" overflow="visible"/></clipPath><defs><filter id="b" filterUnits="userSpaceOnUse" x="-38.7" y="-39.307" width="162.932" height="162.931"><feColorMatrix values="1 0 0 0 0 0 1 0 0 0 0 0 1 0 0 0 0 0 1 0"/></filter></defs><mask maskUnits="userSpaceOnUse" x="-38.7" y="-39.307" width="162.932" height="162.931" id="g"><g filter="url(#b)"><defs><path id="d" transform="rotate(39.001 42.768 42.16)" d="M-15.157-15.764h115.845v115.846H-15.157z"/></defs><clipPath id="e" clip-path="url(#c)"><use xlink:href="#d" overflow="visible"/></clipPath><linearGradient id="f" gradientUnits="userSpaceOnUse" x1="-52.674" y1="368.127" x2="-51.746" y2="368.127" gradientTransform="scale(-88.7427 88.7427) rotate(-39 -545.453 111.263)"><stop offset="0" stop-color="#fff"/><stop offset=".243" stop-color="#f9f9f9"/><stop offset=".561" stop-color="#e9e9e9"/><stop offset=".919" stop-color="#cecece"/><stop offset="1" stop-color="#c7c7c7"/></linearGradient><path clip-path="url(#e)" fill="url(#f)" d="M59.704 203.312l-178.09-144.215L25.828-118.994l178.09 144.215z"/></g></mask><linearGradient id="h" gradientUnits="userSpaceOnUse" x1="-52.674" y1="368.127" x2="-51.746" y2="368.127" gradientTransform="scale(-88.7427 88.7427) rotate(-39 -545.454 111.263)"><stop offset="0" stop-color="#004a2c"/><stop offset=".095" stop-color="#064e31"/><stop offset=".22" stop-color="#165a3e"/><stop offset=".36" stop-color="#316d55"/><stop offset=".513" stop-color="#578874"/><stop offset=".676" stop-color="#88aa9c"/><stop offset=".843" stop-color="#c2d4cc"/><stop offset="1" stop-color="#fff"/></linearGradient><path clip-path="url(#c)" mask="url(#g)" fill="url(#h)" d="M51.329 123.624L-38.7 50.722l72.904-90.029 90.028 72.904z"/><defs><path id="i" d="M27.835 16.537L49.46 48.974a7.237 7.237 0 0 1 10.824 6.286 7.234 7.234 0 0 1-7.236 7.234 7.234 7.234 0 0 1-6.21-10.951L18.457 24.827a33.342 33.342 0 0 0-7.03 20.515c0 18.498 14.998 33.495 33.499 33.495 18.497 0 33.493-14.997 33.493-33.495S63.422 11.848 44.925 11.848a33.319 33.319 0 0 0-17.09 4.689"/></defs><clipPath id="k"><use xlink:href="#i" overflow="visible"/></clipPath><defs><filter id="j" filterUnits="userSpaceOnUse" x="-21.335" y="-20.916" width="132.516" height="132.516"><feColorMatrix values="1 0 0 0 0 0 1 0 0 0 0 0 1 0 0 0 0 0 1 0"/></filter></defs><mask maskUnits="userSpaceOnUse" x="-21.335" y="-20.916" width="132.516" height="132.516" id="o"><g filter="url(#j)"><defs><path id="l" transform="rotate(39.001 44.924 45.342)" d="M-2.186-1.767H92.03v94.218H-2.186z"/></defs><clipPath id="m" clip-path="url(#k)"><use xlink:href="#l" overflow="visible"/></clipPath><linearGradient id="n" gradientUnits="userSpaceOnUse" x1="-52.028" y1="368.787" x2="-51.1" y2="368.787" gradientTransform="scale(-72.169 72.169) rotate(-39 -545.918 112.782)"><stop offset="0" stop-color="#fff"/><stop offset=".243" stop-color="#f9f9f9"/><stop offset=".561" stop-color="#e9e9e9"/><stop offset=".919" stop-color="#cecece"/><stop offset="1" stop-color="#c7c7c7"/></linearGradient><path clip-path="url(#m)" fill="url(#n)" d="M58.699 176.406L-86.144 59.117 31.147-85.724l144.841 117.29z"/></g></mask><linearGradient id="p" gradientUnits="userSpaceOnUse" x1="-52.029" y1="368.772" x2="-51.101" y2="368.772" gradientTransform="scale(-72.1692 72.1692) rotate(-39 -545.897 112.772)"><stop offset="0" stop-color="#004a2c"/><stop offset=".095" stop-color="#064e31"/><stop offset=".22" stop-color="#165a3e"/><stop offset=".36" stop-color="#316d55"/><stop offset=".513" stop-color="#578874"/><stop offset=".676" stop-color="#88aa9c"/><stop offset=".843" stop-color="#c2d4cc"/><stop offset="1" stop-color="#fff"/></linearGradient><path clip-path="url(#k)" mask="url(#o)" fill="url(#p)" d="M51.886 111.6l-73.221-59.293 59.293-73.223 73.223 59.294z"/><defs><path id="q" d="M36.838 30.041l12.623 18.933a7.237 7.237 0 0 1 10.824 6.286 7.234 7.234 0 0 1-7.236 7.234 7.234 7.234 0 0 1-6.21-10.951L30.168 35.852a23.301 23.301 0 0 0-4.987 14.438c0 12.935 10.483 23.42 23.418 23.42 12.934 0 23.419-10.485 23.419-23.42 0-12.934-10.485-23.419-23.419-23.419a23.303 23.303 0 0 0-11.761 3.17"/></defs><clipPath id="s"><use xlink:href="#q" overflow="visible"/></clipPath><defs><filter id="r" filterUnits="userSpaceOnUse" x="2.273" y="3.964" width="92.653" height="92.653"><feColorMatrix values="1 0 0 0 0 0 1 0 0 0 0 0 1 0 0 0 0 0 1 0"/></filter></defs><mask maskUnits="userSpaceOnUse" x="2.273" y="3.964" width="92.653" height="92.653" id="w"><g filter="url(#r)"><defs><path id="t" transform="rotate(39.001 48.6 50.293)" d="M15.66 17.352h65.876v65.877H15.66z"/></defs><clipPath id="u" clip-path="url(#s)"><use xlink:href="#t" overflow="visible"/></clipPath><linearGradient id="v" gradientUnits="userSpaceOnUse" x1="-50.536" y1="370.296" x2="-49.608" y2="370.296" gradientTransform="scale(-50.4627 50.4627) rotate(-39 -546.953 116.305)"><stop offset="0" stop-color="#fff"/><stop offset=".243" stop-color="#f9f9f9"/><stop offset=".561" stop-color="#e9e9e9"/><stop offset=".919" stop-color="#cecece"/><stop offset="1" stop-color="#c7c7c7"/></linearGradient><path clip-path="url(#u)" fill="url(#v)" d="M58.231 141.932l-101.273-82.01L38.967-41.351 140.24 40.658z"/></g></mask><linearGradient id="x" gradientUnits="userSpaceOnUse" x1="-50.536" y1="370.296" x2="-49.608" y2="370.296" gradientTransform="scale(-50.4627 50.4627) rotate(-39 -546.953 116.305)"><stop offset="0" stop-color="#004a2c"/><stop offset=".095" stop-color="#064e31"/><stop offset=".22" stop-color="#165a3e"/><stop offset=".36" stop-color="#316d55"/><stop offset=".513" stop-color="#578874"/><stop offset=".676" stop-color="#88aa9c"/><stop offset=".843" stop-color="#c2d4cc"/><stop offset="1" stop-color="#fff"/></linearGradient><path clip-path="url(#s)" mask="url(#w)" fill="url(#x)" d="M53.468 96.617L2.273 55.16 43.73 3.964l51.196 41.457z"/><defs><path id="y" d="M45.447 42.955l4.014 6.019a7.237 7.237 0 0 1 10.824 6.286 7.234 7.234 0 0 1-7.236 7.234 7.234 7.234 0 0 1-6.21-10.951l-5.346-5.032a14.08 14.08 0 0 0-2.88 8.551c0 7.809 6.33 14.14 14.14 14.14 7.81 0 14.14-6.331 14.14-14.14 0-7.811-6.33-14.14-14.14-14.14a14.072 14.072 0 0 0-7.306 2.033"/></defs><clipPath id="A"><use xlink:href="#y" overflow="visible"/></clipPath><defs><filter id="z" filterUnits="userSpaceOnUse" x="24.782" y="27.092" width="55.941" height="55.941"><feColorMatrix values="1 0 0 0 0 0 1 0 0 0 0 0 1 0 0 0 0 0 1 0"/></filter></defs><mask maskUnits="userSpaceOnUse" x="24.782" y="27.092" width="55.941" height="55.941" id="E"><g filter="url(#z)"><defs><path id="B" transform="rotate(38.997 52.753 55.064)" d="M32.866 35.175H72.64V74.95H32.866z"/></defs><clipPath id="C" clip-path="url(#A)"><use xlink:href="#B" overflow="visible"/></clipPath><linearGradient id="D" gradientUnits="userSpaceOnUse" x1="-47.294" y1="373.606" x2="-46.367" y2="373.606" gradientTransform="scale(-30.465 30.465) rotate(-39 -549.242 124.028)"><stop offset="0" stop-color="#fff"/><stop offset=".243" stop-color="#f9f9f9"/><stop offset=".561" stop-color="#e9e9e9"/><stop offset=".919" stop-color="#cecece"/><stop offset="1" stop-color="#c7c7c7"/></linearGradient><path clip-path="url(#C)" fill="url(#D)" d="M58.568 110.394L-2.578 60.878 46.937-.268l61.147 49.515z"/></g></mask><linearGradient id="F" gradientUnits="userSpaceOnUse" x1="-47.294" y1="373.606" x2="-46.366" y2="373.606" gradientTransform="scale(-30.465 30.465) rotate(-39 -549.242 124.028)"><stop offset="0" stop-color="#004a2c"/><stop offset=".095" stop-color="#064e31"/><stop offset=".22" stop-color="#165a3e"/><stop offset=".36" stop-color="#316d55"/><stop offset=".513" stop-color="#578874"/><stop offset=".676" stop-color="#88aa9c"/><stop offset=".843" stop-color="#c2d4cc"/><stop offset="1" stop-color="#fff"/></linearGradient><path clip-path="url(#A)" mask="url(#E)" fill="url(#F)" d="M55.692 83.033l-30.91-25.03 25.031-30.911 30.91 25.031z"/><path d="M104.264 61.084c3.691 1.89 9.361 3.78 15.213 3.78 6.302 0 9.633-2.611 9.633-6.573 0-3.781-2.88-5.941-10.171-8.55-10.083-3.51-16.654-9.093-16.654-17.915 0-10.351 8.642-18.273 22.955-18.273 6.841 0 11.883 1.439 15.483 3.06l-3.061 11.074c-2.431-1.17-6.752-2.882-12.694-2.882-5.94 0-8.821 2.701-8.821 5.851 0 3.871 3.42 5.582 11.253 8.553 10.713 3.96 15.753 9.541 15.753 18.093 0 10.17-7.831 18.812-24.484 18.812-6.932 0-13.774-1.798-17.195-3.688l2.79-11.342zm71.203 14.132l-.809-4.41h-.27c-2.881 3.512-7.381 5.401-12.603 5.401-8.912 0-14.223-6.481-14.223-13.503 0-11.435 10.262-16.924 25.835-16.834v-.628c0-2.342-1.26-5.671-8.011-5.671-4.501 0-9.272 1.529-12.154 3.33l-2.52-8.821c3.061-1.711 9.092-3.871 17.104-3.871 14.673 0 19.354 8.641 19.354 18.994v15.301c0 4.232.18 8.283.63 10.714h-12.333zm-1.619-20.795c-7.202-.088-12.783 1.621-12.783 6.933 0 3.511 2.341 5.221 5.4 5.221 3.421 0 6.212-2.25 7.112-5.043a9.82 9.82 0 0 0 .271-2.338v-4.773zm21.874-9.18c0-5.492-.18-10.173-.36-14.045h11.882l.63 6.031h.27c1.801-2.791 6.302-7.021 13.594-7.021 9.002 0 15.753 5.941 15.753 18.902v26.107h-13.683V50.822c0-5.671-1.98-9.542-6.932-9.542-3.781 0-6.031 2.61-6.931 5.131-.36.81-.541 2.159-.541 3.42v25.386h-13.683V45.241zm52.03 29.975V41.279h-5.762V31.196h5.762v-1.709c0-5.31 1.621-11.163 5.581-14.764 3.422-3.241 8.192-4.41 12.153-4.41 3.061 0 5.4.361 7.291.899l-.54 10.534c-1.17-.361-2.61-.63-4.41-.63-4.502 0-6.392 3.51-6.392 7.831v2.25h8.822V41.28h-8.732v33.937h-13.773zm69.494-22.504c0 16.115-11.432 23.495-23.225 23.495-12.873 0-22.774-8.464-22.774-22.685 0-14.223 9.362-23.315 23.495-23.315 13.503 0 22.504 9.272 22.504 22.505zm-31.867.448c0 7.562 3.152 13.233 9.002 13.233 5.312 0 8.732-5.309 8.732-13.233 0-6.568-2.52-13.231-8.732-13.231-6.57 0-9.002 6.751-9.002 13.231zm38.078-7.47c0-6.481-.181-10.711-.36-14.494h11.792l.45 8.103h.36c2.251-6.392 7.652-9.092 11.883-9.092 1.26 0 1.891 0 2.88.181V43.26c-.989-.179-2.159-.36-3.69-.36-5.041 0-8.461 2.7-9.361 6.931-.181.899-.271 1.979-.271 3.063v22.322h-13.683V45.69zm73.904-34.388v50.769c0 4.954.181 10.174.36 13.145h-12.153l-.63-6.481h-.18c-2.791 4.949-8.102 7.473-13.772 7.473-10.442 0-18.813-8.911-18.813-22.596-.091-14.852 9.182-23.404 19.714-23.404 5.401 0 9.632 1.89 11.612 4.951h.18V11.302h13.682zM383.679 49.83c0-.721-.091-1.709-.18-2.429-.811-3.691-3.78-6.753-8.013-6.753-6.212 0-9.452 5.583-9.452 12.512 0 7.472 3.691 12.153 9.363 12.153 3.96 0 7.11-2.7 7.92-6.57.271-.991.361-1.979.361-3.152V49.83z" fill="#044A2C"/></svg>