<svg data-bs-tooltip-label="Color" width="24" height="24" xmlns="http://www.w3.org/2000/svg">
  <g fill="currentColor" fill-rule="nonzero">
    <path d="M20.0093024 15.9069767l.9209303-.9209302-8.9302326-8.90232557V0h-1.3116279v4.74418605L8.65116288 2.65116279l-.92093023.92093023.97674419.97674419L.86511637 12.3627907C.3627908 12.8651163.111628 13.5069767.111628 14.2325581s.2511628 1.3395349.75348837 1.8697675l6.41860465 6.4186046c.50232558.5023256 1.14418605.7534884 1.86976745.7534884.72558139 0 1.33953483-.2511628 1.86976743-.7534884l7.8139535-7.8139535 1.172093 1.2zm-8.8744186-2.9302325c-.9209302 0-1.64651161-.7534884-1.64651161-1.7023256 0-.7255814.41860465-1.3116279 1.06046511-1.59069767h1.227907c.5860465.25116279 1.0604651.86511627 1.0604651 1.59069767-.055814.8930233-.8372093 1.7023256-1.7023256 1.7023256zM20.455814 17.7488372c-.2511627-.2511628-.6697674-.2511628-.9209302 0l-1.5069767 1.5069768c-1.0883721 1.088372-1.0883721 2.8465116 0 3.9348837C18.5581396 23.7209302 19.255814 24 20.0093024 24s1.4511628-.3069767 1.9813954-.8093023c.5302325-.5302326.8093023-1.227907.8093023-1.9813954 0-.7534883-.3069768-1.4511628-.8093023-1.9813953l-1.5348838-1.4790698z"/>
  </g>
</svg>
