<svg data-bs-tooltip-label="Image" width="24" height="17" xmlns="http://www.w3.org/2000/svg">
  <path d="M2.63678312 0H21.3579433c1.4062843 0 2.6367831 1.05777778 2.6367831 2.26666667V14.7333333C23.9947264 16.0177778 22.8521204 17 21.3579433 17H2.63678312C1.23049879 17 0 16.0177778 0 14.7333333V2.26666667C0 1.05777778 1.23049879 0 2.63678312 0zM14.1507361 3.51571083c1.0547133 0 1.933641.87892771 1.933641 1.93364096 0 1.05471325-.8789277 1.93364096-1.933641 1.93364096-1.0547132 0-1.933641-.87892771-1.933641-1.93364096 0-1.05471325.8789278-1.93364096 1.933641-1.93364096zM2.1094265 13.7112722l6.15249396-7.64667101 5.44935174 6.41617231 5.2735663-3.77938919 2.9004614 4.30674579V2.63678312c0-.26367831-.1757855-.52735662-.5273566-.52735662H2.63678312c-.26367831 0-.52735662.26367831-.52735662.52735662V13.7112722z" fill="currentColor" fill-rule="nonzero"/>
</svg>
