<svg xmlns="http://www.w3.org/2000/svg" viewBox="0 0 540 240"><path fill="#C00" d="M224.6 60l-60-16.1 16.1-27.8-60 16.1V0L76.8 43.9 60.7 16.1l-16.1 60L16.8 60l16.1 60H.7l43.9 43.9L16.8 180l60 16.1-16.1 27.8 60-16.1V240l43.9-43.9 16.1 27.8 16.1-60 27.8 16.1-16.1-60h32.2l-43.9-43.9L224.6 60zm-68-2.1l5 38.5 21.2-12.3-14.9 35.9h24.5l-30.9 23.6 21.2 12.3-38.5 5 12.3 21.2-35.8-14.9v24.5l-23.6-30.9L84.8 182l-5-38.5-21.2 12.3 15-35.8H49l30.9-23.6-21.3-12.2 38.5-5-12.2-21.3 35.8 14.9V48.3l23.6 30.9 12.3-21.3z"/><path d="M380.1 105h-15.5v-9.8h42.2v9.8h-15.5v44.6h-11.2V105zm50.9-9.9h37.1v9.8h-25.9v12.5h21.9v9.6h-21.9v12.6h25.9v9.8H431V95.1zm79.7 29.1c-2.7-2.6-6.5-7.4-6.5-7.4s.8 6 .8 9.9v22.8h-10.5V94.7h1.1l27.4 25.8c2.6 2.5 6.4 7.4 6.4 7.4s-.7-6.2-.7-9.9V95.1h10.5V150h-1.1l-27.4-25.8zm-170.5 25.3H352l-25-54.8h-1l-23.9 54.9H313l4.3-10.4h18.5l4.4 10.3zm-19.1-19.8l2.1-5.2c1.5-3.8 3.1-9.4 3.2-9.7.2.6 1.8 6.1 3.3 9.7l2.2 5.2h-10.8z" fill="#414042"/></svg>