<svg width="695" height="86" viewBox="0 0 695 86" fill="none" xmlns="http://www.w3.org/2000/svg">
<g clip-path="url(#clip0_508_865)">
<path d="M429.946 13.138V28.253C429.946 32.772 431.66 35.07 434.699 35.07C437.815 35.07 439.529 32.889 439.529 28.253V13.138H445.451V27.864C445.451 35.967 441.36 39.823 434.504 39.823C427.882 39.823 423.986 36.161 423.986 27.785V13.138H429.946ZM449.188 26.422C449.188 24.046 449.112 22.02 449.034 20.345H454.176L454.449 22.955H454.565C455.343 21.747 457.293 19.916 460.448 19.916C464.344 19.916 467.264 22.487 467.264 28.097V39.394H461.342V28.837C461.342 26.383 460.487 24.708 458.343 24.708C456.706 24.708 455.734 25.838 455.343 26.929C455.187 27.28 455.111 27.864 455.111 28.409V39.394H449.188V26.422ZM489.504 11.736V33.707C489.504 35.85 489.582 38.109 489.66 39.395H484.401L484.129 36.59H484.051C482.843 38.733 480.545 39.823 478.091 39.823C473.571 39.823 469.948 35.966 469.948 30.045C469.91 23.618 473.922 19.917 478.478 19.917C480.817 19.917 482.648 20.735 483.503 22.06H483.581V11.736H489.504ZM483.583 28.409C483.583 28.097 483.544 27.669 483.505 27.357C483.154 25.76 481.869 24.435 480.038 24.435C477.35 24.435 475.948 26.85 475.948 29.85C475.948 33.083 477.545 35.109 479.999 35.109C481.713 35.109 483.077 33.941 483.428 32.265C483.544 31.836 483.583 31.408 483.583 30.902V28.409ZM497.839 31.759C498.033 34.213 500.448 35.382 503.214 35.382C505.24 35.382 506.876 35.109 508.474 34.603L509.252 38.615C507.305 39.394 504.929 39.784 502.357 39.784C495.889 39.784 492.189 36.044 492.189 30.084C492.189 25.253 495.189 19.917 501.81 19.917C507.965 19.917 510.303 24.709 510.303 29.422C510.303 30.435 510.187 31.331 510.109 31.759H497.839ZM504.812 27.708C504.812 26.267 504.189 23.851 501.46 23.851C498.967 23.851 497.954 26.111 497.799 27.708H504.812ZM512.873 26.617C512.873 23.812 512.796 21.981 512.718 20.345H517.822L518.016 23.851H518.171C519.147 21.085 521.483 19.916 523.315 19.916C523.86 19.916 524.132 19.916 524.561 19.994V25.565C524.034 25.4627 523.499 25.4104 522.963 25.409C520.781 25.409 519.301 26.577 518.911 28.409C518.834 28.799 518.795 29.266 518.795 29.733V39.394H512.873V26.617ZM544.581 20.345C544.503 21.553 544.426 23.15 544.426 25.993V36.628C544.426 40.29 543.686 43.289 541.543 45.198C539.439 46.99 536.596 47.535 533.791 47.535C531.298 47.535 528.648 47.029 526.935 46.055L528.104 41.576C529.311 42.277 531.416 43.017 533.635 43.017C536.44 43.017 538.582 41.497 538.582 37.992V36.745H538.504C537.374 38.342 535.544 39.238 533.362 39.238C528.648 39.238 525.298 35.42 525.298 29.927C525.298 23.811 529.272 19.915 533.946 19.915C536.555 19.915 538.191 21.045 539.166 22.603H539.244L539.438 20.344H544.581V20.345ZM538.504 28.097C538.504 27.708 538.465 27.318 538.388 27.007C537.959 25.448 536.829 24.397 535.195 24.397C533.051 24.397 531.299 26.345 531.299 29.812C531.299 32.656 532.701 34.876 535.195 34.876C536.714 34.876 537.922 33.863 538.311 32.461C538.465 32.032 538.504 31.409 538.504 30.903V28.097ZM548.201 26.617C548.201 23.812 548.124 21.981 548.046 20.345H553.15L553.344 23.851H553.499C554.474 21.085 556.811 19.916 558.642 19.916C559.188 19.916 559.46 19.916 559.889 19.994V25.565C559.362 25.4627 558.827 25.4104 558.291 25.409C556.109 25.409 554.629 26.577 554.239 28.409C554.162 28.799 554.123 29.266 554.123 29.733V39.394H548.201V26.617ZM580.533 29.656C580.533 36.629 575.585 39.823 570.482 39.823C564.911 39.823 560.626 36.161 560.626 30.006C560.626 23.851 564.678 19.916 570.794 19.916C576.637 19.917 580.533 23.929 580.533 29.656ZM566.742 29.851C566.742 33.123 568.105 35.577 570.638 35.577C572.938 35.577 574.417 33.279 574.417 29.851C574.417 27.007 573.326 24.124 570.638 24.124C567.794 24.124 566.742 27.045 566.742 29.851ZM601.177 33.278C601.177 35.771 601.255 37.797 601.332 39.394H596.19L595.918 36.706H595.801C595.061 37.875 593.27 39.823 589.841 39.823C585.986 39.823 583.141 37.407 583.141 31.525V20.345H589.101V30.59C589.101 33.356 589.997 35.031 592.061 35.031C593.699 35.031 594.632 33.902 595.023 32.967C595.178 32.616 595.217 32.149 595.217 31.681V20.345H601.177V33.278ZM604.953 26.422C604.953 24.046 604.876 22.02 604.798 20.345H609.941L610.213 22.955H610.329C611.108 21.747 613.057 19.916 616.212 19.916C620.108 19.916 623.029 22.487 623.029 28.097V39.394H617.107V28.837C617.107 26.383 616.251 24.708 614.108 24.708C612.47 24.708 611.498 25.838 611.108 26.929C610.952 27.28 610.875 27.864 610.875 28.409V39.394H604.953V26.422ZM645.27 11.736V33.707C645.27 35.85 645.348 38.109 645.426 39.395H640.167L639.896 36.59H639.818C638.61 38.733 636.312 39.823 633.858 39.823C629.337 39.823 625.714 35.966 625.714 30.045C625.676 23.618 629.689 19.917 634.245 19.917C636.583 19.917 638.414 20.735 639.27 22.06H639.347V11.736H645.27ZM639.349 28.409C639.349 28.097 639.31 27.669 639.272 27.357C638.92 25.76 637.635 24.435 635.804 24.435C633.116 24.435 631.714 26.85 631.714 29.85C631.714 33.083 633.311 35.109 635.765 35.109C637.479 35.109 638.843 33.941 639.195 32.265C639.311 31.836 639.349 31.408 639.349 30.902V28.409ZM424.025 49.239C425.932 48.927 428.777 48.693 431.932 48.693C435.828 48.693 438.554 49.277 440.424 50.757C441.983 52.004 442.839 53.835 442.839 56.25C442.839 59.601 440.463 61.897 438.203 62.717V62.834C440.034 63.573 441.047 65.327 441.709 67.742C442.527 70.702 443.346 74.131 443.853 75.143H437.776C437.346 74.403 436.723 72.259 435.945 69.026C435.244 65.755 434.114 64.858 431.699 64.819H429.907V75.143H424.025V49.239ZM429.907 60.536H432.245C435.205 60.536 436.958 59.057 436.958 56.757C436.958 54.342 435.322 53.134 432.596 53.096C431.156 53.096 430.336 53.212 429.908 53.29L429.907 60.536ZM450.123 67.509C450.317 69.964 452.732 71.132 455.498 71.132C457.524 71.132 459.16 70.86 460.758 70.354L461.536 74.367C459.589 75.145 457.213 75.536 454.64 75.536C448.173 75.536 444.472 71.796 444.472 65.836C444.472 61.006 447.472 55.669 454.094 55.669C460.249 55.669 462.587 60.461 462.587 65.174C462.587 66.187 462.47 67.083 462.392 67.511L450.123 67.509ZM457.096 63.458C457.096 62.018 456.473 59.602 453.745 59.602C451.252 59.602 450.239 61.862 450.084 63.458H457.096ZM464.962 69.964C466.053 70.626 468.314 71.404 470.066 71.404C471.858 71.404 472.597 70.781 472.597 69.806C472.597 68.832 472.013 68.366 469.792 67.624C465.857 66.3 464.338 64.157 464.377 61.897C464.377 58.352 467.416 55.664 472.129 55.664C474.35 55.664 476.337 56.171 477.505 56.755L476.453 60.845C475.597 60.377 473.96 59.754 472.324 59.754C470.883 59.754 470.064 60.339 470.064 61.314C470.064 62.21 470.803 62.676 473.14 63.496C476.763 64.742 478.284 66.573 478.323 69.378C478.323 72.923 475.518 75.533 470.064 75.533C467.571 75.533 465.349 74.986 463.909 74.209L464.962 69.964ZM485.491 67.509C485.684 69.964 488.099 71.132 490.866 71.132C492.891 71.132 494.528 70.86 496.126 70.354L496.904 74.367C494.957 75.145 492.581 75.536 490.008 75.536C483.541 75.536 479.84 71.796 479.84 65.836C479.84 61.006 482.84 55.669 489.462 55.669C495.617 55.669 497.955 60.461 497.955 65.174C497.955 66.187 497.838 67.083 497.76 67.511L485.491 67.509ZM492.464 63.458C492.464 62.018 491.841 59.602 489.113 59.602C486.62 59.602 485.607 61.862 485.452 63.458H492.464ZM511.354 75.145L511.003 73.237H510.886C509.64 74.757 507.693 75.575 505.433 75.575C501.577 75.575 499.279 72.77 499.279 69.731C499.279 64.784 503.718 62.408 510.459 62.446V62.174C510.459 61.161 509.914 59.72 506.992 59.72C505.045 59.72 502.978 60.382 501.733 61.161L500.641 57.344C501.965 56.605 504.577 55.669 508.042 55.669C514.392 55.669 516.418 59.409 516.418 63.89V70.511C516.418 72.342 516.495 74.095 516.689 75.148H511.353V75.145H511.354ZM510.653 66.146C507.537 66.107 505.121 66.847 505.121 69.146C505.121 70.666 506.135 71.404 507.459 71.404C508.939 71.404 510.147 70.431 510.536 69.224C510.616 68.8916 510.655 68.5508 510.653 68.209V66.146ZM520.117 62.367C520.117 59.562 520.04 57.73 519.962 56.096H525.066L525.26 59.602H525.415C526.39 56.835 528.727 55.666 530.558 55.666C531.104 55.666 531.376 55.666 531.805 55.744V61.314C531.278 61.2121 530.743 61.1602 530.207 61.159C528.025 61.159 526.545 62.328 526.155 64.159C526.078 64.549 526.039 65.015 526.039 65.482V75.144H520.117V62.367ZM547.931 74.677C546.879 75.145 544.893 75.534 542.633 75.534C536.479 75.534 532.543 71.794 532.543 65.795C532.543 60.225 536.361 55.667 543.451 55.667C545.009 55.667 546.722 55.939 547.97 56.407L547.035 60.808C546.334 60.496 545.282 60.224 543.723 60.224C540.608 60.224 538.58 62.445 538.619 65.562C538.619 69.068 540.957 70.898 543.84 70.898C545.242 70.898 546.333 70.666 547.229 70.314L547.931 74.677ZM550.305 47.486H556.227V58.355H556.304C556.928 57.537 557.707 56.914 558.642 56.407C559.499 55.939 560.628 55.667 561.719 55.667C565.498 55.667 568.381 58.277 568.381 64.003V75.145H562.459V64.665C562.459 62.172 561.604 60.458 559.382 60.458C557.823 60.458 556.85 61.471 556.421 62.521C556.266 62.912 556.227 63.417 556.227 63.847V75.144H550.305V47.486ZM579.245 48.889H595.295V53.758H585.205V59.757H594.633V64.588H585.205V75.145H579.245V48.889ZM608.188 75.145L607.837 73.237H607.72C606.474 74.757 604.527 75.575 602.267 75.575C598.411 75.575 596.113 72.77 596.113 69.731C596.113 64.784 600.552 62.408 607.293 62.446V62.174C607.293 61.161 606.748 59.72 603.826 59.72C601.879 59.72 599.812 60.382 598.567 61.161L597.475 57.344C598.799 56.605 601.411 55.669 604.876 55.669C611.226 55.669 613.252 59.409 613.252 63.89V70.511C613.252 72.342 613.329 74.095 613.523 75.148H608.187V75.145H608.188ZM607.486 66.146C604.37 66.107 601.954 66.847 601.954 69.146C601.954 70.666 602.968 71.404 604.292 71.404C605.772 71.404 606.98 70.431 607.369 69.224C607.449 68.8916 607.488 68.5508 607.486 68.209V66.146ZM630.936 74.677C629.884 75.145 627.899 75.534 625.638 75.534C619.484 75.534 615.548 71.794 615.548 65.795C615.548 60.225 619.366 55.667 626.456 55.667C628.014 55.667 629.727 55.939 630.975 56.407L630.04 60.808C629.339 60.496 628.287 60.224 626.728 60.224C623.613 60.224 621.585 62.445 621.624 65.562C621.624 69.068 623.962 70.898 626.845 70.898C628.247 70.898 629.338 70.666 630.235 70.314L630.936 74.677ZM639.348 50.797C639.348 52.434 638.102 53.757 636.155 53.757C634.285 53.757 633.039 52.434 633.078 50.797C633.039 49.083 634.285 47.797 636.194 47.797C638.103 47.797 639.309 49.083 639.348 50.797ZM633.231 75.145V56.096H639.153V75.145H633.231ZM642.93 47.486H648.852V75.144H642.93V47.486ZM658.783 50.797C658.783 52.434 657.537 53.757 655.589 53.757C653.719 53.757 652.473 52.434 652.512 50.797C652.473 49.083 653.719 47.797 655.628 47.797C657.537 47.797 658.744 49.083 658.783 50.797ZM652.667 75.145V56.096H658.589V75.145H652.667ZM668.988 50.643V56.096H673.234V60.459H668.988V67.355C668.988 69.652 669.533 70.705 671.325 70.705C672.064 70.705 672.648 70.628 673.078 70.55L673.117 75.029C672.338 75.341 670.934 75.536 669.261 75.536C667.352 75.536 665.755 74.874 664.821 73.9C663.729 72.769 663.184 70.939 663.184 68.251V60.46H660.653V56.098H663.184V51.968L668.988 50.643ZM680.674 56.096L683.518 65.444C683.83 66.575 684.219 67.977 684.454 68.99H684.571C684.842 67.977 685.155 66.536 685.427 65.444L687.764 56.096H694.115L689.675 68.639C686.947 76.196 685.116 79.235 682.974 81.143C681.363 82.5574 679.371 83.4653 677.247 83.753L676 78.729C676.74 78.612 677.675 78.26 678.571 77.715C679.467 77.247 680.441 76.313 681.025 75.338C681.218 75.067 681.337 74.754 681.337 74.483C681.337 74.288 681.298 73.975 681.066 73.508L674.091 56.094H680.674V56.096ZM104.264 61.084C107.955 62.975 113.625 64.864 119.477 64.864C125.779 64.864 129.11 62.253 129.11 58.291C129.11 54.51 126.23 52.35 118.939 49.741C108.856 46.23 102.285 40.648 102.285 31.826C102.285 21.475 110.927 13.553 125.24 13.553C132.081 13.553 137.123 14.992 140.723 16.613L137.662 27.687C135.231 26.517 130.91 24.805 124.968 24.805C119.028 24.805 116.147 27.506 116.147 30.656C116.147 34.527 119.567 36.238 127.4 39.209C138.113 43.169 143.153 48.75 143.153 57.302C143.153 67.473 135.322 76.114 118.669 76.114C111.737 76.114 104.895 74.316 101.474 72.426L104.264 61.084ZM175.467 75.216L174.658 70.807H174.388C171.507 74.319 167.007 76.207 161.785 76.207C152.873 76.207 147.562 69.727 147.562 62.704C147.562 51.269 157.824 45.779 173.397 45.87V45.242C173.397 42.9 172.137 39.571 165.386 39.571C160.885 39.571 156.114 41.1 153.232 42.901L150.712 34.08C153.773 32.369 159.804 30.209 167.816 30.209C182.489 30.209 187.17 38.85 187.17 49.203V64.504C187.17 68.736 187.35 72.787 187.8 75.218H175.467V75.216ZM173.848 54.421C166.646 54.333 161.065 56.042 161.065 61.354C161.065 64.866 163.406 66.576 166.465 66.576C169.886 66.576 172.677 64.326 173.577 61.533C173.761 60.767 173.852 59.9817 173.848 59.194V54.421ZM195.722 45.241C195.722 39.749 195.542 35.068 195.362 31.196H207.244L207.874 37.227H208.144C209.945 34.436 214.446 30.206 221.738 30.206C230.74 30.206 237.491 36.147 237.491 49.107V75.214H223.808V50.822C223.808 45.15 221.828 41.28 216.876 41.28C213.095 41.28 210.845 43.89 209.945 46.411C209.585 47.221 209.404 48.57 209.404 49.831V75.217H195.721L195.722 45.241ZM247.752 75.216V41.279H241.99V31.196H247.752V29.487C247.752 24.177 249.373 18.324 253.333 14.723C256.755 11.482 261.525 10.313 265.486 10.313C268.547 10.313 270.886 10.674 272.777 11.212L272.237 21.746C271.067 21.385 269.627 21.116 267.827 21.116C263.325 21.116 261.435 24.626 261.435 28.947V31.197H270.257V41.28H261.525V75.217L247.752 75.216ZM317.246 52.712C317.246 68.827 305.814 76.207 294.021 76.207C281.148 76.207 271.247 67.743 271.247 53.521C271.247 39.298 280.609 30.207 294.742 30.207C308.245 30.207 317.246 39.479 317.246 52.712ZM285.379 53.16C285.379 60.722 288.531 66.392 294.381 66.392C299.693 66.392 303.113 61.083 303.113 53.16C303.113 46.592 300.593 39.929 294.381 39.929C287.811 39.929 285.379 46.68 285.379 53.16ZM323.457 45.689C323.457 39.209 323.276 34.979 323.097 31.195H334.889L335.339 39.298H335.699C337.95 32.906 343.351 30.206 347.582 30.206C348.842 30.206 349.473 30.206 350.462 30.387V43.26C349.473 43.081 348.303 42.9 346.772 42.9C341.731 42.9 338.311 45.6 337.411 49.831C337.23 50.73 337.14 51.81 337.14 52.894V75.215H323.457V45.689ZM397.361 11.302V62.07C397.361 67.025 397.542 72.245 397.72 75.216H385.568L384.937 68.735H384.757C381.966 73.684 376.655 76.209 370.986 76.209C360.544 76.209 352.173 67.298 352.173 53.612C352.082 38.76 361.356 30.209 371.887 30.209C377.288 30.209 381.52 32.099 383.499 35.16H383.68V11.302H397.361ZM383.68 49.83C383.68 49.109 383.588 48.121 383.499 47.4C382.687 43.71 379.719 40.648 375.486 40.648C369.273 40.648 366.034 46.231 366.034 53.16C366.034 60.632 369.724 65.312 375.396 65.312C379.357 65.312 382.506 62.613 383.316 58.743C383.587 57.752 383.677 56.764 383.677 55.591V49.83H383.68ZM48.19 1.466C39.671 0.315324 31.0061 1.87945 23.427 5.936L27.668 13.321C34.0666 9.89413 41.3826 8.57146 48.576 9.541C67.546 12.074 80.871 29.504 78.34 48.474C75.808 67.443 58.377 80.769 39.407 78.237C20.437 75.705 7.11001 58.274 9.64201 39.305C10.5978 32.0542 13.8339 25.295 18.883 20.004L12.888 13.98C6.96541 20.2362 3.16991 28.2031 2.04301 36.744C-0.957986 59.229 14.837 79.892 37.322 82.891C59.807 85.89 80.468 70.098 83.469 47.614C86.469 25.129 70.675 4.467 48.19 1.466Z" fill="#00492C"/>
<path d="M48.551 11.598C41.7331 10.676 34.7981 11.9281 28.733 15.176L32.963 22.544C37.8717 19.8818 43.5001 18.85 49.034 19.598C63.513 21.529 73.684 34.835 71.75 49.312C69.819 63.792 56.515 73.961 42.036 72.031C27.557 70.099 17.385 56.793 19.317 42.316C20.0498 36.7689 22.5304 31.5994 26.399 27.557L20.393 21.521C15.6071 26.5389 12.5398 32.9481 11.634 39.823C9.23099 57.808 21.867 74.337 39.855 76.737C57.844 79.139 74.372 66.501 76.772 48.515C79.175 30.527 66.537 13.998 48.551 11.598Z" fill="#00492C"/>
<path d="M49.011 21.668C43.8545 20.9717 38.6102 21.933 34.036 24.413L38.269 31.786C41.679 29.9102 45.6011 29.1786 49.458 29.699C59.448 31.032 66.465 40.213 65.132 50.203C63.799 60.191 54.619 67.209 44.629 65.876C34.639 64.542 27.62 55.363 28.954 45.375C29.4635 41.5095 31.2032 37.9105 33.916 35.11L27.919 29.083C24.3146 32.8496 22.0039 37.6665 21.322 42.835C19.521 56.325 28.998 68.723 42.489 70.523C55.98 72.323 68.376 62.847 70.177 49.353C71.979 35.866 62.501 23.468 49.011 21.668Z" fill="#00492C"/>
<path d="M49.43 31.782C45.9544 31.3129 42.42 31.973 39.348 33.665L44.65 42.896C46.2173 41.9901 48.0411 41.6303 49.835 41.873C50.9043 42.0156 51.9351 42.3674 52.8684 42.9084C53.8018 43.4494 54.6194 44.169 55.2746 45.026C55.9298 45.883 56.4098 46.8607 56.6872 47.9032C56.9645 48.9457 57.0338 50.0327 56.891 51.102C56.7487 52.1714 56.397 53.2023 55.8561 54.1358C55.3151 55.0693 54.5956 55.887 53.7385 56.5423C52.8815 57.1975 51.9037 57.6775 50.861 57.9547C49.8184 58.232 48.7313 58.301 47.662 58.158C46.5928 58.0154 45.5622 57.6636 44.629 57.1226C43.6958 56.5817 42.8782 55.8622 42.2231 55.0053C41.568 54.1484 41.0881 53.1708 40.8108 52.1284C40.5335 51.086 40.4642 49.9992 40.607 48.93C40.8431 47.1339 41.6694 45.4672 42.956 44.192L35.447 36.646C33.001 39.1676 31.4322 42.4101 30.973 45.893C29.771 54.886 36.09 63.152 45.084 64.352C54.078 65.55 62.342 59.234 63.542 50.239C64.742 41.246 58.425 32.981 49.43 31.782Z" fill="#00492C"/>
</g>
<defs>
<clipPath id="clip0_508_865">
<rect width="694.75" height="85.25" fill="white"/>
</clipPath>
</defs>
</svg>
