<svg fill="none" height="86" viewBox="0 0 695 86" width="695" xmlns="http://www.w3.org/2000/svg" xmlns:xlink="http://www.w3.org/1999/xlink"><clipPath id="a"><path d="m0 0h694.75v85.25h-694.75z"/></clipPath><g clip-path="url(#a)" fill="#00492c"><path d="m429.946 13.138v15.115c0 4.519 1.714 6.817 4.753 6.817 3.116 0 4.83-2.181 4.83-6.817v-15.115h5.922v14.726c0 8.103-4.091 11.959-10.947 11.959-6.622 0-10.518-3.662-10.518-12.038v-14.647zm19.242 13.284c0-2.376-.076-4.402-.154-6.077h5.142l.273 2.61h.116c.778-1.208 2.728-3.039 5.883-3.039 3.896 0 6.816 2.571 6.816 8.181v11.297h-5.922v-10.557c0-2.454-.855-4.129-2.999-4.129-1.637 0-2.609 1.13-3 2.221-.156.351-.232.935-.232 1.48v10.985h-5.923zm40.316-14.686v21.971c0 2.143.078 4.402.156 5.688h-5.259l-.272-2.805h-.078c-1.208 2.143-3.506 3.233-5.96 3.233-4.52 0-8.143-3.857-8.143-9.778-.038-6.427 3.974-10.128 8.53-10.128 2.339 0 4.17.818 5.025 2.143h.078v-10.324zm-5.921 16.673c0-.312-.039-.74-.078-1.052-.351-1.597-1.636-2.922-3.467-2.922-2.688 0-4.09 2.415-4.09 5.415 0 3.233 1.597 5.259 4.051 5.259 1.714 0 3.078-1.168 3.429-2.844.116-.429.155-.857.155-1.363zm14.256 3.35c.194 2.454 2.609 3.623 5.375 3.623 2.026 0 3.662-.273 5.26-.779l.778 4.012c-1.947.779-4.323 1.169-6.895 1.169-6.468 0-10.168-3.74-10.168-9.7 0-4.831 3-10.167 9.621-10.167 6.155 0 8.493 4.792 8.493 9.505 0 1.013-.116 1.909-.194 2.337zm6.973-4.051c0-1.441-.623-3.857-3.352-3.857-2.493 0-3.506 2.26-3.661 3.857zm8.061-1.091c0-2.805-.077-4.636-.155-6.272h5.104l.194 3.506h.155c.976-2.766 3.312-3.935 5.144-3.935.545 0 .817 0 1.246.078v5.571c-.527-.1023-1.062-.1546-1.598-.156-2.182 0-3.662 1.168-4.052 3-.077.39-.116.857-.116 1.324v9.661h-5.922zm31.708-6.272c-.078 1.208-.155 2.805-.155 5.648v10.635c0 3.662-.74 6.661-2.883 8.57-2.104 1.792-4.947 2.337-7.752 2.337-2.493 0-5.143-.506-6.856-1.48l1.169-4.479c1.207.701 3.312 1.441 5.531 1.441 2.805 0 4.947-1.52 4.947-5.025v-1.247h-.078c-1.13 1.597-2.96 2.493-5.142 2.493-4.714 0-8.064-3.818-8.064-9.311 0-6.116 3.974-10.012 8.648-10.012 2.609 0 4.245 1.13 5.22 2.688h.078l.194-2.259h5.143zm-6.077 7.752c0-.389-.039-.779-.116-1.09-.429-1.559-1.559-2.61-3.193-2.61-2.144 0-3.896 1.948-3.896 5.415 0 2.844 1.402 5.064 3.896 5.064 1.519 0 2.727-1.013 3.116-2.415.154-.429.193-1.052.193-1.558zm9.697-1.48c0-2.805-.077-4.636-.155-6.272h5.104l.194 3.506h.155c.975-2.766 3.312-3.935 5.143-3.935.546 0 .818 0 1.247.078v5.571c-.527-.1023-1.062-.1546-1.598-.156-2.182 0-3.662 1.168-4.052 3-.077.39-.116.857-.116 1.324v9.661h-5.922zm32.332 3.039c0 6.973-4.948 10.167-10.051 10.167-5.571 0-9.856-3.662-9.856-9.817s4.052-10.09 10.168-10.09c5.843.001 9.739 4.013 9.739 9.74zm-13.791.195c0 3.272 1.363 5.726 3.896 5.726 2.3 0 3.779-2.298 3.779-5.726 0-2.844-1.091-5.727-3.779-5.727-2.844 0-3.896 2.921-3.896 5.727zm34.435 3.427c0 2.493.078 4.519.155 6.116h-5.142l-.272-2.688h-.117c-.74 1.169-2.531 3.117-5.96 3.117-3.855 0-6.7-2.416-6.7-8.298v-11.18h5.96v10.245c0 2.766.896 4.441 2.96 4.441 1.638 0 2.571-1.129 2.962-2.064.155-.351.194-.818.194-1.286v-11.336h5.96zm3.776-6.856c0-2.376-.077-4.402-.155-6.077h5.143l.272 2.61h.116c.779-1.208 2.728-3.039 5.883-3.039 3.896 0 6.817 2.571 6.817 8.181v11.297h-5.922v-10.557c0-2.454-.856-4.129-2.999-4.129-1.638 0-2.61 1.13-3 2.221-.156.351-.233.935-.233 1.48v10.985h-5.922zm40.317-14.686v21.971c0 2.143.078 4.402.156 5.688h-5.259l-.271-2.805h-.078c-1.208 2.143-3.506 3.233-5.96 3.233-4.521 0-8.144-3.857-8.144-9.778-.038-6.427 3.975-10.128 8.531-10.128 2.338 0 4.169.818 5.025 2.143h.077v-10.324zm-5.921 16.673c0-.312-.039-.74-.077-1.052-.352-1.597-1.637-2.922-3.468-2.922-2.688 0-4.09 2.415-4.09 5.415 0 3.233 1.597 5.259 4.051 5.259 1.714 0 3.078-1.168 3.43-2.844.116-.429.154-.857.154-1.363zm-215.324 20.83c1.907-.312 4.752-.546 7.907-.546 3.896 0 6.622.584 8.492 2.064 1.559 1.247 2.415 3.078 2.415 5.493 0 3.351-2.376 5.647-4.636 6.467v.117c1.831.739 2.844 2.493 3.506 4.908.818 2.96 1.637 6.389 2.144 7.401h-6.077c-.43-.74-1.053-2.884-1.831-6.117-.701-3.271-1.831-4.168-4.246-4.207h-1.792v10.324h-5.882zm5.882 11.297h2.338c2.96 0 4.713-1.479 4.713-3.779 0-2.415-1.636-3.623-4.362-3.661-1.44 0-2.26.116-2.688.194zm20.216 6.973c.194 2.455 2.609 3.623 5.375 3.623 2.026 0 3.662-.272 5.26-.778l.778 4.013c-1.947.778-4.323 1.169-6.896 1.169-6.467 0-10.168-3.74-10.168-9.7 0-4.83 3-10.167 9.622-10.167 6.155 0 8.493 4.792 8.493 9.505 0 1.013-.117 1.909-.195 2.337zm6.973-4.051c0-1.44-.623-3.856-3.351-3.856-2.493 0-3.506 2.26-3.661 3.856zm7.866 6.506c1.091.662 3.352 1.44 5.104 1.44 1.792 0 2.531-.623 2.531-1.598 0-.974-.584-1.44-2.805-2.182-3.935-1.324-5.454-3.467-5.415-5.727 0-3.545 3.039-6.233 7.752-6.233 2.221 0 4.208.507 5.376 1.091l-1.052 4.09c-.856-.468-2.493-1.091-4.129-1.091-1.441 0-2.26.585-2.26 1.56 0 .896.739 1.362 3.076 2.182 3.623 1.246 5.144 3.077 5.183 5.882 0 3.545-2.805 6.155-8.259 6.155-2.493 0-4.715-.547-6.155-1.324zm20.529-2.455c.193 2.455 2.608 3.623 5.375 3.623 2.025 0 3.662-.272 5.26-.778l.778 4.013c-1.947.778-4.323 1.169-6.896 1.169-6.467 0-10.168-3.74-10.168-9.7 0-4.83 3-10.167 9.622-10.167 6.155 0 8.493 4.792 8.493 9.505 0 1.013-.117 1.909-.195 2.337zm6.973-4.051c0-1.44-.623-3.856-3.351-3.856-2.493 0-3.506 2.26-3.661 3.856zm18.89 11.687-.351-1.908h-.117c-1.246 1.52-3.193 2.338-5.453 2.338-3.856 0-6.154-2.805-6.154-5.844 0-4.947 4.439-7.323 11.18-7.285v-.272c0-1.013-.545-2.454-3.467-2.454-1.947 0-4.014.662-5.259 1.441l-1.092-3.817c1.324-.739 3.936-1.675 7.401-1.675 6.35 0 8.376 3.74 8.376 8.221v6.621c0 1.831.077 3.584.271 4.637h-5.336v-.003zm-.701-8.999c-3.116-.039-5.532.701-5.532 3 0 1.52 1.014 2.258 2.338 2.258 1.48 0 2.688-.973 3.077-2.18.08-.3324.119-.6732.117-1.015zm9.464-3.779c0-2.805-.077-4.637-.155-6.271h5.104l.194 3.506h.155c.975-2.767 3.312-3.936 5.143-3.936.546 0 .818 0 1.247.078v5.57c-.527-.1019-1.062-.1538-1.598-.155-2.182 0-3.662 1.169-4.052 3-.077.39-.116.856-.116 1.323v9.662h-5.922zm27.814 12.31c-1.052.468-3.038.857-5.298.857-6.154 0-10.09-3.74-10.09-9.739 0-5.57 3.818-10.128 10.908-10.128 1.558 0 3.271.272 4.519.74l-.935 4.401c-.701-.312-1.753-.584-3.312-.584-3.115 0-5.143 2.221-5.104 5.338 0 3.506 2.338 5.336 5.221 5.336 1.402 0 2.493-.232 3.389-.584zm2.374-27.191h5.922v10.869h.077c.624-.818 1.403-1.441 2.338-1.948.857-.468 1.986-.74 3.077-.74 3.779 0 6.662 2.61 6.662 8.336v11.142h-5.922v-10.48c0-2.493-.855-4.207-3.077-4.207-1.559 0-2.532 1.013-2.961 2.063-.155.391-.194.896-.194 1.326v11.297h-5.922zm28.94 1.403h16.05v4.869h-10.09v5.999h9.428v4.831h-9.428v10.557h-5.96zm28.943 26.256-.351-1.908h-.117c-1.246 1.52-3.193 2.338-5.453 2.338-3.856 0-6.154-2.805-6.154-5.844 0-4.947 4.439-7.323 11.18-7.285v-.272c0-1.013-.545-2.454-3.467-2.454-1.947 0-4.014.662-5.259 1.441l-1.092-3.817c1.324-.739 3.936-1.675 7.401-1.675 6.35 0 8.376 3.74 8.376 8.221v6.621c0 1.831.077 3.584.271 4.637h-5.336v-.003zm-.702-8.999c-3.116-.039-5.532.701-5.532 3 0 1.52 1.014 2.258 2.338 2.258 1.48 0 2.688-.973 3.077-2.18.08-.3324.119-.6732.117-1.015zm23.45 8.531c-1.052.468-3.037.857-5.298.857-6.154 0-10.09-3.74-10.09-9.739 0-5.57 3.818-10.128 10.908-10.128 1.558 0 3.271.272 4.519.74l-.935 4.401c-.701-.312-1.753-.584-3.312-.584-3.115 0-5.143 2.221-5.104 5.338 0 3.506 2.338 5.336 5.221 5.336 1.402 0 2.493-.232 3.39-.584zm8.412-23.88c0 1.637-1.246 2.96-3.193 2.96-1.87 0-3.116-1.323-3.077-2.96-.039-1.714 1.207-3 3.116-3s3.115 1.286 3.154 3zm-6.117 24.348v-19.049h5.922v19.049zm9.699-27.659h5.922v27.658h-5.922zm15.853 3.311c0 1.637-1.246 2.96-3.194 2.96-1.87 0-3.116-1.323-3.077-2.96-.039-1.714 1.207-3 3.116-3s3.116 1.286 3.155 3zm-6.116 24.348v-19.049h5.922v19.049zm16.321-24.502v5.453h4.246v4.363h-4.246v6.896c0 2.297.545 3.35 2.337 3.35.739 0 1.323-.077 1.753-.155l.039 4.479c-.779.312-2.183.507-3.856.507-1.909 0-3.506-.662-4.44-1.636-1.092-1.131-1.637-2.961-1.637-5.649v-7.791h-2.531v-4.362h2.531v-4.13zm11.686 5.453 2.844 9.348c.312 1.131.701 2.533.936 3.546h.117c.271-1.013.584-2.454.856-3.546l2.337-9.348h6.351l-4.44 12.543c-2.728 7.557-4.559 10.596-6.701 12.504-1.611 1.4144-3.603 2.3223-5.727 2.61l-1.247-5.024c.74-.117 1.675-.469 2.571-1.014.896-.468 1.87-1.402 2.454-2.377.193-.271.312-.584.312-.855 0-.195-.039-.508-.271-.975l-6.975-17.414h6.583zm-576.41 4.988c3.691 1.891 9.361 3.78 15.213 3.78 6.302 0 9.633-2.611 9.633-6.573 0-3.781-2.88-5.941-10.171-8.55-10.083-3.511-16.654-9.093-16.654-17.915 0-10.351 8.642-18.273 22.955-18.273 6.841 0 11.883 1.439 15.483 3.06l-3.061 11.074c-2.431-1.17-6.752-2.882-12.694-2.882-5.94 0-8.821 2.701-8.821 5.851 0 3.871 3.42 5.582 11.253 8.553 10.713 3.96 15.753 9.541 15.753 18.093 0 10.171-7.831 18.812-24.484 18.812-6.932 0-13.774-1.798-17.195-3.688zm71.203 14.132-.809-4.409h-.27c-2.881 3.512-7.381 5.4-12.603 5.4-8.912 0-14.223-6.48-14.223-13.503 0-11.435 10.262-16.925 25.835-16.834v-.628c0-2.342-1.26-5.671-8.011-5.671-4.501 0-9.272 1.529-12.154 3.33l-2.52-8.821c3.061-1.711 9.092-3.871 17.104-3.871 14.673 0 19.354 8.641 19.354 18.994v15.301c0 4.232.18 8.283.63 10.714h-12.333zm-1.619-20.795c-7.202-.088-12.783 1.621-12.783 6.933 0 3.512 2.341 5.222 5.4 5.222 3.421 0 6.212-2.25 7.112-5.043.184-.766.275-1.5513.271-2.339zm21.874-9.18c0-5.492-.18-10.173-.36-14.045h11.882l.63 6.031h.27c1.801-2.791 6.302-7.021 13.594-7.021 9.002 0 15.753 5.941 15.753 18.901v26.107h-13.683v-24.392c0-5.672-1.98-9.542-6.932-9.542-3.781 0-6.031 2.61-6.931 5.131-.36.81-.541 2.159-.541 3.42v25.386h-13.683zm52.03 29.975v-33.937h-5.762v-10.083h5.762v-1.709c0-5.31 1.621-11.163 5.581-14.764 3.422-3.241 8.192-4.41 12.153-4.41 3.061 0 5.4.361 7.291.899l-.54 10.534c-1.17-.361-2.61-.63-4.41-.63-4.502 0-6.392 3.51-6.392 7.831v2.25h8.822v10.083h-8.732v33.937zm69.494-22.504c0 16.115-11.432 23.495-23.225 23.495-12.873 0-22.774-8.464-22.774-22.686 0-14.223 9.362-23.314 23.495-23.314 13.503 0 22.504 9.272 22.504 22.505zm-31.867.448c0 7.562 3.152 13.232 9.002 13.232 5.312 0 8.732-5.309 8.732-13.232 0-6.568-2.52-13.231-8.732-13.231-6.57 0-9.002 6.751-9.002 13.231zm38.078-7.471c0-6.48-.181-10.71-.36-14.494h11.792l.45 8.103h.36c2.251-6.392 7.652-9.092 11.883-9.092 1.26 0 1.891 0 2.88.181v12.873c-.989-.179-2.159-.36-3.69-.36-5.041 0-8.461 2.7-9.361 6.931-.181.899-.271 1.979-.271 3.063v22.321h-13.683zm73.904-34.387v50.768c0 4.955.181 10.175.359 13.146h-12.152l-.631-6.481h-.18c-2.791 4.949-8.102 7.474-13.771 7.474-10.442 0-18.813-8.911-18.813-22.597-.091-14.852 9.183-23.403 19.714-23.403 5.401 0 9.633 1.89 11.612 4.951h.181v-23.858zm-13.681 38.528c0-.721-.092-1.709-.181-2.43-.812-3.69-3.78-6.752-8.013-6.752-6.213 0-9.452 5.583-9.452 12.512 0 7.472 3.69 12.152 9.362 12.152 3.961 0 7.11-2.699 7.92-6.569.271-.991.361-1.979.361-3.152v-5.761zm-335.49-48.364c-8.519-1.150676-17.1839.41345-24.763 4.47l4.241 7.385c6.3986-3.42687 13.7146-4.74954 20.908-3.78 18.97 2.533 32.295 19.963 29.764 38.933-2.532 18.969-19.963 32.295-38.933 29.763s-32.29699-19.963-29.76499-38.932c.95579-7.2508 4.19189-14.01 9.24099-19.301l-5.995-6.024c-5.92259 6.2562-9.71809 14.2231-10.84499 22.764-3.000996 22.485 12.79399 43.148 35.27899 46.147s43.146-12.793 46.147-35.277c3-22.485-12.794-43.147-35.279-46.148z"/><path d="m48.551 11.598c-6.8179-.922-13.7529.3301-19.818 3.578l4.23 7.368c4.9087-2.6622 10.5371-3.694 16.071-2.946 14.479 1.931 24.65 15.237 22.716 29.714-1.931 14.48-15.235 24.649-29.714 22.719-14.479-1.932-24.651-15.238-22.719-29.715.7328-5.5471 3.2134-10.7166 7.082-14.759l-6.006-6.036c-4.7859 5.0179-7.8532 11.4271-8.759 18.302-2.40301 17.985 10.233 34.514 28.221 36.914 17.989 2.402 34.517-10.236 36.917-28.222 2.403-17.988-10.235-34.517-28.221-36.917z"/><path d="m49.011 21.668c-5.1565-.6963-10.4008.265-14.975 2.745l4.233 7.373c3.41-1.8758 7.3321-2.6074 11.189-2.087 9.99 1.333 17.007 10.514 15.674 20.504-1.333 9.988-10.513 17.006-20.503 15.673-9.99-1.334-17.009-10.513-15.675-20.501.5095-3.8655 2.2492-7.4645 4.962-10.265l-5.997-6.027c-3.6044 3.7666-5.9151 8.5835-6.597 13.752-1.801 13.49 7.676 25.888 21.167 27.688s25.887-7.676 27.688-21.17c1.802-13.487-7.676-25.885-21.166-27.685z"/><path d="m49.43 31.782c-3.4756-.4691-7.01.191-10.082 1.883l5.302 9.231c1.5673-.9059 3.3911-1.2657 5.185-1.023 1.0693.1426 2.1001.4944 3.0334 1.0354.9334.541 1.751 1.2606 2.4062 2.1176s1.1352 1.8347 1.4126 2.8772c.2773 1.0425.3466 2.1295.2038 3.1988-.1423 1.0694-.494 2.1003-1.0349 3.0338-.541.9335-1.2605 1.7512-2.1176 2.4065-.857.6552-1.8348 1.1352-2.8775 1.4124-1.0426.2773-2.1297.3463-3.199.2033-1.0692-.1426-2.0998-.4944-3.033-1.0354-.9332-.5409-1.7508-1.2604-2.4059-2.1173s-1.135-1.8345-1.4123-2.8769-.3466-2.1292-.2038-3.1984c.2361-1.7961 1.0624-3.4628 2.349-4.738l-7.509-7.546c-2.446 2.5216-4.0148 5.7641-4.474 9.247-1.202 8.993 5.117 17.259 14.111 18.459 8.994 1.198 17.258-5.118 18.458-14.113 1.2-8.993-5.117-17.258-14.112-18.457z"/></g></svg>