<svg width="34" height="34" xmlns="http://www.w3.org/2000/svg" xmlns:xlink="http://www.w3.org/1999/xlink">
  <defs>
    <path d="M12.1012747 23.8770989c6.5546374 0 11.8681319-5.3134945 11.8681319-11.8681319 0-6.55463733-5.3134945-11.86813183-11.8681319-11.86813183V23.8770989z" id="a"/>
    <path d="M12.1012747 23.8770989c6.5546374 0 11.8681319-5.3134945 11.8681319-11.8681319 0-6.55463733-5.3134945-11.86813183-11.8681319-11.86813183V23.8770989z" id="c"/>
    <path d="M12.1012747 23.8770989c6.5546374 0 11.8681319-5.3134945 11.8681319-11.8681319 0-6.55463733-5.3134945-11.86813183-11.8681319-11.86813183V23.8770989z" id="e"/>
    <path d="M12.1012747 23.8770989c6.5546374 0 11.8681319-5.3134945 11.8681319-11.8681319 0-6.55463733-5.3134945-11.86813183-11.8681319-11.86813183V23.8770989z" id="g"/>
    <path d="M12.1012747 23.8770989c6.5546374 0 11.8681319-5.3134945 11.8681319-11.8681319 0-6.55463733-5.3134945-11.86813183-11.8681319-11.86813183V23.8770989z" id="i"/>
    <path d="M12.1012747 23.8770989c6.5546374 0 11.8681319-5.3134945 11.8681319-11.8681319 0-6.55463733-5.3134945-11.86813183-11.8681319-11.86813183V23.8770989z" id="k"/>
    <path d="M12.1012747 23.8770989c6.5546374 0 11.8681319-5.3134945 11.8681319-11.8681319 0-6.55463733-5.3134945-11.86813183-11.8681319-11.86813183V23.8770989z" id="m"/>
    <path d="M12.1012747 23.8770989c6.5546374 0 11.8681319-5.3134945 11.8681319-11.8681319 0-6.55463733-5.3134945-11.86813183-11.8681319-11.86813183V23.8770989z" id="o"/>
    <path d="M12.1012747 23.8770989c6.5546374 0 11.8681319-5.3134945 11.8681319-11.8681319 0-6.55463733-5.3134945-11.86813183-11.8681319-11.86813183V23.8770989z" id="q"/>
    <path d="M12.1012747 23.8770989c6.5546374 0 11.8681319-5.3134945 11.8681319-11.8681319 0-6.55463733-5.3134945-11.86813183-11.8681319-11.86813183V23.8770989z" id="s"/>
    <path d="M12.1012747 23.8770989c6.5546374 0 11.8681319-5.3134945 11.8681319-11.8681319 0-6.55463733-5.3134945-11.86813183-11.8681319-11.86813183V23.8770989z" id="u"/>
    <path d="M12.1012747 23.8770989c6.5546374 0 11.8681319-5.3134945 11.8681319-11.8681319 0-6.55463733-5.3134945-11.86813183-11.8681319-11.86813183V23.8770989z" id="w"/>
    <path d="M12.1012747 23.8770989c6.5546374 0 11.8681319-5.3134945 11.8681319-11.8681319 0-6.55463733-5.3134945-11.86813183-11.8681319-11.86813183V23.8770989z" id="y"/>
    <path d="M12.1012747 23.8770989c6.5546374 0 11.8681319-5.3134945 11.8681319-11.8681319 0-6.55463733-5.3134945-11.86813183-11.8681319-11.86813183V23.8770989z" id="A"/>
    <path d="M12.1012747 23.8770989c6.5546374 0 11.8681319-5.3134945 11.8681319-11.8681319 0-6.55463733-5.3134945-11.86813183-11.8681319-11.86813183V23.8770989z" id="C"/>
    <path d="M12.1012747 23.8770989c6.5546374 0 11.8681319-5.3134945 11.8681319-11.8681319 0-6.55463733-5.3134945-11.86813183-11.8681319-11.86813183V23.8770989z" id="E"/>
    <path d="M12.1012747 23.8770989c6.5546374 0 11.8681319-5.3134945 11.8681319-11.8681319 0-6.55463733-5.3134945-11.86813183-11.8681319-11.86813183V23.8770989z" id="G"/>
    <path d="M12.1012747 23.8770989c6.5546374 0 11.8681319-5.3134945 11.8681319-11.8681319 0-6.55463733-5.3134945-11.86813183-11.8681319-11.86813183V23.8770989z" id="I"/>
    <path d="M12.1012747 23.8770989c6.5546374 0 11.8681319-5.3134945 11.8681319-11.8681319 0-6.55463733-5.3134945-11.86813183-11.8681319-11.86813183V23.8770989z" id="K"/>
  </defs>
  <g transform="rotate(-135 15.5355339 13.4644661)" fill="none" fill-rule="evenodd">
    <path d="M12.1012747 23.8770989c-6.55463734 0-11.86813184-5.3134945-11.86813184-11.8681319 0-6.55463733 5.3134945-11.86813183 11.86813184-11.86813183V23.8770989z" fill="#5C606B" fill-rule="nonzero"/>
    <mask id="b" fill="#fff">
      <use xlink:href="#a"/>
    </mask>
    <path fill="#5C606B" fill-rule="nonzero" mask="url(#b)" d="M12.1012747 7.26962637h2.37362637v2.37362637H12.1012747z"/>
    <mask id="d" fill="#fff">
      <use xlink:href="#c"/>
    </mask>
    <path fill="#5C606B" fill-rule="nonzero" mask="url(#d)" d="M12.1012747 2.52237363h2.37362637V4.896H12.1012747z"/>
    <mask id="f" fill="#fff">
      <use xlink:href="#e"/>
    </mask>
    <path fill="#5C606B" fill-rule="nonzero" mask="url(#f)" d="M14.4749011.14083517h2.37362637v2.37362637H14.4749011z"/>
    <mask id="h" fill="#fff">
      <use xlink:href="#g"/>
    </mask>
    <path fill="#5C606B" fill-rule="nonzero" mask="url(#h)" d="M14.4749011 4.896h2.37362637v2.37362637H14.4749011z"/>
    <mask id="j" fill="#fff">
      <use xlink:href="#i"/>
    </mask>
    <path fill="#5C606B" fill-rule="nonzero" mask="url(#j)" d="M12.1012747 16.7723077h2.37362637v2.37362637H12.1012747z"/>
    <mask id="l" fill="#fff">
      <use xlink:href="#k"/>
    </mask>
    <path fill="#5C606B" fill-rule="nonzero" mask="url(#l)" d="M12.1012747 12.0250549h2.37362637v2.37362637H12.1012747z"/>
    <mask id="n" fill="#fff">
      <use xlink:href="#m"/>
    </mask>
    <path fill="#5C606B" fill-rule="nonzero" mask="url(#n)" d="M14.4749011 9.64325275h2.37362637v2.37362637H14.4749011z"/>
    <mask id="p" fill="#fff">
      <use xlink:href="#o"/>
    </mask>
    <path fill="#5C606B" fill-rule="nonzero" mask="url(#p)" d="M14.4749011 14.3986813h2.37362637v2.37362637H14.4749011z"/>
    <mask id="r" fill="#fff">
      <use xlink:href="#q"/>
    </mask>
    <path fill="#5C606B" fill-rule="nonzero" mask="url(#r)" d="M12.1012747 21.5195604h2.37362637v2.37362637H12.1012747z"/>
    <mask id="t" fill="#fff">
      <use xlink:href="#s"/>
    </mask>
    <path fill="#5C606B" fill-rule="nonzero" mask="url(#t)" d="M14.4749011 19.1459341h2.37362637v2.37362637H14.4749011z"/>
    <mask id="v" fill="#fff">
      <use xlink:href="#u"/>
    </mask>
    <path fill="#5C606B" fill-rule="nonzero" mask="url(#v)" d="M16.8485275 7.26962637h2.37362637v2.37362637H16.8485275z"/>
    <mask id="x" fill="#fff">
      <use xlink:href="#w"/>
    </mask>
    <path fill="#5C606B" fill-rule="nonzero" mask="url(#x)" d="M16.8485275 2.52237363h2.37362637V4.896H16.8485275z"/>
    <mask id="z" fill="#fff">
      <use xlink:href="#y"/>
    </mask>
    <path fill="#5C606B" fill-rule="nonzero" mask="url(#z)" d="M19.2221538.14083517h2.37362637v2.37362637H19.2221538z"/>
    <mask id="B" fill="#fff">
      <use xlink:href="#A"/>
    </mask>
    <path fill="#5C606B" fill-rule="nonzero" mask="url(#B)" d="M16.8485275 16.7723077h2.37362637v2.37362637H16.8485275z"/>
    <mask id="D" fill="#fff">
      <use xlink:href="#C"/>
    </mask>
    <path fill="#5C606B" fill-rule="nonzero" mask="url(#D)" d="M16.8485275 12.0250549h2.37362637v2.37362637H16.8485275z"/>
    <mask id="F" fill="#fff">
      <use xlink:href="#E"/>
    </mask>
    <path fill="#5C606B" fill-rule="nonzero" mask="url(#F)" d="M19.2221538 9.64325275h2.37362637v2.37362637H19.2221538z"/>
    <mask id="H" fill="#fff">
      <use xlink:href="#G"/>
    </mask>
    <path fill="#5C606B" fill-rule="nonzero" mask="url(#H)" d="M19.2221538 14.3986813h2.37362637v2.37362637H19.2221538z"/>
    <mask id="J" fill="#fff">
      <use xlink:href="#I"/>
    </mask>
    <path fill="#5C606B" fill-rule="nonzero" mask="url(#J)" d="M21.5957802 2.52237363h2.37362637V4.896H21.5957802z"/>
    <mask id="L" fill="#fff">
      <use xlink:href="#K"/>
    </mask>
    <path fill="#5C606B" fill-rule="nonzero" mask="url(#L)" d="M21.5957802 21.5195604h2.37362637v2.37362637H21.5957802z"/>
  </g>
</svg>
