<svg width="24" height="22" xmlns="http://www.w3.org/2000/svg">
  <g fill="#5C606B" fill-rule="nonzero">
    <path d="M15.34253084 1.09831024l8.625 19.49999996c.1096547.247915-.07186775.5266898-.34295075.5266898h-8.625c-.20710678 0-.375-.1678932-.375-.375V1.25c0-.40539735.55396508-.52243996.71795075-.15168976zM15.37458009 3.02444V20.375h7.67448l-7.67448-17.35056zM9.2995801 1.25v19.5c0 .1656854-.1343146.3-.3.3h-8.625c-.2168664 0-.3620844-.2230198-.2743606-.4213518l8.625-19.5C8.856408.83204803 9.2995801.92568212 9.2995801 1.25z"/>
    <path d="M15.26474513 10.92196l-.53033008.53033 7.881375 7.881375.53033008-.53033zM15.26474513 7.74870996l-.53033008.53033008 5.36475 5.36474996.53033008-.53033zM15.26474513 17.26846l-.53033008.53033 3.216375 3.216375.53033008-.53033zM15.26474513 14.09521l-.53033008.53033 6.389625 6.389625.53033008-.53033zM15.26474513 4.50645996l-.53033008.53033008 2.793 2.793.53033008-.53033008zM12.3745799 1.968125V3.4427c0 .20710679-.2238576.375-.5.375s-.5-.16789321-.5-.375V1.968125c0-.20710678.2238576-.375.5-.375s.5.16789322.5.375zm0 3.3178125v1.474575c0 .20710679-.2238576.375-.5.375s-.5-.16789321-.5-.375v-1.474575c0-.20710678.2238576-.375.5-.375s.5.16789322.5.375zm0 3.3178125v1.474575c0 .2071068-.2238576.375-.5.375s-.5-.1678932-.5-.375V8.60375c0-.20710678.2238576-.375.5-.375s.5.16789322.5.375zm0 3.3178125v1.474575c0 .2071068-.2238576.375-.5.375s-.5-.1678932-.5-.375v-1.474575c0-.2071068.2238576-.375.5-.375s.5.1678932.5.375zm0 3.3178125v1.474575c0 .2071068-.2238576.375-.5.375s-.5-.1678932-.5-.375v-1.474575c0-.2071068.2238576-.375.5-.375s.5.1678932.5.375zm0 3.3178125v1.474575c0 .2071068-.2238576.375-.5.375s-.5-.1678932-.5-.375v-1.474575c0-.2071068.2238576-.375.5-.375s.5.1678932.5.375z"/>
  </g>
</svg>
