<svg width="25" height="25" xmlns="http://www.w3.org/2000/svg">
  <g fill="none" fill-rule="evenodd">
    <path d="M22.8476005 24c-.0258054 0-.0516051-.00076992-.0773589-.00240149-.3026609-.00903964-.5907223-.13213592-.8064475-.34461637l-5.1575127-5.16454042v1.91301636c-.002573.65924658-.5363625 1.19303229-1.1956091 1.19560072-.6592452-.00257041-1.1930325-.53635554-1.1956055-1.19560072v-4.80351603c.0026318-.65922267.5363828-1.19297697 1.1956055-1.19561271h4.8035196c.6592499.00257044 1.1930391.53636285 1.1956055 1.19561271.0012438.31833716-.124023.62413-.3482428.85010693-.2242198.22597692-.5290255.35362689-.8473627.35486808h-1.9059358l5.1575139 5.14814441c.2264772.22527915.353812.53154321.353812.85098434 0 .31944112-.1273348.6257052-.353812.85098434-.2182849.2160775-.5110983.34025367-.8181695.34696985zm-21.59825679-.00240149c-.33344055.0146326-.65791734-.1102318-.8955317-.34461637C.12733479 23.427703 0 23.12143892 0 22.8019978c0-.31944113.12733479-.6257052.35381202-.85098435l5.15751269-5.1481444H3.60538937c-.31833713-.00124126-.62314276-.12889125-.84736252-.35486817-.22421975-.22597692-.34948651-.53176972-.34824276-.85010684.00256648-.65924977.53635552-1.19304214 1.19560528-1.19561272h4.80351975c.65922256.00263588 1.1929735.53639015 1.19560528 1.19561272v4.80356404c-.00257306.65924509-.53636018 1.19303018-1.19560528 1.19560072-.6592451-.00257054-1.19303223-.53635563-1.19560528-1.19560072v-1.91296834l-5.15751269 5.16454041c-.21572519.21248045-.5037866.33557673-.80644744.34461637v-.000048zM3.60538937 9.5964727c-.66014116-.0026257-1.19429622-.5378084-1.19560528-1.1979533-.00124694-.3183391.12401841-.624135.34823851-.8501146.22422009-.2259795.52902756-.3536311.84736677-.3548724h1.90359105L.35381202 2.0477406C.12733479 1.8224615 0 1.5161974 0 1.1967563 0 .8773151.12733479.5710511.35381202.3457719.59142637.1113873.91590316-.013477 1.2493437.0011555c.30266084.0090397.59072225.132136.80644744.3446164l5.15751269 5.1645404V3.597344c.00257305-.6592451.53636018-1.1930302 1.19560528-1.1956007.6592451.0025705 1.19303222.5363556 1.19560528 1.1956007v4.8011754c-.00134825.6601365-.53547276 1.1953099-1.19560528 1.1979533H3.60538937zm12.00528293 0c-.6592227-.0026837-1.1929737-.536438-1.1956055-1.1956607V3.597344c.002573-.6592452.5363603-1.1930303 1.1956055-1.1956007.6592452.0025704 1.1930325.5363555 1.1956055 1.1956007v1.9129683L21.9637905.3457719c.2157252-.2124804.5037866-.3355767.8064475-.3446164.3334406-.0146326.6579176.1102317.895532.3446164.2264772.2252792.353812.5315432.353812.8509844 0 .3194411-.1273348.6257052-.353812.8509843L18.5082561 7.195885h1.9059358c.3183372.0012412.6231429.1288912.8473627.3548681.2242198.2259769.3494866.5317698.3482428.8501069-.0025664.6592499-.5363556 1.1930423-1.1956055 1.1956127h-4.8035196z" fill="#A9ACB1" fill-rule="nonzero"/>
    <g fill="#5C606B">
      <path d="M22.8476005 24.00119704c-.0258054 0-.0516051-.00076992-.0773589-.00240148-.3026609-.00903965-.5907223-.13213592-.8064475-.34461637l-5.1575127-5.16454042v1.91301636c-.002573.65924657-.5363625 1.19303228-1.1956091 1.19560071-.6592452-.0025704-1.1930325-.53635553-1.1956055-1.19560071V15.5991391c.0026318-.65922267.5363828-1.19297698 1.1956055-1.19561272h4.8035196c.6592499.00257045 1.1930391.53636285 1.1956055 1.19561272.0012438.31833715-.124023.62412999-.3482428.85010692-.2242198.22597693-.5290255.35362689-.8473627.35486809h-1.9059358l5.1575139 5.1481444c.2264772.22527915.353812.53154322.353812.85098434 0 .31944113-.1273348.6257052-.353812.85098435-.2182849.2160775-.5110983.34025367-.8181695.34696984zM1.24934371 23.99759747c-.33344055.0146326-.65791734-.1102318-.8955317-.34461637C.12733479 23.42770195 0 23.12143788 0 22.80199675c0-.31944112.12733479-.62570519.35381202-.85098434l5.15751269-5.1481444H3.60538937c-.31833713-.00124126-.62314276-.12889125-.84736252-.35486817-.22421975-.22597693-.34948651-.53176973-.34824276-.85010684.00256648-.65924978.53635552-1.19304214 1.19560528-1.19561272h4.80351975c.65922256.00263588 1.1929735.53639014 1.19560528 1.19561272v4.80356404c-.00257306.65924508-.53636018 1.19303018-1.19560528 1.19560071-.6592451-.00257053-1.19303223-.53635563-1.19560528-1.19560071v-1.91296835l-5.15751269 5.16454042c-.21572519.21248045-.5037866.33557673-.80644744.34461637v-.00004801z"/>
    </g>
  </g>
</svg>
