<svg width="25" height="25" xmlns="http://www.w3.org/2000/svg">
  <g fill-rule="nonzero" fill="none">
    <path d="M1.27757679 23.98492C.61648152 23.98728068.07993388 23.4508759.082437 22.78978063v-4.76423829c.00238974-.65748812.53765166-1.1883929 1.19513979-1.18582148.65476193.00119048 1.18559528.53105955 1.18815481 1.18582148v1.90663103l7.856667-7.85435747-7.856667-7.8566789v1.8880239c-.00238096.6547619-.53339288 1.1845477-1.18815481 1.1858215C.62008866 7.2973633.08501721 6.766649.082437 6.1091609v-4.761905C.08363626.6888869.61920771.1565892 1.27757679.1590833h4.76422638C6.6965651.1614821 7.22636274.692494 7.22763655 1.3472559c-.00238095.6538572-.53197621 1.1832739-1.18583338 1.1858215H4.14448166l7.86133364 7.8636551 7.8659765-7.8636551h-1.9135953c-.6538572-.0023809-1.1832857-.5319643-1.1858334-1.1858215.0011905-.6547619.5310715-1.1856071 1.1858334-1.1881726h4.761905c.6592738-.0035536 1.1961072.5288869 1.1974603 1.1881726v4.761905c-.0023888.6583929-.5390674 1.1896786-1.1974603 1.1858215-.6538572-.002381-1.1832858-.5319643-1.1858334-1.1858215V4.2281132l-7.8450479 7.8497027 7.8450479 7.84738128v-1.89965484c.0023809-.65385717.5319762-1.18327386 1.1858334-1.18582148.6583929-.00357142 1.1948929.5274286 1.1974603 1.18582148v4.76423829c.0023731.66200003-.5354603 1.19894053-1.1974603 1.19513937h-4.761905c-.6574881-.00240122-1.1884048-.53765125-1.1858334-1.19513937.0011905-.65476193.5310715-1.18560719 1.1858334-1.18815481h1.888012l-7.8403932-7.84040512-7.8357503 7.84040512h1.87173817c.65476193.00238095 1.18455957.53339288 1.18583338 1.18815481.00238096.65748812-.52834526 1.19255957-1.18583338 1.19513937H1.27757679z" fill="#5C606B"/>
    <path d="M1.27757679 23.9222033C.61648152 23.9245241.07993388 23.3881193.082437 22.727024v-4.7642383c.00238974-.6574881.53765166-1.1883929 1.19513979-1.1858215.65476193.0011905 1.18559528.5310596 1.18815481 1.1858215v1.906631l7.856667-7.8543574 1.6775999-1.6533099 1.6892217 1.6533099 7.8450479 7.8473813v-1.8996549c.0023809-.6538572.5319762-1.1832738 1.1858334-1.1858215.6583929-.0035714 1.1948929.5274286 1.1976745 1.1858215v4.7642383c.0021589.662-.5356745 1.1989405-1.1976745 1.1951793h-4.761905c-.6574881-.0024411-1.1884048-.5376912-1.1858334-1.1951793.0011905-.6547619.5310715-1.1856072 1.1858334-1.1881548h1.888012l-7.8403932-7.8404051-7.8357503 7.8404051h1.87173817c.65476193.0023809 1.18455957.5333929 1.18583338 1.1881548.00238096.6574881-.52834526 1.1925596-1.18583338 1.1951793H1.27757679z" fill="#BDBFC3" opacity=".8"/>
  </g>
</svg>
