<svg width="24" height="24" xmlns="http://www.w3.org/2000/svg">
  <path d="M1.27757664.01507897C.61648138.01271829.07993374.54912307.08243686 1.21021834v4.76423829c.00238974.65748812.53765166 1.1883929 1.19513978 1.18582148.65476194-.00119048 1.18559529-.53105955 1.18815481-1.18582148V4.0678256l7.85666695 7.8543575-7.85666695 7.8566789v-1.8880239c-.00238095-.654762-.53339287-1.1845477-1.18815481-1.1858215-.65748812-.002381-1.19255957.5283333-1.19513978 1.1858215v4.7619049c.00119926.6583691.53677071 1.1906667 1.19513978 1.1881727h4.76422639c.65476193-.0023988 1.18455957-.5334107 1.18583338-1.1881727-.00238095-.6538571-.53197621-1.1832738-1.18583338-1.1858215H4.14448152l7.86133368-7.863655 7.8659765 7.863655h-1.9135953c-.6538572.002381-1.1832858.5319644-1.1858334 1.1858215.0011905.654762.5310714 1.1856072 1.1858334 1.1881727h4.7619049c.6592739.0035536 1.1961072-.5288869 1.1974603-1.1881727v-4.7619049c-.0023888-.6583929-.5390674-1.1896787-1.1974603-1.1858215-.6538571.0023809-1.1832857.5319643-1.1858334 1.1858215v1.8810477L13.68922 11.9221831l7.8450479-7.84738131v1.89965484c.002381.65385717.5319763 1.18327386 1.1858334 1.18582148.6583929.00357142 1.1948929-.5274286 1.1974603-1.18582148V1.21021834c.0023731-.66200003-.5354602-1.19894053-1.1974603-1.19513937h-4.7619049c-.6574881.00240122-1.1884048.53765125-1.1858334 1.19513937.0011905.65476193.5310714 1.18560719 1.1858334 1.18815481h1.888012l-7.8403932 7.84040505-7.83575034-7.84040505h1.87173817c.65476193-.00238095 1.18455957-.53339288 1.18583338-1.18815481C7.23001736.55273022 6.69929115.01765877 6.04180303.01507897H1.27757664z" fill="#5C606B" fill-rule="nonzero"/>
</svg>
