<svg width="26" height="24" xmlns="http://www.w3.org/2000/svg">
  <g fill-rule="nonzero" fill="none">
    <path d="M2.1719817 0c.0258055 0 .0516052.00076992.077359.00240149.3026608.00903964.5907222.13213592.8064474.34461637l5.1575127 5.16454042V3.59854192c.0025731-.65924658.5363625-1.19303229 1.1956091-1.19560072.6592452.00257041 1.1930325.53635554 1.1956055 1.19560072v4.80351603c-.0026317.65922267-.5363828 1.19297697-1.1956055 1.19561271H4.6053903c-.6592498-.00257044-1.193039-.53636285-1.1956055-1.19561271-.0012438-.31833716.124023-.62413.3482428-.85010693.2242198-.22597692.5290255-.35362689.8473627-.35486808h1.9059358L1.3538122 2.04893853c-.2264772-.22527915-.353812-.53154321-.353812-.85098434 0-.31944112.1273348-.6257052.353812-.85098434C1.5720972.13089235 1.8649106.00671618 2.1719817 0zm21.59825683.00240149c.33344054-.0146326.65791734.1102318.89553169.34461637.22647723.22527915.35381202.53154322.35381202.85098434 0 .31944113-.12733479.6257052-.35381202.85098435l-5.1575127 5.1481444h1.90593535c.31833712.00124126.62314276.12889125.84736251.35486817.22421975.22597692.34948651.53176972.34824276.85010684-.00256647.65924977-.53635552 1.19304214-1.19560527 1.19561272h-4.80351975c-.65922256-.00263588-1.19297351-.53639015-1.19560528-1.19561272V3.59854192c.00257305-.65924509.53636018-1.19303018 1.19560528-1.19560072.65924509.00257054 1.19303222.53635563 1.19560527 1.19560072v1.91296834l5.1575127-5.16454041c.21572519-.21248046.5037866-.33557673.80644744-.34461637v.000048zM21.41419287 14.4035273c.66014116.0026257 1.19429622.5378084 1.19560527 1.1979533.00124695.3183391-.1240184.624135-.3482385.8501146-.2242201.2259795-.52902756.3536311-.84736677.3548724h-1.90359105l5.1551684 5.1457918c.22647723.2252791.35381202.5315432.35381202.8509843 0 .3194412-.12733479.6257052-.35381202.8509844-.23761435.2343846-.56209115.3592489-.89553169.3446164-.30266084-.0090397-.59072225-.132136-.80644744-.3446164l-5.1575127-5.1645404v1.9129683c-.00257305.6592451-.53636018 1.1930302-1.19560527 1.1956007-.6592451-.0025705-1.19303223-.5363556-1.19560528-1.1956007v-4.8011754c.00134825-.6601365.53547275-1.1953099 1.19560528-1.1979533h4.80351975zm-12.00528297 0c.6592227.0026837 1.1929738.536438 1.1956055 1.1956607v4.803468c-.002573.6592452-.5363603 1.1930303-1.1956055 1.1956007-.6592452-.0025704-1.1930324-.5363555-1.1956055-1.1956007v-1.9129683l-5.1575127 5.1645404c-.2157252.2124804-.5037866.3355767-.8064474.3446164-.3334407.0146326-.6579176-.1102317-.8955321-.3446164-.2264772-.2252792-.353812-.5315432-.353812-.8509844 0-.3194411.1273348-.6257052.353812-.8509843l5.1575139-5.1481444H4.6053903c-.3183372-.0012412-.6231429-.1288912-.8473627-.3548681-.2242198-.2259769-.3494866-.5317698-.3482428-.8501069.0025665-.6592499.5363557-1.1930423 1.1956055-1.1956127h4.8035196z" fill="#5C606B"/>
    <g fill="#A9ACB1">
      <path d="M2.17198129 0c.02580542 0 .05160514.00076992.07735894.00240149.30266084.00903964.59072225.13213592.80644744.34461637l5.1575127 5.16454042V3.59854192c.00257306-.65924658.53636252-1.19303229 1.19560911-1.19560072.6592452.00257041 1.19303247.53635554 1.19560552 1.19560072v4.80351603c-.00263177.65922267-.53638286 1.19297697-1.19560552 1.19561271H4.60538985C3.94614 9.59510022 3.41235082 9.06130781 3.40978434 8.40205795c-.00124375-.31833716.12402304-.62413.34824284-.85010693.22421981-.22597692.52902551-.35362689.84736267-.35486808h1.90593583l-5.1575139-5.14814441c-.22647723-.22527915-.35381202-.53154321-.35381202-.85098434 0-.31944112.12733479-.6257052.35381202-.85098434C1.57209673.13089235 1.86491011.00671618 2.17198129 0zM9.40890948 14.4035273c.65922266.0026837 1.19297375.536438 1.19560552 1.1956607v4.803468c-.00257305.6592452-.53636033 1.1930303-1.19560552 1.1956007-.65924519-.0025704-1.19303246-.5363555-1.19560551-1.1956007v-1.9129683l-5.1575127 5.1645404c-.21572519.2124804-.5037866.3355767-.80644744.3446164-.33344067.0146326-.65791761-.1102317-.89553205-.3446164-.22647723-.2252792-.35381202-.5315432-.35381202-.8509844 0-.3194411.12733479-.6257052.35381202-.8509843l5.1575139-5.1481444H4.60538985c-.31833716-.0012412-.62314286-.1288912-.84736267-.3548681-.2242198-.2259769-.34948659-.5317698-.34824284-.8501069.00256648-.6592499.53635566-1.1930423 1.19560551-1.1956127h4.80351963z"/>
    </g>
  </g>
</svg>
