<svg height="300" width="300" fill="#fff" xmlns="http://www.w3.org/2000/svg" version="1.2" baseProfile="tiny" viewBox="-255 347 100 100">
    <switch>
        <g>
            <path d="M-160 362h-56c-1.9-4.4-6.3-7.5-11.5-7.5s-9.5 3.1-11.5 7.5h-11v10h11c1.9 4.4 6.3 7.5 11.5 7.5s9.5-3.1 11.5-7.5h56v-10zM-160 392h-10.6c-1.9-4.4-6.3-7.5-11.5-7.5s-9.5 3.1-11.5 7.5H-250v10h56.5c1.9 4.4 6.3 7.5 11.5 7.5s9.5-3.1 11.5-7.5h10.6v-10zM-160 422h-42.5c-1.9-4.4-6.3-7.5-11.5-7.5s-9.5 3.1-11.5 7.5H-250v10h24.5c1.9 4.4 6.3 7.5 11.5 7.5s9.5-3.1 11.5-7.5h42.5v-10z"/>
        </g>
    </switch>
</svg>