<svg height="300" width="300" fill="currentColor" xmlns="http://www.w3.org/2000/svg" viewBox="0 0 26 26">
    <path d="M22.544 17.129l-3.613-.656v-5.414c0-1.017-.827-1.844-1.844-1.844s-1.844.827-1.844 1.844v9.104l-1.01-1.01c-.721-.721-1.979-.721-2.699 0-.744.744-.744 1.955 0 2.699l3.001 3.001c.195.195.512.195.707 0s.195-.512 0-.707l-3.001-3.001c-.354-.354-.354-.931 0-1.285.355-.354.931-.354 1.285 0l1.864 1.864c.144.144.358.188.545.108.187-.077.309-.26.309-.462V11.059c0-.465.379-.844.844-.844s.844.379.844.844v5.832c0 .242.173.449.411.492l4.024.731c.946.171 1.633.995 1.633 1.958 0 .2-.03.399-.09.591l-1.148 3.688c-.082.264.065.544.329.626.05.016.1.023.149.023.213 0 .411-.137.478-.352l1.148-3.689c.089-.288.134-.586.134-.887 0-1.447-1.033-2.684-2.456-2.943zM1 1.5c0 .276.224.5.5.5h3.286c.276 0 .5-.224.5-.5s-.223-.5-.5-.5H1.5c-.276 0-.5.224-.5.5zM11.358 1H8.072c-.276 0-.5.224-.5.5s.223.5.5.5h3.286c.276 0 .5-.224.5-.5s-.224-.5-.5-.5zM17.93 1h-3.286c-.276 0-.5.224-.5.5s.224.5.5.5h3.286c.276 0 .5-.224.5-.5s-.224-.5-.5-.5zM1.5 8.572h3.286c.276 0 .5-.224.5-.5s-.224-.5-.5-.5H1.5c-.276 0-.5.224-.5.5s.224.5.5.5zM11.358 7.572H8.072c-.276 0-.5.224-.5.5s.224.5.5.5h3.286c.276 0 .5-.224.5-.5s-.224-.5-.5-.5zM1.5 15.144h3.286c.276 0 .5-.224.5-.5s-.224-.5-.5-.5H1.5c-.276 0-.5.224-.5.5s.224.5.5.5zM11.358 14.144H8.072c-.276 0-.5.224-.5.5s.224.5.5.5h3.286c.276 0 .5-.224.5-.5s-.224-.5-.5-.5z"/>
</svg>