<svg fill="none" height="405" width="344" xmlns="http://www.w3.org/2000/svg"><g stroke="#fff"><circle cx="172.437" cy="234.33" r="20.888"/><circle cx="172" cy="233.893" r="85.053"/><circle cx="172" cy="233.893" r="170.607"/></g><path d="m69.307 43.034a.638.638 0 0 0 -.639-.639.626.626 0 0 0 -.35.12c.232.347.491.674.74 1.01a.622.622 0 0 0 .247-.491zm1.571-26.253a.634.634 0 1 0 0-1.268.634.634 0 0 0 0 1.268zm30.347 32.693a.475.475 0 1 0 0-.95.475.475 0 0 0 0 .95zm-9.832-34.87a.542.542 0 1 0 0 1.085.542.542 0 0 0 0-1.085zm-2.338-13.208a.486.486 0 1 0 0 .973.486.486 0 0 0 0-.973zm25.382 34.402a.458.458 0 1 0 0-.916.458.458 0 0 0 0 .916zm-42.828-4.363a.65.65 0 1 0 0-1.3.65.65 0 0 0 0 1.3zm36.414 6.61a.486.486 0 1 0 -.001-.973.486.486 0 0 0 .001.973zm-31.283-12.172a.634.634 0 1 0 -1.269.001.634.634 0 0 0 1.27 0zm1.816-4.934a.621.621 0 1 0 -1.242 0 .621.621 0 0 0 1.242 0zm36.116 4.701a.466.466 0 1 0 -.934-.001.466.466 0 0 0 .934.001zm-15.894 19.337a.502.502 0 1 0 0-1.005.502.502 0 0 0 0 1.005zm-24.609-.607a.61.61 0 1 0 0-1.22.61.61 0 0 0 0 1.22zm9.804-23.719a.59.59 0 1 0 0-1.178.59.59 0 0 0 0 1.178zm-17.593 7.259a.67.67 0 1 0 1.339 0 .67.67 0 0 0 -1.339 0zm45.238-3.906a.475.475 0 1 0 0 .95.475.475 0 0 0 0-.95zm-24.278-10.699a.554.554 0 1 0 1.107-.002.554.554 0 0 0 -1.108.002zm2.279 30.054a.554.554 0 1 0 .001-1.108.554.554 0 0 0 -.001 1.108zm6.913-15.123a.542.542 0 1 0 1.084 0 .542.542 0 0 0 -1.084 0zm-20.711-12.989a.61.61 0 1 0 -1.22 0 .61.61 0 0 0 1.22 0zm16.645-3.694a.522.522 0 1 0 0-1.045.522.522 0 0 0 0 1.045zm1.56 42.259a.482.482 0 1 0 0-.964.482.482 0 0 0 0 .964zm-13.976-8.921a.585.585 0 1 0 0-1.17.585.585 0 0 0 0 1.17zm-4.878-37.366a.578.578 0 1 0 -.001 1.156.578.578 0 0 0 0-1.156zm19.738 7.448a.53.53 0 1 0 1.06-.002.53.53 0 0 0 -1.06.002zm-5.424 6.806a.566.566 0 1 0 0-1.132.566.566 0 0 0 0 1.132zm-9.399-10.69a.574.574 0 1 0 0-1.148.574.574 0 0 0 0 1.148zm-1.657 36.573a.578.578 0 1 0 0-1.155.578.578 0 0 0 0 1.155zm7.423-3.515a.565.565 0 1 0 -1.13-.001.565.565 0 0 0 1.13 0zm2.208-37.43a.514.514 0 1 0 0-1.029.514.514 0 0 0 0 1.029zm-20.15 9.793a.641.641 0 1 0 0-1.282.641.641 0 0 0 0 1.282zm9.316 33.841a.574.574 0 1 0 0-1.148.574.574 0 0 0 0 1.148zm.413-15.098a.621.621 0 1 0 0-1.243.621.621 0 0 0 0 1.243zm-.557-6.997a.626.626 0 1 0 0-1.251.626.626 0 0 0 0 1.251zm25.104 16.798a.486.486 0 1 0 -.973.001.486.486 0 0 0 .973 0zm-33.217-11.472a.658.658 0 1 0 0-1.316.658.658 0 0 0 0 1.316zm11.612-5.595a.61.61 0 1 0 1.22 0 .61.61 0 0 0 -1.22 0zm18.338-7.674a.522.522 0 1 0 0-1.044.522.522 0 0 0 0 1.044zm9.899 20.267a.474.474 0 1 0 .001-.948.474.474 0 0 0 -.001.948zm-5.56 7.015a.474.474 0 1 0 .948.002.474.474 0 0 0 -.948-.002zm-13.136-13.109a.574.574 0 1 0 -1.148 0 .574.574 0 0 0 1.148 0zm19.137-11.5a.481.481 0 1 0 .001-.963.481.481 0 0 0 -.001.963zm-12.673 12.411a.542.542 0 1 0 0-1.084.542.542 0 0 0 0 1.084zm-29.647-15.704a.654.654 0 1 0 0-1.307.654.654 0 0 0 0 1.307zm-2.363 2.672a.674.674 0 0 0 .673-.673.664.664 0 0 0 -.497-.638c-.112.426-.239.846-.33 1.28.05.013.1.031.153.031zm29.633 9.332a.554.554 0 1 0 -.001 1.108.554.554 0 0 0 .001-1.108zm2.886 21.723c-.063 0-.108.045-.162.067l.2-.052c-.014 0-.024-.015-.038-.015zm-10.286-33.31a.578.578 0 1 0 -.001 1.155.578.578 0 0 0 0-1.156zm4.274-13.415a.51.51 0 1 0 0-1.02.51.51 0 0 0 0 1.02zm-20.231 12.79a.638.638 0 1 0 0-1.277.638.638 0 0 0 0 1.277zm4.384 10.127a.638.638 0 1 0 0-1.277.638.638 0 0 0 0 1.277zm4.583 4.474a.613.613 0 1 0 0-1.226.613.613 0 0 0 0 1.226zm-6.46-5.66a.65.65 0 1 0 -1.298 0 .65.65 0 0 0 1.298 0zm11.26-25.996a.502.502 0 0 0 .503-.501c0-.05-.016-.097-.03-.143-.324.066-.635.164-.955.242.047.227.24.402.482.402zm2.061 32.399a.585.585 0 1 0 0-1.17.585.585 0 0 0 0 1.17zm-6.956 2.433a.602.602 0 1 0 1.205 0 .602.602 0 0 0 -1.205 0zm30.854-1.872a.482.482 0 1 0 -.963-.001.482.482 0 0 0 .963 0zm-42.784-12.91a.666.666 0 1 0 -1.332 0 .666.666 0 0 0 1.332 0zm-.016 16.355a.654.654 0 1 0 0-1.308.654.654 0 0 0 0 1.308zm8.505-26.189a.598.598 0 1 0 .001 1.197.598.598 0 0 0 -.001-1.197zm30.525-3.956a.454.454 0 1 0 0 .909.454.454 0 0 0 0-.909zm-40.817 24.125a.67.67 0 1 0 1.338 0 .67.67 0 0 0 -1.338 0zm45.547-19.525a.447.447 0 1 0 0-.893.447.447 0 0 0 0 .893zm-8.955 26.785a.503.503 0 1 0 -.004-1.002.503.503 0 0 0 .004 1.002zm-37.436-5.991a.674.674 0 0 0 -.673-.673l-.008.002c.092.424.21.839.323 1.257a.665.665 0 0 0 .358-.586zm.318-9.34a.67.67 0 1 0 1.338 0 .67.67 0 0 0 -1.338 0zm34.203-20.421a.458.458 0 1 0 0 .917.458.458 0 0 0 0-.917zm-31.664 26.677a.666.666 0 1 0 0-1.332.666.666 0 0 0 0 1.332zm37.561 5.696a.494.494 0 1 0 0-.988.494.494 0 0 0 0 .988zm-36.664-13.259a.654.654 0 1 0 1.307 0 .654.654 0 0 0 -1.307 0zm34.426 2.743a.515.515 0 1 0 .002 1.03.515.515 0 0 0 -.002-1.03zm-28.349 22.85a.585.585 0 1 0 0-1.17.585.585 0 0 0 0 1.17zm23.639-14.193a.53.53 0 1 0 1.06 0 .53.53 0 0 0 -1.06 0zm-26.505-1.441a.65.65 0 1 0 -1.299-.001.65.65 0 0 0 1.299 0zm3.002-11.747a.626.626 0 1 0 0-1.252.626.626 0 0 0 0 1.252zm26.692-.574a.514.514 0 1 0 -1.028 0 .514.514 0 0 0 1.028 0zm-10.147 14.738a.561.561 0 1 0 .001-1.122.561.561 0 0 0 0 1.122zm-10.027 15.563a.55.55 0 1 0 0-1.101.55.55 0 0 0 0 1.101zm28.098-25.005a.486.486 0 1 0 .001.973.486.486 0 0 0 -.001-.973zm-32.992-8.148a.61.61 0 1 0 1.22 0 .61.61 0 0 0 -1.22 0zm5.868-8.253a.555.555 0 1 0 0-1.109.555.555 0 0 0 0 1.11zm21.403-.88a.458.458 0 1 0 0-.916.458.458 0 0 0 0 .916zm-2.579-1.718a.467.467 0 1 0 0-.934.467.467 0 0 0 0 .934zm-1.352 2.088a.486.486 0 1 0 .001.973.486.486 0 0 0 -.001-.973zm-18.82 36.968a.565.565 0 1 0 1.13.001.565.565 0 0 0 -1.13-.001zm-10.236-6.472a.638.638 0 1 0 0-1.276.638.638 0 0 0 0 1.276zm2.232-1.956a.638.638 0 1 0 0-1.277.638.638 0 0 0 0 1.276zm15.562 10.632a.534.534 0 1 0 -1.067 0 .534.534 0 0 0 1.067 0zm3.207-9.315a.555.555 0 1 0 0-1.11.555.555 0 0 0 0 1.11zm-9.865-16.562a.602.602 0 1 0 0-1.204.602.602 0 0 0 0 1.204zm2.522-9.425a.565.565 0 1 0 -.001 1.13.565.565 0 0 0 .001-1.13zm11.545 12.69a.55.55 0 1 0 -1.1-.002.55.55 0 0 0 1.1.001zm2.183 12.44a.53.53 0 1 0 -1.061 0 .53.53 0 0 0 1.06 0zm-9.864-13.983a.579.579 0 1 0 0-1.157.579.579 0 0 0 0 1.157zm8.86 7.692a.542.542 0 1 0 0-1.084.542.542 0 0 0 0 1.084zm2.76 8.918a.515.515 0 1 0 -1.03.002.515.515 0 0 0 1.03-.002zm-19.266 1.073a.59.59 0 1 0 -1.18.001.59.59 0 0 0 1.18 0zm-5.734-2.633a.621.621 0 1 0 0-1.242.621.621 0 0 0 0 1.242zm36.91-24.267a.454.454 0 1 0 0 .91.454.454 0 0 0 0-.91zm-5.354 11.27a.502.502 0 1 0 -.001 1.004.502.502 0 0 0 .001-1.005zm-21.555 12.317a.585.585 0 1 0 0-1.17.585.585 0 0 0 0 1.17zm-6.224 12.853h-.007c.142.07.282.14.426.206a.542.542 0 0 0 -.42-.207v.002zm5.605-17.455a.59.59 0 1 0 -1.179 0 .59.59 0 0 0 1.18 0zm-3.193 5.527a.599.599 0 1 0 -.001-1.197.599.599 0 0 0 .001 1.197zm27.964-29.591a.447.447 0 1 0 .894 0v-.001c-.125-.141-.252-.28-.379-.418-.025-.004-.04-.028-.067-.028-.247 0-.447.2-.447.447zm5.725 7.81c-.064-.16-.111-.328-.179-.487-.015.045-.053.078-.053.13 0 .163.102.28.232.357zm-12.564 6.044a.515.515 0 1 0 1.03-.001.515.515 0 0 0 -1.03.002zm-18.443 29.095a.522.522 0 1 0 0-1.045.522.522 0 0 0 0 1.045zm28.094-32.504a.466.466 0 1 0 .933 0 .466.466 0 0 0 -.933 0zm-25.977-9.181a.55.55 0 1 0 0-1.1.55.55 0 0 0 0 1.1zm19.926 1.65a.474.474 0 1 0 0 0zm-2.421-.921a.482.482 0 1 0 -.963 0 .482.482 0 0 0 .963 0zm-12.842 17.579a.565.565 0 1 0 1.13.001.565.565 0 0 0 -1.13 0zm15.643-6.829a.494.494 0 1 0 0-.99.494.494 0 0 0 0 .99zm-10.993-.224a.55.55 0 1 0 0 1.101.55.55 0 0 0 0-1.1zm18.034 15.277a.458.458 0 1 0 0-.916.458.458 0 0 0 0 .916zm-19.51-30.582a.501.501 0 1 0 0 1.002.501.501 0 0 0 0-1.002zm-13.636 19.035a.613.613 0 1 0 0-1.227.613.613 0 0 0 0 1.227zm-3.656 18.281a.599.599 0 1 0 0-1.197.599.599 0 0 0 0 1.197zm16.047-1.584a.543.543 0 1 0 -.001-1.085.543.543 0 0 0 0 1.085zm16.925-11.459a.486.486 0 1 0 .001.973.486.486 0 0 0 -.001-.973zm-20.293-5.576a.574.574 0 1 0 0 1.148.574.574 0 0 0 0-1.148zm-4.787 23.821a.534.534 0 1 0 1.067 0 .534.534 0 0 0 -1.067 0zm-1.716-1.183a.562.562 0 1 0 -1.123 0 .562.562 0 0 0 1.123 0zm4.489-16.747a.585.585 0 1 0 0-1.171.585.585 0 0 0 0 1.17zm24.874 10.034a.454.454 0 0 0 -.454.454c0 .234.185.413.412.437.143-.206.281-.415.419-.625-.075-.148-.199-.266-.377-.266zm1.414-9.496a.474.474 0 1 0 -.952.001.474.474 0 0 0 .952 0zm-9.288 9.912a.494.494 0 1 0 -.988-.001.494.494 0 0 0 .988 0zm-14.125-10.549a.565.565 0 1 0 1.13.001.565.565 0 0 0 -1.13 0zm-4.747-13.613a.574.574 0 1 0 0-1.148.574.574 0 0 0 0 1.148zm18.843 2.186a.51.51 0 1 0 -1.02 0 .51.51 0 0 0 1.02 0zm-11.934-16.337a.482.482 0 1 0 0-.964.482.482 0 0 0 0 .964zm17.165 14.575a.474.474 0 1 0 -.001.949.474.474 0 0 0 .001-.949zm-36.555 27.892a.602.602 0 1 0 0-1.204.602.602 0 0 0 0 1.204zm21.41-18.067a.555.555 0 1 0 0 1.11.555.555 0 0 0 0-1.11zm11.177 4.896a.51.51 0 1 0 -1.02 0 .51.51 0 0 0 1.02 0zm-38.897 3.062a.666.666 0 1 0 0-1.332.666.666 0 0 0 0 1.332zm35.142-2.654a.523.523 0 1 0 0-1.045.523.523 0 0 0 0 1.045zm-17.968-2.371a.602.602 0 1 0 0 1.204.602.602 0 0 0 0-1.204zm-13.356 5.419a.65.65 0 1 0 0-1.299.65.65 0 0 0 0 1.3zm28.397-11.957a.534.534 0 1 0 1.067 0 .534.534 0 0 0 -1.067 0zm-24.657 10.348a.638.638 0 1 0 0-1.277.638.638 0 0 0 0 1.277zm-3.248 10.036a.622.622 0 1 0 0-1.243.622.622 0 0 0 0 1.243zm4.694-3.289a.613.613 0 1 0 0-1.227.613.613 0 0 0 0 1.227zm30.845 1.545a.474.474 0 1 0 .001-.949.474.474 0 0 0 -.001.949zm-31.784-18.439a.638.638 0 1 0 0-1.276.638.638 0 0 0 0 1.276zm11.362-21.642a.514.514 0 1 0 0 1.028.514.514 0 0 0 0-1.028zm11.581 44.292a.503.503 0 1 0 0-1.006.503.503 0 0 0 0 1.006zm-19.921-38.828a.574.574 0 1 0 0-1.148.574.574 0 0 0 0 1.148zm5.786 20.72a.602.602 0 1 0 0-1.204.602.602 0 0 0 0 1.204zm-13.74-3.281a.658.658 0 1 0 -1.316 0 .658.658 0 0 0 1.316 0zm8.709 13.355a.61.61 0 1 0 0 1.22.61.61 0 0 0 0-1.22zm12.239 11.305a.51.51 0 1 0 0-1.02.51.51 0 0 0 0 1.02zm-12.58-38.934a.585.585 0 1 0 0-1.17.585.585 0 0 0 0 1.17zm-9.191 29.111a.641.641 0 1 0 0-1.282.641.641 0 0 0 0 1.282zm25.665 1.307a.53.53 0 1 0 1.061 0 .53.53 0 0 0 -1.06 0zm4.443 8.819a.474.474 0 1 0 .001-.949.474.474 0 0 0 0 .949zm-30.422-31.186a.654.654 0 1 0 0 1.308.654.654 0 0 0 0-1.308zm1.494-7.358a.627.627 0 1 0 .002 1.253.627.627 0 0 0 -.001-1.253zm35.408 6.069a.495.495 0 1 0 .99-.001.495.495 0 0 0 -.99 0zm-34.39 1.705a.641.641 0 1 0 0 1.282.641.641 0 0 0 0-1.283zm12.624 21.29a.578.578 0 1 0 -1.155 0 .578.578 0 0 0 1.155 0zm-11.658-30.658a.611.611 0 1 0 .002 1.222.611.611 0 0 0 -.002-1.222zm9.061 19.703a.613.613 0 1 0 -1.226 0 .613.613 0 0 0 1.226 0zm-2.587-.716a.622.622 0 1 0 0-1.244.622.622 0 0 0 0 1.244zm18.796-20.813a.494.494 0 1 0 0 .989.494.494 0 0 0 0-.989zm-5.127 38.031a.522.522 0 1 0 -1.044 0 .522.522 0 0 0 1.044 0zm1.61-11.191a.55.55 0 1 0 0-1.101.55.55 0 0 0 0 1.1zm6.592-8.786a.53.53 0 1 0 -1.06-.001.53.53 0 0 0 1.06.001zm-26.752-17.584a.599.599 0 1 0 .001 1.197.599.599 0 0 0 -.001-1.197zm16.133 35.951a.534.534 0 1 0 0-1.067.534.534 0 0 0 0 1.067zm-2.068-16.442a.585.585 0 1 0 -1.17 0 .585.585 0 0 0 1.17 0zm-22.32 1.423a.674.674 0 1 0 -1.348 0 .674.674 0 0 0 1.348 0zm13.248-6.335a.613.613 0 1 0 0-1.226.613.613 0 0 0 0 1.226zm-8.252 3.985a.658.658 0 1 0 -1.316 0 .658.658 0 0 0 1.316 0zm1.673 13.772a.627.627 0 1 0 -.001-1.253.627.627 0 0 0 .001 1.253zm.073-15.747a.65.65 0 1 0 0-1.298.65.65 0 0 0 0 1.298zm10.402 9.842a.59.59 0 1 0 1.179 0 .59.59 0 0 0 -1.18 0zm12.216 1.872a.542.542 0 1 0 .001 1.085.542.542 0 0 0 0-1.085zm-2.988-13.71a.565.565 0 1 0 .002-1.13.565.565 0 0 0 -.002 1.13zm8.803 6.067a.53.53 0 1 0 -1.06-.001.53.53 0 0 0 1.06 0zm-.24-16.91a.502.502 0 1 0 -1.005.002.502.502 0 0 0 1.005-.002zm7.535 2.586a.481.481 0 1 0 -.963-.001.481.481 0 0 0 .963 0zm-10.656 1.373a.522.522 0 1 0 0-1.045.522.522 0 0 0 0 1.045zm-15.76-5.306a.574.574 0 1 0 1.148 0 .574.574 0 0 0 -1.148 0zm-2.6-8.394v-.003c-.292.14-.588.271-.873.42a.527.527 0 0 0 .332.125.542.542 0 0 0 .542-.542zm6.703 4.227a.534.534 0 1 0 1.067 0 .534.534 0 0 0 -1.067 0zm10.43 3.653a.514.514 0 1 0 -1.03.001.514.514 0 0 0 1.03 0zm-31.723 17.514a.67.67 0 0 0 -.476-.637c.012.422.03.844.064 1.261a.678.678 0 0 0 .413-.624zm39.536-13.25a.494.494 0 1 0 0 .988.494.494 0 0 0 0-.988zm-17.942 9.953a.59.59 0 1 0 0 1.18.59.59 0 0 0 0-1.18zm11.362 17.399a.515.515 0 1 0 0-1.03.515.515 0 0 0 0 1.03zm-32.501-17.223a.674.674 0 1 0 .001 1.348.674.674 0 0 0 0-1.348zm24.001-8.233a.565.565 0 1 0 0 1.13.565.565 0 0 0 0-1.13zm6.437-16.023c.117 0 .22-.05.302-.123-.217-.044-.442-.063-.661-.101.08.127.198.225.359.225zm.109 18.598a.542.542 0 1 0 -.001-1.085.542.542 0 0 0 0 1.085zm-6.243 19.402a.562.562 0 1 0 -1.123 0 .562.562 0 0 0 1.123 0zm-1.508 13.104a.51.51 0 1 0 0-1.02.51.51 0 0 0 0 1.02zm-7.187-36.017a.598.598 0 1 0 0 1.196.598.598 0 0 0 0-1.196zm6.039 29.899a.55.55 0 1 0 0-1.101.55.55 0 0 0 0 1.101zm-9.236-9.031a.622.622 0 1 0 0-1.243.622.622 0 0 0 0 1.243zm20.699-15.909a.534.534 0 1 0 0 1.068.534.534 0 0 0 0-1.068zm-11.769 19.696a.574.574 0 1 0 0-1.149.574.574 0 0 0 0 1.149zm2.447-3.548a.574.574 0 1 0 0-1.148.574.574 0 0 0 0 1.148zm2.492 15.792a.494.494 0 1 0 0-.99.494.494 0 0 0 0 .99zm12.628-23.791a.514.514 0 1 0 -1.028 0 .514.514 0 0 0 1.028 0zm-27.121 1.369a.635.635 0 1 0 -1.27.001.635.635 0 0 0 1.27 0zm38.871-1.456a.458.458 0 1 0 0-.916.458.458 0 0 0 0 .916zm-34.678-9.338a.61.61 0 1 0 -1.22-.001.61.61 0 0 0 1.22 0zm14.464 29.54a.494.494 0 1 0 0-.988.494.494 0 0 0 0 .989zm1.3-44.821a.474.474 0 1 0 0 .949.474.474 0 0 0 0-.95zm1.634-2.457c.21 0 .36-.158.411-.352-.267-.087-.536-.165-.807-.245-.018.05-.059.087-.059.143 0 .251.204.454.454.454zm-15.082 23.433a.602.602 0 1 0 0-1.204.602.602 0 0 0 0 1.204zm10.009.354a.562.562 0 1 0 -1.123 0 .562.562 0 0 0 1.123 0zm-7.939-2.958a.599.599 0 1 0 -1.197.002.599.599 0 0 0 1.197-.002zm4.626-13.897a.533.533 0 1 0 0 1.067.533.533 0 0 0 0-1.067zm-17.252 12.174a.641.641 0 1 0 0 1.283.641.641 0 0 0 0-1.283zm19.648-1.719a.555.555 0 1 0 0 1.11.555.555 0 0 0 0-1.11zm2.837 25.546a.515.515 0 1 0 -1.03 0 .515.515 0 0 0 1.03 0zm11.699 1.645a.458.458 0 1 0 0-.917.458.458 0 0 0 0 .916zm-27.884-32.756a.599.599 0 1 0 .001 1.197.599.599 0 0 0 -.001-1.197zm14.785 3.268a.55.55 0 1 0 -1.101 0 .55.55 0 0 0 1.101 0zm16.031 25.95a.466.466 0 1 0 0-.931.466.466 0 0 0 0 .931zm-27.298-39.045a.53.53 0 1 0 0-1.06.53.53 0 0 0 0 1.06zm-3.514.733a.555.555 0 1 0 .001 1.11.555.555 0 0 0 0-1.11zm33.522 34.213a.458.458 0 1 0 0-.916.458.458 0 0 0 0 .916zm-4.576-9.403a.502.502 0 1 0 -1.005.001.502.502 0 0 0 1.005-.002zm-25.448-23.052a.55.55 0 1 0 0-1.1.55.55 0 0 0 0 1.1zm29.089 22.128a.482.482 0 1 0 0-.964.482.482 0 0 0 0 .964zm-10.124 7.784a.514.514 0 1 0 0-1.03.514.514 0 0 0 0 1.03zm-27.332-20.245a.626.626 0 1 0 0 1.251.626.626 0 0 0 0-1.25zm8.698-.648a.585.585 0 1 0 0-1.17.585.585 0 0 0 0 1.17zm5.893-.82a.562.562 0 1 0 0 1.123.562.562 0 0 0 0-1.123zm12.521 1.74a.51.51 0 1 0 -.001-1.02.51.51 0 0 0 .001 1.02zm14.776 3.151a.43.43 0 0 0 -.188.345c0 .225.173.39.387.426-.066-.257-.126-.517-.199-.771z" fill="#fff"/></svg>