<svg xmlns="http://www.w3.org/2000/svg" xmlns:xlink="http://www.w3.org/1999/xlink" width="966" height="248" viewBox="0 0 966 248"><circle fill="#FFF" cx="124.771" cy="123.571" r="121.845"/><path d="M284.409 136.37c8.927 4.57 22.644 9.138 36.791 9.138 15.242 0 23.291-6.304 23.291-15.883 0-9.144-6.965-14.367-24.592-20.676-24.38-8.489-40.269-21.989-40.269-43.326 0-25.026 20.894-44.17 55.504-44.17 16.543 0 28.73 3.473 37.431 7.394l-7.394 26.774c-5.889-2.831-16.326-6.964-30.69-6.964-14.366 0-21.336 6.529-21.336 14.146 0 9.356 8.271 13.495 27.206 20.67 25.904 9.579 38.094 23.079 38.094 43.755 0 24.603-18.937 45.49-59.205 45.49-16.755 0-33.298-4.355-41.569-8.927l6.738-27.421zm162.594-16.107c-17.41-.217-30.896 3.916-30.896 16.761 0 8.489 5.646 12.622 13.045 12.622 8.277 0 15.019-5.44 17.201-12.188.426-1.741.649-3.7.649-5.663v-11.532zm3.922 50.282l-1.962-10.668h-.652c-6.958 8.491-17.85 13.059-30.472 13.059-21.549 0-34.394-15.671-34.394-32.651 0-27.641 24.814-40.915 62.469-40.703v-1.519c0-5.657-3.043-13.717-19.369-13.717-10.886 0-22.424 3.704-29.383 8.06l-6.1-21.332c7.408-4.139 21.994-9.364 41.363-9.364 35.478 0 46.792 20.905 46.792 45.931v37.005c0 10.221.435 20.018 1.519 25.898h-29.811zm43.317-72.483c0-13.277-.446-24.591-.878-33.953H522.1l1.52 14.584h.655c4.35-6.747 15.24-16.978 32.865-16.978 21.771 0 38.092 14.358 38.092 45.703v63.121h-33.086v-58.977c0-13.717-4.794-23.073-16.761-23.073-9.145 0-14.578 6.304-16.761 12.404-.866 1.954-1.302 5.223-1.302 8.266v61.379h-33.08V98.062zm120.147 72.483V88.484h-13.938V64.11h13.938v-4.145c0-12.839 3.916-26.985 13.485-35.694 8.277-7.829 19.812-10.66 29.391-10.66 7.4 0 13.057.87 17.631 2.177l-1.308 25.464c-2.831-.873-6.314-1.524-10.665-1.524-10.881 0-15.456 8.495-15.456 18.932v5.451h21.337v24.374h-21.117v82.062h-33.298zm87.494-53.33c0 18.285 7.612 31.997 21.762 31.997 12.845 0 21.121-12.842 21.121-31.997 0-15.886-6.1-31.991-21.121-31.991-15.886 0-21.762 16.322-21.762 31.991m77.054-1.085c0 38.962-27.646 56.806-56.159 56.806-31.127 0-55.069-20.459-55.069-54.852 0-34.388 22.638-56.374 56.806-56.374 32.656 0 54.422 22.418 54.422 54.42m9.358-16.977c0-15.68-.446-25.899-.875-35.049h28.51l1.096 19.587h.866c5.438-15.448 18.503-21.975 28.733-21.975 3.043 0 4.571 0 6.97.429v31.124c-2.398-.429-5.225-.863-8.93-.863-12.192 0-20.458 6.527-22.638 16.76-.435 2.171-.651 4.785-.651 7.393v53.986h-33.081V99.153zm141.686 10.007c0-1.742-.212-4.133-.435-5.869-1.959-8.932-9.142-16.326-19.369-16.326-15.019 0-22.853 13.485-22.853 30.25 0 18.067 8.918 29.381 22.635 29.381 9.573 0 17.189-6.529 19.157-15.885.652-2.394.864-4.785.864-7.617V109.16zm33.092-93.158v122.764c0 11.975.427 24.598.867 31.773h-29.388l-1.52-15.666h-.438c-6.738 11.968-19.586 18.062-33.304 18.062-25.244 0-45.482-21.549-45.482-54.635-.226-35.918 22.195-56.591 47.661-56.591 13.057 0 23.291 4.567 28.076 11.972h.435V16.002h33.093zm-681.507 179.44V218.1c0 8.578 3.81 12.211 8.918 12.211 5.683 0 9.315-3.75 9.315-12.211v-22.658h4.991v22.318c0 11.764-6.193 16.584-14.481 16.584-7.831 0-13.74-4.485-13.74-16.355v-22.547h4.997zm29.82 18.234c0-2.84-.06-5.177-.223-7.442h4.419l.289 4.54h.117c1.356-2.609 4.54-5.157 9.083-5.157 3.804 0 9.71 2.265 9.71 11.692v16.417h-5v-15.849c0-4.433-1.642-8.122-6.352-8.122-3.298 0-5.852 2.331-6.713 5.114-.223.62-.341 1.479-.341 2.324v16.532h-4.991v-20.049zm48.947 3.75c0-.63-.06-1.484-.232-2.103-.741-3.187-3.461-5.792-7.21-5.792-5.168 0-8.229 4.545-8.229 10.619 0 5.564 2.717 10.16 8.111 10.16 3.354 0 6.424-2.22 7.328-5.958.172-.681.232-1.37.232-2.159v-4.767zm4.99-24.025v33.227c0 2.436.06 5.217.237 7.093h-4.499l-.223-4.769h-.105c-1.536 3.061-4.888 5.393-9.373 5.393-6.653 0-11.764-5.621-11.764-13.97-.051-9.149 5.629-14.765 12.331-14.765 4.201 0 7.039 1.988 8.289 4.202h.118v-16.411h4.989zm24.408 23.908c.066-3.182-1.295-8.12-6.921-8.12-5.051 0-7.271 4.656-7.665 8.12h14.586zm-14.647 3.578c.118 6.758 4.434 9.544 9.431 9.544 3.575 0 5.734-.626 7.608-1.425l.846 3.578c-1.753.795-4.768 1.702-9.135 1.702-8.466 0-13.517-5.563-13.517-13.853 0-8.297 4.885-14.83 12.893-14.83 8.97 0 11.355 7.9 11.355 12.951 0 1.024-.112 1.819-.172 2.332h-19.309zm24.315-6.076c0-3.237-.06-6.023-.234-8.577h4.373l.177 5.392h.218c1.258-3.684 4.262-6.021 7.617-6.021.566 0 .966.063 1.413.176v4.716a7.182 7.182 0 0 0-1.694-.177c-3.526 0-6.023 2.674-6.707 6.424-.112.678-.229 1.479-.229 2.324v14.647h-4.934v-18.904zm35.472 2.266c0-.847-.055-1.587-.283-2.271-.901-2.892-3.35-5.274-6.982-5.274-4.776 0-8.18 4.023-8.18 10.391 0 5.392 2.72 9.883 8.12 9.883 3.066 0 5.846-1.938 6.93-5.109.281-.86.395-1.824.395-2.674v-4.946zm5.173-10.843a112.959 112.959 0 0 0-.237 7.554v15.96c0 6.304-1.247 10.167-3.913 12.55-2.668 2.498-6.536 3.293-9.99 3.293-3.298 0-6.936-.795-9.15-2.274l1.247-3.796c1.819 1.13 4.662 2.148 8.065 2.148 5.111 0 8.861-2.66 8.861-9.596v-3.066h-.112c-1.542 2.555-4.488 4.602-8.75 4.602-6.81 0-11.692-5.791-11.692-13.404 0-9.312 6.063-14.594 12.376-14.594 4.768 0 7.382 2.5 8.577 4.769h.112l.223-4.145h4.383zm6.477 8.577c0-3.237-.055-6.023-.224-8.577h4.374l.171 5.392h.223c1.247-3.684 4.262-6.021 7.614-6.021.563 0 .958.063 1.418.176v4.716a7.386 7.386 0 0 0-1.708-.177c-3.521 0-6.018 2.674-6.701 6.424-.117.678-.229 1.479-.229 2.324v14.647h-4.939v-18.904zm19.969 5.224c0 6.021 3.467 10.56 8.343 10.56 4.773 0 8.352-4.485 8.352-10.672 0-4.665-2.331-10.562-8.24-10.562-5.901-.001-8.455 5.45-8.455 10.674m21.806-.284c0 10.173-7.042 14.593-13.683 14.593-7.439 0-13.174-5.452-13.174-14.141 0-9.202 6.015-14.594 13.623-14.594 7.888.001 13.234 5.735 13.234 14.142m27.958 6.47c0 2.842.055 5.346.217 7.499h-4.422l-.285-4.491h-.12c-1.293 2.221-4.202 5.115-9.078 5.115-4.313 0-9.49-2.389-9.49-12.039v-16.071h5.005v15.22c0 5.225 1.591 8.746 6.135 8.746 3.344 0 5.675-2.332 6.587-4.545a7.441 7.441 0 0 0 .452-2.555v-16.866h5v19.987zm6.703-12.545c0-2.84-.057-5.177-.223-7.442h4.428l.295 4.54h.106c1.361-2.609 4.538-5.157 9.083-5.157 3.804 0 9.708 2.265 9.708 11.692v16.417h-4.991v-15.849c0-4.433-1.647-8.122-6.357-8.122-3.299 0-5.853 2.331-6.714 5.114-.217.62-.329 1.479-.329 2.324v16.532h-5.006v-20.049zm48.949 3.75c0-.63-.06-1.484-.226-2.103-.74-3.187-3.466-5.792-7.21-5.792-5.174 0-8.243 4.545-8.243 10.619 0 5.564 2.73 10.16 8.132 10.16 3.344 0 6.414-2.22 7.321-5.958.166-.681.226-1.37.226-2.159v-4.767zm5.003-24.025v33.227c0 2.436.049 5.217.224 7.093h-4.485l-.234-4.769h-.111c-1.528 3.061-4.882 5.393-9.362 5.393-6.646 0-11.763-5.621-11.763-13.97-.052-9.149 5.622-14.765 12.321-14.765 4.205 0 7.041 1.988 8.294 4.202h.114v-16.411h5.002zm25.433 19.986h5.057c5.282 0 8.633-2.892 8.633-7.265 0-4.94-3.572-7.102-8.802-7.159-2.391 0-4.093.229-4.888.457v13.967zm-4.94-17.432c2.502-.513 6.069-.796 9.484-.796 5.282 0 8.689.968 11.08 3.121 1.931 1.707 3.003 4.316 3.003 7.271 0 5.052-3.181 8.411-7.213 9.773v.172c2.957 1.018 4.717 3.743 5.623 7.722 1.246 5.335 2.162 9.027 2.954 10.503h-5.113c-.618-1.075-1.473-4.374-2.549-9.142-1.145-5.282-3.186-7.27-7.674-7.441h-4.656v16.583h-4.939v-37.766zm46.631 21.354c.066-3.182-1.292-8.12-6.921-8.12-5.051 0-7.271 4.656-7.665 8.12h14.586zm-14.645 3.578c.117 6.758 4.428 9.544 9.433 9.544 3.572 0 5.734-.626 7.605-1.425l.85 3.578c-1.757.795-4.771 1.702-9.139 1.702-8.466 0-13.518-5.563-13.518-13.853 0-8.297 4.886-14.83 12.895-14.83 8.972 0 11.354 7.9 11.354 12.951 0 1.024-.112 1.819-.169 2.332h-19.311zm23.444 7.725c1.482.964 4.09 1.988 6.587 1.988 3.632 0 5.34-1.825 5.34-4.09 0-2.386-1.425-3.693-5.111-5.057-4.944-1.762-7.275-4.488-7.275-7.783 0-4.422 3.58-8.061 9.489-8.061 2.78 0 5.229.796 6.759 1.708l-1.247 3.627a10.763 10.763 0 0 0-5.628-1.591c-2.955 0-4.605 1.708-4.605 3.756 0 2.266 1.65 3.292 5.229 4.656 4.781 1.813 7.219 4.199 7.219 8.295 0 4.822-3.744 8.226-10.279 8.226-3.016 0-5.795-.741-7.726-1.874l1.248-3.8zm39.367-11.303c.063-3.182-1.301-8.12-6.931-8.12-5.05 0-7.264 4.656-7.659 8.12h14.59zm-14.647 3.578c.111 6.758 4.42 9.544 9.425 9.544 3.581 0 5.734-.626 7.608-1.425l.852 3.578c-1.761.795-4.767 1.702-9.144 1.702-8.458 0-13.518-5.563-13.518-13.853 0-8.297 4.888-14.83 12.895-14.83 8.972 0 11.363 7.9 11.363 12.951 0 1.024-.121 1.819-.178 2.332h-19.303zm38.601-1.195c-5.451-.112-11.644.854-11.644 6.194 0 3.237 2.164 4.768 4.722 4.768 3.567 0 5.838-2.273 6.639-4.599.165-.512.283-1.076.283-1.588v-4.775zm.736 14.028l-.392-3.46h-.179c-1.529 2.152-4.481 4.084-8.399 4.084-5.566 0-8.409-3.919-8.409-7.895 0-6.642 5.906-10.279 16.525-10.22v-.571c0-2.271-.617-6.358-6.24-6.358-2.555 0-5.229.795-7.164 2.044l-1.137-3.291c2.271-1.484 5.569-2.443 9.033-2.443 8.412 0 10.448 5.734 10.448 11.244v10.279c0 2.391.111 4.717.461 6.587h-4.547zm10.545-18.909c0-3.237-.061-6.023-.224-8.577h4.368l.177 5.392h.224c1.247-3.684 4.262-6.021 7.608-6.021.568 0 .963.063 1.424.176v4.716a7.389 7.389 0 0 0-1.707-.177c-3.521 0-6.018 2.674-6.701 6.424-.118.678-.229 1.479-.229 2.324v14.647h-4.939v-18.904zm36.336 17.885c-1.308.684-4.202 1.597-7.889 1.597-8.289 0-13.688-5.63-13.688-14.03 0-8.459 5.788-14.595 14.761-14.595 2.954 0 5.574.738 6.928 1.419l-1.136 3.864c-1.189-.685-3.061-1.308-5.792-1.308-6.301 0-9.711 4.656-9.711 10.392 0 6.357 4.089 10.276 9.54 10.276 2.842 0 4.716-.735 6.129-1.365l.858 3.75zm4.081-39.295h4.997v17.148h.116c.79-1.412 2.037-2.668 3.582-3.521 1.47-.854 3.237-1.419 5.102-1.419 3.692 0 9.6 2.271 9.6 11.756v16.354h-5v-15.782c0-4.434-1.647-8.183-6.358-8.183-3.237 0-5.791 2.271-6.701 4.996-.286.684-.34 1.419-.34 2.392v16.577h-4.997v-40.318zm43.723 2.041h20.615v4.144h-15.676v12.723h14.49v4.093h-14.49v17.324h-4.939zm38.094 24.25c-5.451-.112-11.639.854-11.639 6.194 0 3.237 2.154 4.768 4.712 4.768 3.578 0 5.853-2.273 6.641-4.599a5.07 5.07 0 0 0 .286-1.588v-4.775zm.738 14.028l-.401-3.46h-.165c-1.542 2.152-4.485 4.084-8.406 4.084-5.563 0-8.405-3.919-8.405-7.895 0-6.642 5.909-10.279 16.528-10.22v-.571c0-2.271-.623-6.358-6.252-6.358-2.555 0-5.226.795-7.159 2.044l-1.13-3.291c2.273-1.484 5.569-2.443 9.031-2.443 8.407 0 10.443 5.734 10.443 11.244v10.279c0 2.391.117 4.717.461 6.587h-4.545zm30.301-1.024c-1.308.684-4.199 1.597-7.894 1.597-8.29 0-13.689-5.63-13.689-14.03 0-8.459 5.801-14.595 14.764-14.595 2.957 0 5.571.738 6.931 1.419l-1.13 3.864c-1.201-.685-3.066-1.308-5.801-1.308-6.298 0-9.707 4.656-9.707 10.392 0 6.357 4.088 10.276 9.539 10.276 2.849 0 4.716-.735 6.135-1.365l.852 3.75zm4.093-26.462h4.99v27.486h-4.99v-27.486zm5.556-7.726c.063 1.708-1.189 3.069-3.174 3.069-1.766 0-3.009-1.361-3.009-3.069 0-1.753 1.301-3.125 3.12-3.125 1.874 0 3.063 1.372 3.063 3.125m6.036-5.113h4.997v40.325h-4.997zm11.649 12.839h4.996v27.486h-4.996v-27.486zm5.563-7.726c.055 1.708-1.194 3.069-3.186 3.069-1.753 0-3-1.361-3-3.069 0-1.753 1.307-3.125 3.12-3.125 1.871 0 3.066 1.372 3.066 3.125m12.265-.168v7.899h7.145v3.804h-7.145v14.816c0 3.409.963 5.334 3.743 5.334 1.307 0 2.271-.158 2.897-.335l.224 3.749c-.962.396-2.503.685-4.434.685-2.325 0-4.198-.735-5.399-2.108-1.414-1.473-1.926-3.915-1.926-7.153v-14.987h-4.256v-3.804h4.256v-6.587l4.895-1.313zm14.881 7.894l6.023 16.243c.617 1.818 1.302 3.973 1.759 5.623h.106c.518-1.65 1.084-3.753 1.768-5.734l5.451-16.132h5.285l-7.499 19.592c-3.578 9.433-6.019 14.253-9.424 17.216-2.445 2.147-4.895 3.006-6.141 3.232l-1.251-4.205c1.251-.4 2.897-1.195 4.377-2.442 1.358-1.078 3.066-3.009 4.201-5.563.231-.512.395-.912.395-1.195s-.111-.678-.335-1.307l-10.167-25.327h5.452z" fill="#044A2C"/><defs><path id="a" d="M61.614 19.318l.002-.003c-.002 0-.002 0-.002.003m.003-.003c.003 0 .005-.002.011-.005l-.011.005m.206-.137c-.062.038-.124.082-.185.124.07-.045.129-.086.185-.124.032-.022.062-.042.096-.062-.032.018-.061.04-.096.062m.172-.115c.083-.055.161-.107.214-.146l-.225.154a.61.61 0 0 0-.064.044l.027-.021c-.137.094-.276.185-.319.214l.011-.008-.011.008c-.005.003-.011.005-.013.008l82.849 124.27a21.361 21.361 0 0 1 10.604-2.81c11.81 0 21.389 9.578 21.389 21.391 0 11.813-9.579 21.381-21.389 21.381-11.812 0-21.389-9.567-21.389-21.381 0-4.018 1.109-7.778 3.035-10.987L28.287 49.117C12.406 69.681 2.956 95.461 2.956 123.45c0 67.225 54.493 121.719 121.724 121.719 67.222 0 121.718-54.494 121.718-121.719 0-67.224-54.496-121.725-121.718-121.725-24.896 0-43.467 4.55-62.685 17.338"/></defs><clipPath id="c"><use xlink:href="#a" overflow="visible"/></clipPath><defs><filter id="b" filterUnits="userSpaceOnUse" x="-116.107" y="-117.336" width="481.565" height="481.565"><feColorMatrix values="1 0 0 0 0 0 1 0 0 0 0 0 1 0 0 0 0 0 1 0"/></filter></defs><mask maskUnits="userSpaceOnUse" x="-116.107" y="-117.336" width="481.565" height="481.565" id="g"><g filter="url(#b)"><defs><path id="d" transform="rotate(39.001 124.681 123.45)" d="M-46.522-47.751h342.397v342.397H-46.522z"/></defs><clipPath id="e" clip-path="url(#c)"><use xlink:href="#d" overflow="visible"/></clipPath><linearGradient id="f" gradientUnits="userSpaceOnUse" x1="90.537" y1="434.45" x2="93.279" y2="434.45" gradientTransform="scale(-88.7427 88.7427) rotate(-39 -566.208 349.672)"><stop offset="0" stop-color="#fff"/><stop offset=".243" stop-color="#f9f9f9"/><stop offset=".561" stop-color="#e9e9e9"/><stop offset=".919" stop-color="#cecece"/><stop offset="1" stop-color="#c7c7c7"/></linearGradient><path clip-path="url(#e)" fill="url(#f)" d="M174.737 599.753L-351.631 173.51 74.613-352.861 600.982 73.384z"/></g></mask><linearGradient id="h" gradientUnits="userSpaceOnUse" x1="90.535" y1="434.45" x2="93.278" y2="434.45" gradientTransform="scale(-88.7427 88.7427) rotate(-39 -566.208 349.672)"><stop offset="0" stop-color="#004a2c"/><stop offset=".095" stop-color="#064e31"/><stop offset=".22" stop-color="#165a3e"/><stop offset=".36" stop-color="#316d55"/><stop offset=".513" stop-color="#578874"/><stop offset=".676" stop-color="#88aa9c"/><stop offset=".843" stop-color="#c2d4cc"/><stop offset="1" stop-color="#fff"/></linearGradient><path clip-path="url(#c)" mask="url(#g)" fill="url(#h)" d="M149.984 364.229l-266.091-215.475 215.476-266.09L365.458 98.14z"/><defs><path id="i" d="M80.546 47.715l63.917 95.873a21.361 21.361 0 0 1 10.604-2.81c11.81 0 21.389 9.578 21.389 21.391 0 11.813-9.579 21.381-21.389 21.381-11.812 0-21.389-9.567-21.389-21.381 0-4.018 1.109-7.778 3.035-10.987L52.826 72.217C39.818 88.976 32.05 110.003 32.05 132.852c0 54.673 44.326 98.998 99.007 98.998 54.67 0 98.993-44.325 98.993-98.998 0-54.672-44.323-98.996-98.993-98.996-18.461 0-35.722 5.065-50.511 13.859"/></defs><clipPath id="k"><use xlink:href="#i" overflow="visible"/></clipPath><defs><filter id="j" filterUnits="userSpaceOnUse" x="-64.784" y="-62.981" width="391.668" height="391.668"><feColorMatrix values="1 0 0 0 0 0 1 0 0 0 0 0 1 0 0 0 0 0 1 0"/></filter></defs><mask maskUnits="userSpaceOnUse" x="-64.784" y="-62.981" width="391.668" height="391.668" id="o"><g filter="url(#j)"><defs><path id="l" transform="rotate(38.997 131.051 132.86)" d="M-8.186-6.383h278.473v278.472H-8.186z"/></defs><clipPath id="m" clip-path="url(#k)"><use xlink:href="#l" overflow="visible"/></clipPath><linearGradient id="n" gradientUnits="userSpaceOnUse" x1="91.179" y1="435.272" x2="93.922" y2="435.272" gradientTransform="scale(-72.169 72.169) rotate(-39 -566.618 351.801)"><stop offset="0" stop-color="#fff"/><stop offset=".243" stop-color="#f9f9f9"/><stop offset=".561" stop-color="#e9e9e9"/><stop offset=".919" stop-color="#cecece"/><stop offset="1" stop-color="#c7c7c7"/></linearGradient><path clip-path="url(#m)" fill="url(#n)" d="M171.766 520.234l-428.098-346.665L90.334-254.529 518.431 92.138z"/></g></mask><linearGradient id="p" gradientUnits="userSpaceOnUse" x1="91.178" y1="435.256" x2="93.921" y2="435.256" gradientTransform="scale(-72.1692 72.1692) rotate(-39 -566.597 351.79)"><stop offset="0" stop-color="#004a2c"/><stop offset=".095" stop-color="#064e31"/><stop offset=".22" stop-color="#165a3e"/><stop offset=".36" stop-color="#316d55"/><stop offset=".513" stop-color="#578874"/><stop offset=".676" stop-color="#88aa9c"/><stop offset=".843" stop-color="#c2d4cc"/><stop offset="1" stop-color="#fff"/></linearGradient><path clip-path="url(#k)" mask="url(#o)" fill="url(#p)" d="M151.634 328.687l-216.418-175.25 175.25-216.418 216.418 175.252z"/><defs><path id="q" d="M107.156 87.63l37.308 55.958a21.361 21.361 0 0 1 10.604-2.81c11.81 0 21.389 9.578 21.389 21.391 0 11.813-9.579 21.381-21.389 21.381-11.812 0-21.389-9.567-21.389-21.381 0-4.018 1.109-7.778 3.035-10.987l-49.272-46.378c-9.228 11.759-14.741 26.568-14.741 42.676 0 38.229 30.983 69.221 69.215 69.221 38.226 0 69.218-30.991 69.218-69.221 0-38.23-30.992-69.219-69.218-69.219a68.877 68.877 0 0 0-34.76 9.369"/></defs><clipPath id="s"><use xlink:href="#q" overflow="visible"/></clipPath><defs><filter id="r" filterUnits="userSpaceOnUse" x="4.994" y="10.556" width="273.847" height="273.848"><feColorMatrix values="1 0 0 0 0 0 1 0 0 0 0 0 1 0 0 0 0 0 1 0"/></filter></defs><mask maskUnits="userSpaceOnUse" x="4.994" y="10.556" width="273.847" height="273.848" id="w"><g filter="url(#r)"><defs><path id="t" transform="rotate(39.001 141.921 147.483)" d="M44.563 50.125h194.705v194.709H44.563z"/></defs><clipPath id="u" clip-path="url(#s)"><use xlink:href="#t" overflow="visible"/></clipPath><linearGradient id="v" gradientUnits="userSpaceOnUse" x1="92.627" y1="437.157" x2="95.37" y2="437.157" gradientTransform="scale(-50.4627 50.4627) rotate(-39 -567.528 356.73)"><stop offset="0" stop-color="#fff"/><stop offset=".243" stop-color="#f9f9f9"/><stop offset=".561" stop-color="#e9e9e9"/><stop offset=".919" stop-color="#cecece"/><stop offset="1" stop-color="#c7c7c7"/></linearGradient><path clip-path="url(#u)" fill="url(#v)" d="M170.387 418.336L-128.94 175.948l242.388-299.326 299.328 242.389z"/></g></mask><linearGradient id="x" gradientUnits="userSpaceOnUse" x1="92.627" y1="437.157" x2="95.37" y2="437.157" gradientTransform="scale(-50.4627 50.4627) rotate(-39 -567.528 356.73)"><stop offset="0" stop-color="#004a2c"/><stop offset=".095" stop-color="#064e31"/><stop offset=".22" stop-color="#165a3e"/><stop offset=".36" stop-color="#316d55"/><stop offset=".513" stop-color="#578874"/><stop offset=".676" stop-color="#88aa9c"/><stop offset=".843" stop-color="#c2d4cc"/><stop offset="1" stop-color="#fff"/></linearGradient><path clip-path="url(#s)" mask="url(#w)" fill="url(#x)" d="M156.308 284.404L4.994 161.872 127.526 10.556l151.315 122.531z"/><defs><path id="y" d="M132.6 125.797l11.864 17.79a21.361 21.361 0 0 1 10.604-2.81c11.81 0 21.389 9.578 21.389 21.391 0 11.813-9.579 21.381-21.389 21.381-11.812 0-21.389-9.567-21.389-21.381 0-4.018 1.109-7.778 3.035-10.987l-15.801-14.871a41.609 41.609 0 0 0-8.513 25.274c0 23.079 18.71 41.792 41.792 41.792 23.084 0 41.794-18.713 41.794-41.792 0-23.084-18.71-41.791-41.794-41.791-7.9 0-15.287 2.191-21.592 6.004"/></defs><clipPath id="A"><use xlink:href="#y" overflow="visible"/></clipPath><defs><filter id="z" filterUnits="userSpaceOnUse" x="71.522" y="78.914" width="165.342" height="165.343"><feColorMatrix values="1 0 0 0 0 0 1 0 0 0 0 0 1 0 0 0 0 0 1 0"/></filter></defs><mask maskUnits="userSpaceOnUse" x="71.522" y="78.914" width="165.342" height="165.343" id="E"><g filter="url(#z)"><defs><path id="B" transform="rotate(39.001 154.2 161.589)" d="M95.414 102.805h117.561v117.56H95.414z"/></defs><clipPath id="C" clip-path="url(#A)"><use xlink:href="#B" overflow="visible"/></clipPath><linearGradient id="D" gradientUnits="userSpaceOnUse" x1="95.719" y1="441.266" x2="98.462" y2="441.266" gradientTransform="scale(-30.465 30.465) rotate(-39 -569.544 367.518)"><stop offset="0" stop-color="#fff"/><stop offset=".243" stop-color="#f9f9f9"/><stop offset=".561" stop-color="#e9e9e9"/><stop offset=".919" stop-color="#cecece"/><stop offset="1" stop-color="#c7c7c7"/></linearGradient><path clip-path="url(#C)" fill="url(#D)" d="M171.38 325.122L-9.345 178.774 137.003-1.953l180.728 146.349z"/></g></mask><linearGradient id="F" gradientUnits="userSpaceOnUse" x1="95.719" y1="441.266" x2="98.462" y2="441.266" gradientTransform="scale(-30.465 30.465) rotate(-39 -569.544 367.518)"><stop offset="0" stop-color="#004a2c"/><stop offset=".095" stop-color="#064e31"/><stop offset=".22" stop-color="#165a3e"/><stop offset=".36" stop-color="#316d55"/><stop offset=".513" stop-color="#578874"/><stop offset=".676" stop-color="#88aa9c"/><stop offset=".843" stop-color="#c2d4cc"/><stop offset="1" stop-color="#fff"/></linearGradient><path clip-path="url(#A)" mask="url(#E)" fill="url(#F)" d="M162.881 244.257l-91.359-73.983 73.983-91.36 91.359 73.981z"/></svg>