<svg height="300" width="300" xmlns="http://www.w3.org/2000/svg" viewBox="0 0 100 100">
  <g fill-rule="evenodd">
    <path fill="currentColor" style="text-indent:0;text-transform:none;block-progression:tb" d="M49.999646 42.79987c-3.849803 0-6.834331 3.34559-6.834331 7.22055 0 3.8473 2.984528 7.1797 6.834331 7.1797 3.82748 0 6.833976-3.3138 6.833976-7.1797 0-3.89329-3.006496-7.22055-6.833976-7.22055zM12.634411 42.79987c-3.8498034 0-6.8343309 3.34559-6.8343309 7.22055 0 3.8473 2.9845275 7.1797 6.8343309 7.1797 3.82748 0 6.833976-3.3139 6.833976-7.1797 0-3.89313-3.006496-7.22055-6.833976-7.22055zM87.365944 42.79987c-3.849803 0-6.83433 3.34559-6.83433 7.22055 0 3.8473 2.984527 7.1797 6.83433 7.1797 3.82748 0 6.833976-3.3138 6.833976-7.1797 0-3.89329-3.006496-7.22055-6.833976-7.22055z" overflow="visible"/>
  </g>
</svg>
