<svg height="300" width="300" fill="currentColor" xmlns="http://www.w3.org/2000/svg" viewBox="0 0 512 512">
	<path d="M43.3 167h345.1c9.4 0 16.6-7.3 16.6-16.7V115h2.4c24.4 0 44.3 20.1 44.3 44.5S431.8 204 407.4 204H205.9c-9.4 0-16.9 7.1-16.9 16.5V289h-26.3c-9.4 0-16.7 7.4-16.7 16.8v160.4c0 9.4 7.3 16.9 16.7 16.9h86.4c9.4 0 16.9-7.5 16.9-16.9V305.8c0-9.4-7.5-16.8-16.9-16.8H223v-51h184.4c43.1 0 78.3-35.4 78.3-78.5S450.6 81 407.4 81H405V45.9c0-9.4-7.2-16.9-16.6-16.9H43.3C33.9 29 26 36.5 26 45.9v104.5c0 9.3 7.9 16.6 17.3 16.6zM232 449h-52V323h52v126zM60 63h311v70H60V63z"/>
</svg>