<svg viewBox="0 0 28 28" xmlns="http://www.w3.org/2000/svg"><path d="M27.436,6.577C27.641,7.5 27.846,8.936 27.949,10.782L28,13.346L27.949,15.91C27.846,17.859 27.641,19.244 27.436,20.167C27.231,20.782 26.923,21.295 26.513,21.705C26.051,22.167 25.539,22.474 24.923,22.628C24,22.885 21.949,23.039 18.667,23.141L14,23.192L9.333,23.141C6.051,23.039 3.949,22.885 3.077,22.628C2.462,22.474 1.897,22.167 1.487,21.705C1.026,21.295 0.718,20.782 0.564,20.167C0.308,19.244 0.154,17.859 0.051,15.91L0,13.346C0,12.628 0,11.756 0.051,10.782C0.154,8.936 0.308,7.5 0.564,6.577C0.718,5.962 1.026,5.449 1.487,4.987C1.897,4.577 2.462,4.269 3.077,4.064C3.949,3.859 6.051,3.654 9.333,3.551L14,3.5L18.667,3.551C21.949,3.654 24,3.859 24.923,4.064C25.539,4.269 26.051,4.577 26.513,4.987C26.923,5.449 27.231,5.962 27.436,6.577ZM11.128,17.551L18.462,13.346L11.128,9.192L11.128,17.551Z" /></svg>
