<svg viewBox="0 0 28 28" xmlns="http://www.w3.org/2000/svg"><path d="M8.229,17.517L0.208,17.517L0.208,4.92L12.227,4.92L12.227,6.42L1.708,6.42L1.708,16.017L7.258,16.017L5.267,12.945L6.526,12.129C6.526,12.129 7.73,13.987 9.045,16.017L12.227,16.017L12.227,17.517L10.017,17.517C11.267,19.447 12.374,21.156 12.374,21.156C16.834,17.358 23.537,17.566 27.75,21.78L26.69,22.841C22.843,18.994 16.606,18.994 12.759,22.841L12.103,23.496L8.229,17.517ZM19.724,4.92C22.89,4.92 25.461,7.491 25.461,10.657C25.461,13.823 22.89,16.393 19.724,16.393C16.558,16.393 13.988,13.823 13.988,10.657C13.988,7.491 16.558,4.92 19.724,4.92ZM19.724,6.42C17.386,6.42 15.488,8.319 15.488,10.657C15.488,12.995 17.386,14.893 19.724,14.893C22.063,14.893 23.961,12.995 23.961,10.657C23.961,8.319 22.063,6.42 19.724,6.42Z" /></svg>
