<svg viewBox="0 0 28 28" xmlns="http://www.w3.org/2000/svg"><path d="M14,3.315C19.898,3.315 24.686,8.103 24.686,14C24.686,19.897 19.898,24.685 14,24.685C8.103,24.685 3.315,19.897 3.315,14C3.315,8.103 8.103,3.315 14,3.315ZM14,4.815C8.93,4.815 4.815,8.93 4.815,14C4.815,19.07 8.93,23.185 14,23.185C19.07,23.185 23.186,19.07 23.186,14C23.186,8.93 19.07,4.815 14,4.815ZM14.75,19.419L13.25,19.419L13.25,13.097L14.75,13.097L14.75,19.419ZM14,11.29C13.252,11.29 12.645,10.683 12.645,9.935C12.645,9.188 13.252,8.581 14,8.581C14.748,8.581 15.355,9.188 15.355,9.935C15.355,10.683 14.748,11.29 14,11.29Z" /></svg>
