<svg viewBox="0 0 28 28" xmlns="http://www.w3.org/2000/svg"><path d="M20.972,10.139L24.083,10.139L24.083,21.889C24.083,23.96 22.404,25.639 20.333,25.639L7.667,25.639C5.596,25.639 3.917,23.96 3.917,21.889L3.917,10.139L7.028,10.139L7.028,9.333C7.028,5.483 10.149,2.361 14,2.361C17.851,2.361 20.972,5.483 20.972,9.333L20.972,10.139ZM7.028,11.639L5.417,11.639L5.417,21.889C5.417,23.132 6.424,24.139 7.667,24.139L20.333,24.139C21.576,24.139 22.583,23.132 22.583,21.889L22.583,11.639L7.028,11.639ZM19.472,10.139L19.472,9.333C19.472,6.311 17.022,3.861 14,3.861C10.978,3.861 8.528,6.311 8.528,9.333L8.528,10.139L19.472,10.139ZM9.333,16.306L9.333,14.806L18.667,14.806L18.667,16.306L9.333,16.306Z" /></svg>
