<svg viewBox="0 0 28 28" xmlns="http://www.w3.org/2000/svg"><path d="M7.14,6.613C10.508,1.917 17.492,1.917 20.86,6.613C22.97,9.554 22.97,13.512 20.86,16.453L14,26.02L7.14,16.453C5.03,13.512 5.03,9.554 7.14,6.613ZM8.358,7.487C6.624,9.906 6.624,13.161 8.358,15.579L14,23.446L19.642,15.579C21.376,13.161 21.376,9.906 19.642,7.487C16.872,3.625 11.128,3.625 8.358,7.487ZM14,9.333C14.859,9.333 15.556,10.03 15.556,10.889C15.556,11.747 14.859,12.444 14,12.444C13.142,12.444 12.445,11.747 12.445,10.889C12.445,10.03 13.142,9.333 14,9.333Z" /></svg>
