<svg viewBox="0 0 28 28" xmlns="http://www.w3.org/2000/svg"><path d="M2.406,5.867C5.179,3.094 9.676,3.094 12.449,5.867L13.844,7.262L15.239,5.867C18.012,3.093 22.509,3.093 25.282,5.867C28.056,8.64 28.056,13.137 25.282,15.91L14.374,26.818L13.844,27.348L13.314,26.818L2.406,15.911C-0.368,13.137 -0.368,8.641 2.406,5.867ZM3.466,14.85L13.844,25.227L24.222,14.849C26.409,12.662 26.409,9.115 24.222,6.927C22.034,4.74 18.487,4.74 16.299,6.927L14.374,8.853L13.844,9.383L13.313,8.853L11.388,6.928C9.201,4.74 5.654,4.74 3.466,6.928C1.279,9.115 1.279,12.662 3.466,14.85Z" /></svg>
