<svg viewBox="0 0 28 28" xmlns="http://www.w3.org/2000/svg"><path d="M9.346,15.341C8.78,17.094 7.134,18.363 5.194,18.363C2.786,18.363 0.831,16.408 0.831,14C0.831,11.592 2.786,9.637 5.194,9.637C7.134,9.637 8.78,10.906 9.346,12.659L18.819,7.19C18.578,6.649 18.444,6.05 18.444,5.419C18.444,3.011 20.399,1.056 22.807,1.056C25.214,1.056 27.169,3.011 27.169,5.419C27.169,7.827 25.214,9.782 22.807,9.782C21.569,9.782 20.452,9.266 19.658,8.438L10.024,14L19.658,19.562C20.452,18.734 21.569,18.218 22.807,18.218C25.214,18.218 27.169,20.173 27.169,22.581C27.169,24.989 25.214,26.944 22.807,26.944C20.399,26.944 18.444,24.989 18.444,22.581C18.444,21.95 18.578,21.351 18.819,20.81L9.346,15.341ZM22.807,19.718C21.226,19.718 19.944,21.001 19.944,22.581C19.944,24.161 21.226,25.444 22.807,25.444C24.387,25.444 25.669,24.161 25.669,22.581C25.669,21.001 24.387,19.718 22.807,19.718ZM5.194,11.137C3.613,11.137 2.331,12.42 2.331,14C2.331,15.58 3.613,16.863 5.194,16.863C6.774,16.863 8.056,15.58 8.056,14C8.056,12.42 6.774,11.137 5.194,11.137ZM22.807,2.556C21.226,2.556 19.944,3.839 19.944,5.419C19.944,6.999 21.226,8.282 22.807,8.282C24.387,8.282 25.669,6.999 25.669,5.419C25.669,3.839 24.387,2.556 22.807,2.556Z" /></svg>
