<svg viewBox="0 0 28 28" xmlns="http://www.w3.org/2000/svg"><path d="M25.639,7.111L25.639,20.889C25.639,23.511 23.511,25.639 20.889,25.639L7.111,25.639C4.49,25.639 2.361,23.511 2.361,20.889L2.361,7.111C2.361,4.49 4.49,2.361 7.111,2.361L20.889,2.361C23.511,2.361 25.639,4.49 25.639,7.111ZM24.139,7.111C24.139,5.317 22.683,3.861 20.889,3.861L7.111,3.861C5.317,3.861 3.861,5.317 3.861,7.111L3.861,20.889C3.861,22.683 5.317,24.139 7.111,24.139L20.889,24.139C22.683,24.139 24.139,22.683 24.139,20.889L24.139,7.111Z" /><path d="M14.75,19.419L13.25,19.419L13.25,13.097L14.75,13.097L14.75,19.419ZM14,11.29C13.252,11.29 12.645,10.683 12.645,9.935C12.645,9.188 13.252,8.581 14,8.581C14.748,8.581 15.355,9.188 15.355,9.935C15.355,10.683 14.748,11.29 14,11.29Z" /></svg>
