<svg viewBox="0 0 28 28" xmlns="http://www.w3.org/2000/svg"><path d="M3.917,2.361L17.681,2.361L23.565,8.245L23.565,25.639L3.917,25.639L3.917,2.361ZM16.621,3.861C14.499,3.861 5.417,3.861 5.417,3.861L5.417,24.139L22.065,24.139L22.065,9.306L16.621,9.306L16.621,3.861ZM21.004,7.806L18.121,4.922L18.121,7.806L21.004,7.806ZM8.129,13.843L8.129,12.343L18.968,12.343L18.968,13.843L8.129,13.843ZM8.129,17.472L8.129,15.972L18.968,15.972L18.968,17.472L8.129,17.472ZM8.129,21.102L8.129,19.602L15.355,19.602L15.355,21.102L8.129,21.102Z" /></svg>
