<svg viewBox="0 0 28 28" xmlns="http://www.w3.org/2000/svg"><path d="M7.624,17.453L1.287,20.078L0.713,18.692L7.049,16.068C6.854,15.413 6.75,14.719 6.75,14C6.75,13.282 6.854,12.588 7.049,11.933L3.15,10.318L3.724,8.932L7.623,10.547C8.293,9.312 9.312,8.294 10.547,7.624L7.922,1.287L9.308,0.713L11.932,7.049C12.588,6.855 13.282,6.75 14,6.75C14.718,6.75 15.412,6.855 16.068,7.049L17.682,3.151L19.068,3.725L17.453,7.624C18.688,8.294 19.706,9.313 20.377,10.548L26.713,7.923L27.287,9.309L20.951,11.933C21.145,12.588 21.25,13.282 21.25,14C21.25,14.718 21.145,15.412 20.951,16.068L24.85,17.682L24.276,19.068L20.376,17.453C19.706,18.688 18.688,19.706 17.453,20.377L20.077,26.713L18.692,27.287L16.067,20.951C15.412,21.146 14.718,21.25 14,21.25C13.282,21.25 12.588,21.146 11.933,20.951L10.318,24.849L8.932,24.275L10.547,20.377C9.312,19.707 8.294,18.688 7.624,17.453ZM14,19.75C17.175,19.75 19.75,17.176 19.75,14C19.75,10.825 17.175,8.25 14,8.25C10.824,8.25 8.25,10.825 8.25,14C8.25,17.176 10.824,19.75 14,19.75Z" /></svg>
