<svg viewBox="0 0 28 28" xmlns="http://www.w3.org/2000/svg"><path d="M9.869,10.977L13.981,2.468L17.119,2.468L17.344,2.74C17.344,2.74 17.995,3.526 18.398,4.505C18.703,5.244 18.85,6.082 18.615,6.817L17.509,10.977L22.521,10.977C24.992,10.977 26.787,13.325 26.14,15.709L24.053,23.393C23.609,25.026 22.127,26.16 20.434,26.16L10.113,26.16L5.873,23.333L5.873,10.977L9.869,10.977ZM7.373,12.476C7.373,12.476 7.373,22.531 7.373,22.531L10.567,24.66L20.434,24.66C21.45,24.66 22.339,23.98 22.605,23L24.692,15.316C25.081,13.885 24.003,12.477 22.521,12.477L15.559,12.477L17.176,6.39L17.184,6.368C17.321,5.957 17.183,5.492 17.012,5.077C16.824,4.622 16.568,4.22 16.392,3.968L14.922,3.968L10.81,12.477L7.373,12.476ZM0.806,10.713L2.306,10.713L2.306,24.903L0.806,24.903L0.806,10.713Z" /></svg>
