<svg viewBox="0 0 28 28" xmlns="http://www.w3.org/2000/svg"><path d="M14,2.361C20.424,2.361 25.639,7.576 25.639,14C25.639,20.424 20.424,25.639 14,25.639C7.576,25.639 2.361,20.424 2.361,14C2.361,7.576 7.576,2.361 14,2.361ZM14,3.861C8.404,3.861 3.861,8.404 3.861,14C3.861,19.596 8.404,24.139 14,24.139C19.596,24.139 24.139,19.596 24.139,14C24.139,8.404 19.596,3.861 14,3.861ZM14,9.333C16.576,9.333 18.667,11.424 18.667,14C18.667,16.576 16.576,18.667 14,18.667C11.424,18.667 9.333,16.576 9.333,14C9.333,11.424 11.424,9.333 14,9.333Z" /></svg>
