<svg viewBox="0 0 28 28" xmlns="http://www.w3.org/2000/svg"><path d="M2.396,2.708C2.396,2.708 2.397,2.708 2.398,2.708C2.522,2.686 2.536,2.684 2.41,2.705L7.865,1.573L8.464,1.449L11.493,8.482L8.712,10.548C9.588,12.448 10.803,14.149 12.26,15.609L12.264,15.614C13.726,17.125 15.429,18.29 17.315,19.162L19.016,16.877L19.374,16.397L26.488,19.542L25.144,25.483L25.144,25.488C25.144,25.587 25.128,25.654 25.116,25.699L25.115,25.703C25.021,26.041 24.839,26.179 24.681,26.232L24.619,26.282L24.536,26.32C24.521,26.327 24.486,26.344 24.421,26.363C24.366,26.379 24.252,26.41 24.026,26.41C19.939,26.41 16.153,25.388 12.652,23.344C9.256,21.352 6.584,18.634 4.535,15.216L4.532,15.212C2.492,11.708 1.472,7.918 1.472,3.827C1.472,3.735 1.477,3.538 1.651,3.211L1.713,3.094L1.811,3.006C1.898,2.927 1.965,2.881 2.019,2.848C2.128,2.781 2.235,2.735 2.396,2.708ZM23.737,24.908C23.957,23.936 24.753,20.415 24.753,20.415L19.862,18.253L18.519,20.058L17.791,21.035L16.686,20.524C14.633,19.575 12.781,18.305 11.19,16.66C9.615,15.081 8.299,13.236 7.35,11.176L6.84,10.07L7.817,9.344L9.646,7.986C9.646,7.986 7.571,3.166 7.571,3.166L2.974,4.12C3.022,7.826 3.971,11.267 5.826,14.453C7.74,17.644 10.236,20.188 13.41,22.049C16.594,23.909 20.033,24.861 23.737,24.908Z" /></svg>
