<svg viewBox="0 0 28 28" xmlns="http://www.w3.org/2000/svg"><path d="M5.445,8.133C6.906,8.133 8.091,6.939 8.091,5.467C8.091,3.994 6.906,2.8 5.445,2.8C3.984,2.8 2.8,3.994 2.8,5.467C2.8,6.939 3.984,8.133 5.445,8.133ZM7.6,10.267L3.333,10.267C3.039,10.267 2.8,10.505 2.8,10.8L2.8,24.667C2.8,24.961 3.039,25.2 3.333,25.2L7.6,25.2C7.894,25.2 8.133,24.961 8.133,24.667L8.133,10.8C8.133,10.505 7.894,10.267 7.6,10.267ZM23.6,25.2L20.4,25.2C20.259,25.2 20.123,25.144 20.023,25.044C19.923,24.944 19.867,24.808 19.867,24.667L19.867,16.667C19.867,15.959 19.586,15.281 19.086,14.781C18.586,14.281 17.907,14 17.2,14C16.493,14 15.815,14.281 15.314,14.781C14.814,15.281 14.533,15.959 14.533,16.667L14.533,24.667C14.533,24.808 14.477,24.944 14.377,25.044C14.277,25.144 14.141,25.2 14,25.2L10.8,25.2C10.659,25.2 10.523,25.144 10.423,25.044C10.323,24.944 10.267,24.808 10.267,24.667L10.267,10.8C10.267,10.659 10.323,10.523 10.423,10.423C10.523,10.323 10.659,10.267 10.8,10.267L14,10.267C14.141,10.267 14.277,10.323 14.377,10.423C14.477,10.523 14.533,10.659 14.533,10.8C14.533,10.889 14.56,10.977 14.611,11.05C14.661,11.124 14.733,11.18 14.817,11.211C14.901,11.243 14.992,11.248 15.079,11.226C15.165,11.204 15.243,11.156 15.301,11.088C15.739,10.639 16.266,10.286 16.849,10.053C17.431,9.819 18.056,9.71 18.683,9.733C21.861,9.733 24.133,11.685 24.133,15.707L24.133,24.667C24.133,24.808 24.077,24.944 23.977,25.044C23.877,25.144 23.741,25.2 23.6,25.2Z" /></svg>
