<svg viewBox="0 0 28 28" xmlns="http://www.w3.org/2000/svg"><path d="M3.556,2.361L24.444,2.361C25.963,2.361 27.194,3.592 27.194,5.111L27.194,15.111C27.194,16.63 25.963,17.861 24.444,17.861L19.507,17.861L12.247,25.409L11.024,26.68L10.957,24.918L10.688,17.861L3.556,17.861C2.037,17.861 0.806,16.63 0.806,15.111L0.806,5.111C0.806,3.592 2.037,2.361 3.556,2.361ZM2.306,5.111L2.306,15.111C2.306,15.802 2.865,16.361 3.556,16.361L12.132,16.361L12.389,23.098L18.647,16.591L18.869,16.361L24.444,16.361C25.135,16.361 25.694,15.802 25.694,15.111L25.694,5.111C25.694,4.421 25.135,3.861 24.444,3.861L3.556,3.861C2.865,3.861 2.306,4.421 2.306,5.111Z" /></svg>
