<svg viewBox="0 0 28 28" xmlns="http://www.w3.org/2000/svg"><path d="M21.524,6.476L24.686,6.476L24.686,24.234L3.315,24.234L3.315,6.476L7.379,6.476L7.379,2.71L8.879,2.71L8.879,6.476L20.024,6.476L20.024,2.71L21.524,2.71L21.524,6.476ZM23.186,7.976C23.186,7.976 4.815,7.976 4.815,7.976C4.815,7.976 4.815,22.734 4.815,22.734C4.815,22.734 23.186,22.734 23.186,22.734L23.186,7.976ZM10.889,12.896C10.889,13.644 10.282,14.251 9.534,14.251C8.786,14.251 8.179,13.644 8.179,12.896C8.179,12.148 8.786,11.541 9.534,11.541C10.282,11.541 10.889,12.148 10.889,12.896ZM10.889,17.563C10.889,18.31 10.282,18.918 9.534,18.918C8.786,18.918 8.179,18.31 8.179,17.563C8.179,16.815 8.786,16.208 9.534,16.208C10.282,16.208 10.889,16.815 10.889,17.563ZM15.556,12.896C15.556,13.644 14.949,14.251 14.201,14.251C13.453,14.251 12.846,13.644 12.846,12.896C12.846,12.148 13.453,11.541 14.201,11.541C14.949,11.541 15.556,12.148 15.556,12.896ZM15.556,17.563C15.556,18.31 14.949,18.918 14.201,18.918C13.453,18.918 12.846,18.31 12.846,17.563C12.846,16.815 13.453,16.208 14.201,16.208C14.949,16.208 15.556,16.815 15.556,17.563ZM20.222,12.896C20.222,13.644 19.615,14.251 18.867,14.251C18.119,14.251 17.512,13.644 17.512,12.896C17.512,12.148 18.119,11.541 18.867,11.541C19.615,11.541 20.222,12.148 20.222,12.896Z" /></svg>
