<svg viewBox="0 0 28 28" xmlns="http://www.w3.org/2000/svg"><path d="M10.201,16.149C10.199,16.147 10.197,16.145 10.194,16.142C10.194,16.142 10.009,15.962 9.896,15.844C9.717,15.656 10.656,14.482 10.956,14.783L11.255,15.082C11.263,15.09 11.271,15.098 11.283,15.11C12.945,16.749 15.62,16.742 17.272,15.089L21.436,10.925C22.966,9.395 22.966,6.915 21.436,5.386C19.907,3.856 17.427,3.856 15.898,5.386L14.064,7.219L13.004,6.158L14.837,4.325C16.952,2.21 20.382,2.21 22.497,4.325C24.613,6.44 24.613,9.87 22.497,11.985L18.333,16.149C16.088,18.395 12.447,18.395 10.201,16.149ZM16.133,11.161C16.136,11.163 16.139,11.166 16.142,11.169L16.44,11.468C17.074,12.102 15.917,12.755 15.917,12.755C15.917,12.755 15.646,12.794 15.379,12.528L15.072,12.221C13.413,10.561 10.722,10.561 9.062,12.221L4.898,16.385C3.368,17.915 3.368,20.395 4.898,21.924C6.427,23.454 8.907,23.454 10.437,21.924L12.27,20.091L13.331,21.152L11.498,22.985C9.382,25.1 5.953,25.1 3.837,22.985C1.722,20.87 1.722,17.44 3.837,15.325L8.001,11.16C10.247,8.915 13.888,8.915 16.133,11.161Z" /></svg>
