<svg viewBox="0 0 28 28" xmlns="http://www.w3.org/2000/svg"><path d="M14.172,8.055C10.797,8.055 8.108,10.797 8.108,14.12C8.108,17.495 10.797,20.184 14.172,20.184C17.495,20.184 20.237,17.495 20.237,14.12C20.237,10.797 17.495,8.055 14.172,8.055ZM14.172,18.075C12.01,18.075 10.217,16.334 10.217,14.12C10.217,11.957 11.957,10.217 14.172,10.217C16.334,10.217 18.075,11.957 18.075,14.12C18.075,16.334 16.334,18.075 14.172,18.075ZM21.871,7.844C21.871,7.053 21.239,6.42 20.448,6.42C19.657,6.42 19.024,7.053 19.024,7.844C19.024,8.635 19.657,9.268 20.448,9.268C21.239,9.268 21.871,8.635 21.871,7.844ZM25.879,9.268C25.774,7.369 25.352,5.682 23.981,4.311C22.61,2.94 20.922,2.518 19.024,2.412C17.073,2.307 11.219,2.307 9.268,2.412C7.369,2.518 5.735,2.94 4.311,4.311C2.94,5.682 2.518,7.369 2.412,9.268C2.307,11.219 2.307,17.073 2.412,19.024C2.518,20.922 2.94,22.557 4.311,23.981C5.735,25.352 7.369,25.774 9.268,25.879C11.219,25.985 17.073,25.985 19.024,25.879C20.922,25.774 22.61,25.352 23.981,23.981C25.352,22.557 25.774,20.922 25.879,19.024C25.985,17.073 25.985,11.219 25.879,9.268ZM23.348,21.08C22.979,22.135 22.135,22.926 21.133,23.348C19.551,23.981 15.86,23.823 14.172,23.823C12.432,23.823 8.741,23.981 7.211,23.348C6.157,22.926 5.366,22.135 4.944,21.08C4.311,19.551 4.469,15.86 4.469,14.12C4.469,12.432 4.311,8.741 4.944,7.159C5.366,6.157 6.157,5.366 7.211,4.944C8.741,4.311 12.432,4.469 14.172,4.469C15.86,4.469 19.551,4.311 21.133,4.944C22.135,5.313 22.926,6.157 23.348,7.159C23.981,8.741 23.823,12.432 23.823,14.12C23.823,15.86 23.981,19.551 23.348,21.08Z" /></svg>
