<svg viewBox="0 0 28 28" xmlns="http://www.w3.org/2000/svg"><path d="M23.71,14.436L23.831,14.436L23.831,24.889L4.667,24.889L4.667,14.436L4.788,14.436L4.788,2.361L18.044,2.361L23.71,8.027L23.71,14.436ZM22.21,14.436L22.21,9.088L16.984,9.088L16.984,3.861L6.288,3.861L6.288,14.436L22.21,14.436ZM21.149,7.588L18.484,4.922L18.484,7.588L21.149,7.588ZM12.319,16.178L12.319,23.147L14.307,23.147C14.727,23.147 15.075,23.075 15.349,22.932C15.623,22.789 15.842,22.571 16.006,22.278C16.169,21.985 16.283,21.614 16.347,21.165C16.417,20.71 16.452,20.176 16.452,19.565C16.452,19.051 16.426,18.585 16.374,18.169C16.321,17.753 16.219,17.398 16.067,17.105C15.921,16.806 15.714,16.578 15.445,16.422C15.177,16.259 14.824,16.178 14.386,16.178L12.319,16.178ZM13.58,22.112L13.58,17.212L14.114,17.212C14.354,17.212 14.544,17.264 14.684,17.369C14.83,17.466 14.938,17.616 15.008,17.818C15.083,18.013 15.133,18.26 15.156,18.559C15.18,18.859 15.191,19.207 15.191,19.604C15.191,20.079 15.177,20.476 15.148,20.794C15.124,21.113 15.072,21.37 14.99,21.566C14.914,21.761 14.809,21.901 14.675,21.985C14.541,22.07 14.363,22.112 14.141,22.112L13.58,22.112ZM17.724,16.178L17.724,23.147L18.985,23.147L18.985,20.121L21.086,20.121L21.086,18.969L18.985,18.969L18.985,17.33L21.218,17.33L21.218,16.178L17.724,16.178ZM7.28,16.178L7.28,23.147L8.541,23.147L8.541,20.365L9.215,20.365C9.513,20.365 9.784,20.323 10.029,20.238C10.274,20.154 10.482,20.027 10.651,19.857C10.826,19.688 10.96,19.47 11.054,19.203C11.153,18.937 11.203,18.624 11.203,18.267C11.203,18.006 11.173,17.753 11.115,17.505C11.057,17.251 10.96,17.027 10.826,16.832C10.692,16.637 10.514,16.48 10.292,16.363C10.076,16.24 9.807,16.178 9.486,16.178L7.28,16.178ZM8.541,19.33L8.541,17.212L9.066,17.212C9.381,17.212 9.606,17.304 9.74,17.486C9.875,17.668 9.942,17.935 9.942,18.286C9.942,18.644 9.863,18.907 9.705,19.077C9.553,19.246 9.352,19.33 9.101,19.33L8.541,19.33Z" /></svg>
