<svg viewBox="0 0 28 28" xmlns="http://www.w3.org/2000/svg"><path d="M25.639,7.111L25.639,20.889C25.639,23.511 23.511,25.639 20.889,25.639L7.111,25.639C4.49,25.639 2.361,23.511 2.361,20.889L2.361,7.111C2.361,4.49 4.49,2.361 7.111,2.361L20.889,2.361C23.511,2.361 25.639,4.49 25.639,7.111ZM24.139,7.111C24.139,5.317 22.683,3.861 20.889,3.861L7.111,3.861C5.317,3.861 3.861,5.317 3.861,7.111L3.861,20.889C3.861,22.683 5.317,24.139 7.111,24.139L20.889,24.139C22.683,24.139 24.139,22.683 24.139,20.889L24.139,7.111Z" /></svg>
