<svg viewBox="0 0 28 28" xmlns="http://www.w3.org/2000/svg"><path d="M9.75,8.912L8.25,8.912C8.25,5.785 10.785,3.25 13.912,3.25C17.039,3.25 19.575,5.785 19.575,8.912C19.575,10.621 18.818,12.152 17.622,13.19C16.923,13.797 16.151,14.455 15.558,15.197C15.046,15.836 14.662,16.535 14.662,17.333L13.162,17.333C13.162,16.193 13.656,15.173 14.387,14.259C15.036,13.448 15.874,12.721 16.639,12.057C17.518,11.294 18.075,10.168 18.075,8.912C18.075,6.614 16.211,4.75 13.912,4.75C11.614,4.75 9.75,6.614 9.75,8.912ZM16.25,21.385C16.25,22.627 15.243,23.635 14,23.635C12.757,23.635 11.75,22.627 11.75,21.385C11.75,20.142 12.757,19.135 14,19.135C15.243,19.135 16.25,20.142 16.25,21.385ZM14.75,21.385C14.75,20.971 14.414,20.635 14,20.635C13.586,20.635 13.25,20.971 13.25,21.385C13.25,21.799 13.586,22.135 14,22.135C14.414,22.135 14.75,21.799 14.75,21.385Z" /></svg>
