<svg enable-background="new 0 0 16 16" height="16" viewBox="0 0 16 16" width="16" xmlns="http://www.w3.org/2000/svg"><path d="m16 14.8c0 .3-.1.6-.4.9-.2.2-.5.4-.9.4-.3 0-.6-.1-.9-.4l-3.3-3.3c-1.1.8-2.4 1.2-3.8 1.2-.9 0-1.8-.2-2.6-.5-.8-.4-1.6-.8-2.2-1.4s-1.1-1.3-1.4-2.2c-.3-.9-.5-1.8-.5-2.7s.2-1.8.5-2.7c.4-.8.9-1.5 1.5-2.1s1.3-1.1 2.2-1.4c.8-.4 1.7-.6 2.6-.6s1.8.2 2.6.5c.8.4 1.6.9 2.2 1.5s1.1 1.3 1.4 2.2c.4.8.5 1.7.5 2.6 0 1.4-.4 2.7-1.2 3.8l3.3 3.3c.3.2.4.5.4.9zm-6.2-5c.8-.8 1.3-1.9 1.3-3 0-1.2-.4-2.2-1.3-3-.8-.9-1.8-1.3-3-1.3s-2.2.4-3 1.3c-.8.8-1.3 1.9-1.3 3 0 1.2.4 2.2 1.3 3s1.9 1.3 3 1.3c1.2 0 2.2-.4 3-1.3z"/></svg>