<svg fill="none" height="28" viewBox="0 0 28 28" width="28" xmlns="http://www.w3.org/2000/svg"><path d="m3.55556 17.1111v.75zm7.85434 0 .7495-.0286-.0275-.7214h-.722zm.2965 7.7778-.7494.0286.0672 1.7626 1.2228-1.2713zm7.4813-7.7778v-.75h-.3192l-.2213.2301zm5.2567 0v.75zm-22.13884-11.99999c0-.69036.55964-1.25 1.25-1.25v-1.5c-1.51879 0-2.750003 1.23122-2.750003 2.75zm0 9.99999v-9.99999h-1.500003v9.99999zm1.25 1.25c-.69036 0-1.25-.5596-1.25-1.25h-1.500003c0 1.5188 1.231213 2.75 2.750003 2.75zm7.85434 0h-7.85434v1.5h7.85434zm-.7494.7786.2965 7.7778 1.4989-.0572-.2965-7.7778zm1.5865 8.2691 7.4813-7.7778-1.0811-1.0398-7.4813 7.7778zm12.1974-9.0477h-5.2567v1.5h5.2567zm1.25-1.25c0 .6904-.5596 1.25-1.25 1.25v1.5c1.5188 0 2.75-1.2312 2.75-2.75zm0-9.99999v9.99999h1.5v-9.99999zm-1.25-1.25c.6904 0 1.25.55964 1.25 1.25h1.5c0-1.51878-1.2312-2.75-2.75-2.75zm-20.88884 0h20.88884v-1.5h-20.88884z" fill="#222"/></svg>