<svg fill="none" height="28" viewBox="0 0 28 28" width="28" xmlns="http://www.w3.org/2000/svg"><path d="m14.1722 8.05501c-3.375 0-6.06446 2.74219-6.06446 6.06449 0 3.375 2.68946 6.0644 6.06446 6.0644 3.3223 0 6.0644-2.6894 6.0644-6.0644 0-3.3223-2.7421-6.06449-6.0644-6.06449zm0 10.01949c-2.1621 0-3.9551-1.7402-3.9551-3.955 0-2.1621 1.7403-3.9024 3.9551-3.9024 2.1621 0 3.9023 1.7403 3.9023 3.9024 0 2.2148-1.7402 3.955-3.9023 3.955zm7.6992-10.23042c0-.79102-.6328-1.42383-1.4238-1.42383s-1.4238.63281-1.4238 1.42383c0 .79101.6328 1.42382 1.4238 1.42382s1.4238-.63281 1.4238-1.42382zm4.0078 1.42382c-.1054-1.89843-.5273-3.58593-1.8984-4.95703-1.3711-1.37109-3.0586-1.79297-4.957-1.89843-1.9512-.10547-7.8047-.10547-9.7559 0-1.89844.10546-3.5332.52734-4.95703 1.89843-1.3711 1.3711-1.79297 3.0586-1.89844 4.95703-.10547 1.9512-.10547 7.8047 0 9.7559.10547 1.8984.52734 3.5332 1.89844 4.957 1.42383 1.3711 3.05859 1.793 4.95703 1.8984 1.9512.1055 7.8047.1055 9.7559 0 1.8984-.1054 3.5859-.5273 4.957-1.8984 1.3711-1.4238 1.793-3.0586 1.8984-4.957.1055-1.9512.1055-7.8047 0-9.7559zm-2.5312 11.8125c-.3692 1.0547-1.2129 1.8457-2.2149 2.2676-1.582.6328-5.2734.4746-6.9609.4746-1.7402 0-5.43165.1582-6.96094-.4746-1.05469-.4219-1.84571-1.2129-2.26758-2.2676-.63281-1.5293-.47461-5.2207-.47461-6.9609 0-1.6875-.1582-5.37894.47461-6.96097.42187-1.00195 1.21289-1.79297 2.26758-2.21484 1.52929-.63282 5.22074-.47461 6.96094-.47461 1.6875 0 5.3789-.15821 6.9609.47461 1.002.36914 1.793 1.21289 2.2149 2.21484.6328 1.58203.4746 5.27347.4746 6.96097 0 1.7402.1582 5.4316-.4746 6.9609z" fill="#222"/></svg>