<svg fill="none" height="28" viewBox="0 0 28 28" width="28" xmlns="http://www.w3.org/2000/svg"><path clip-rule="evenodd" d="m5.4452 8.13338c1.46097 0 2.64533-1.19391 2.64533-2.66666 0-1.47276-1.18436-2.66667-2.64533-2.66667-1.46098 0-2.64533 1.19391-2.64533 2.66667 0 1.47275 1.18435 2.66666 2.64533 2.66666zm2.15466 2.13322h-4.26666c-.29455 0-.53333.2388-.53333.5334v13.8666c0 .2946.23878.5333.53333.5333h4.26666c.29455 0 .53333-.2387.53333-.5333v-13.8666c0-.2946-.23878-.5334-.53333-.5334zm16.00014 14.9334h-3.2c-.1415 0-.2771-.0562-.3771-.1562-.1001-.1-.1562-.2357-.1562-.3771v-8c0-.7073-.281-1.3855-.7811-1.8856s-1.1784-.7811-1.8856-.7811c-.7073 0-1.3855.281-1.8856.7811s-.7811 1.1783-.7811 1.8856v8c0 .1414-.0562.2771-.1562.3771s-.2357.1562-.3771.1562h-3.2c-.1414 0-.2771-.0562-.3771-.1562s-.1562-.2357-.1562-.3771v-13.8667c0-.1414.0562-.2771.1562-.3771s.2357-.1562.3771-.1562h3.2c.1414 0 .2771.0562.3771.1562s.1562.2357.1562.3771c-.0003.0894.0267.1767.0774.2502s.1228.1297.2064.1611.1749.0364.2615.0143c.0865-.022.1643-.07.2227-.1376.4377-.4494.9648-.8022 1.5472-1.0355.5824-.23337 1.2072-.34207 1.8342-.31914 3.1786 0 5.4506 1.95204 5.4506 5.97334v8.96c0 .1414-.0562.2771-.1562.3771s-.2357.1562-.3771.1562z" fill="#222" fill-rule="evenodd"/></svg>