<svg fill="none" height="28" viewBox="0 0 28 28" width="28" xmlns="http://www.w3.org/2000/svg"><g fill="#222"><ellipse cx="9.53415" cy="12.8961" rx="1.35484" ry="1.35484" transform="matrix(0 1 -1 0 22.43025 3.36195)"/><circle cx="9.53415" cy="17.5627" r="1.35484" transform="matrix(0 1 -1 0 27.09685 8.02855)"/><circle cx="14.2011" cy="12.8961" r="1.35484" transform="matrix(0 1 -1 0 27.0972 -1.305)"/><ellipse cx="14.2011" cy="17.5627" rx="1.35484" ry="1.35484" transform="matrix(0 1 -1 0 31.7638 3.3616)"/><ellipse cx="18.8672" cy="12.8961" rx="1.35484" ry="1.35484" transform="matrix(0 1 -1 0 31.7633 -5.9711)"/></g><path d="m4.06452 7.22581h19.871v16.2581h-19.871z" stroke="#222" stroke-width="1.5"/><path d="m8.12903 2.70968v4.51613" stroke="#222" stroke-width="1.5"/><path d="m20.7742 2.70968v4.51613" stroke="#222" stroke-width="1.5"/></svg>