<svg fill="none" height="28" viewBox="0 0 28 28" width="28" xmlns="http://www.w3.org/2000/svg"><path d="m13.8436 26.288-.5304.5303.5304.5304.5303-.5304zm.0006-.0006.5303-.5304-.5303-.5303-.5303.5303zm.0001 0-.5304.5303.5304.5304.5303-.5304zm10.9077-10.9077.5303.5303zm0-8.98282.5303-.53033zm-10.9084 1.92553-.5303.53033.5303.53033.5303-.53033zm-1.9249-1.92493-.5304.53033zm-8.45251 8.45252c-2.18765-2.1877-2.18765-5.73455-.00001-7.92219l-1.06066-1.06066c-2.773428 2.77343-2.773426 7.27005.00001 10.04345zm10.90771 10.9077-10.90771-10.9077-1.06066 1.0606 10.90767 10.9077zm-1.06-.0007-.0007.0007 1.0607 1.0606.0006-.0006zm1.0607.0001-.0001-.0001-1.0606 1.0607zm9.847-10.9077-10.9077 10.9077 1.0607 1.0606 10.9077-10.9077zm0-7.92219c2.1877 2.18764 2.1877 5.73449 0 7.92219l1.0607 1.0606c2.7734-2.7734 2.7734-7.27002 0-10.04345zm-7.9221 0c2.1876-2.18765 5.7345-2.18765 7.9221 0l1.0607-1.06066c-2.7734-2.77344-7.2701-2.77343-10.0435 0zm-1.9256 1.92553 1.9256-1.92553-1.0607-1.06066-1.9255 1.92553zm-2.9856-1.92493 1.925 1.92493 1.0606-1.06066-1.9249-1.92493zm-7.92212 0c2.18765-2.18765 5.73452-2.18765 7.92212 0l1.0607-1.06066c-2.77342-2.77343-7.27004-2.77343-10.04348 0z" fill="#222"/></svg>