<svg fill="none" height="32" viewBox="0 0 32 32" width="32" xmlns="http://www.w3.org/2000/svg"><path d="m29.32 9.54714c-.1226 2.70266-2.0266 6.39996-5.7066 11.09736-3.804 4.904-7.0267 7.356-9.664 7.356-1.6334 0-3.0134-1.496-4.14136-4.4787-.752-2.74-1.50267-5.48-2.26267-8.2133-.836-2.9827-1.73333-4.4787-2.7-4.4787-.20666 0-.94266.44-2.19333 1.3067l-1.31867-1.6867c1.38-1.20799 2.74667-2.40666 4.088-3.61333 1.84-1.58 3.22934-2.40666 4.14934-2.49066 2.17729-.204 3.51999 1.268 4.02669 4.43333.544 3.40796.92 5.53336 1.1346 6.35996.6294 2.832 1.32 4.244 2.0707 4.244.5827 0 1.4653-.9173 2.6387-2.7546 1.1733-1.8374 1.8013-3.2334 1.8866-4.1907.168-1.5867-.46-2.376-1.8866-2.376-.6667 0-1.3574.152-2.0707.456 1.3733-4.47066 4.0027-6.64266 7.884-6.51333 2.876.076 4.2333 1.928 4.0653 5.54134z" fill="#fff"/></svg>