<svg fill="none" height="28" viewBox="0 0 28 28" width="28" xmlns="http://www.w3.org/2000/svg"><path d="m25.1016 8.02083c1.0937-.82031 2.0781-1.80469 2.8984-3.00781-1.0938.49219-2.1875.82031-3.2812.92969 1.2031-.76563 2.0781-1.80469 2.5156-3.17188-1.1485.65625-2.3516 1.14844-3.6641 1.36719-.5469-.54688-1.2031-.98438-1.9141-1.3125-.7109-.32813-1.4765-.49219-2.2968-.49219-1.0391 0-1.9688.27344-2.8438.76563-.875.54687-1.5859 1.25781-2.0781 2.13281-.5469.875-.7656 1.85937-.7656 2.84375 0 .4375 0 .875.1093 1.3125-2.3515-.10938-4.53901-.65625-6.61714-1.75-2.07812-1.03906-3.77344-2.46094-5.19531-4.26563-.54687.92969-.82031 1.91407-.82031 2.89844 0 .98438.21875 1.91406.71093 2.73438.43751.875 1.09375 1.53129 1.85938 2.07809-.92969 0-1.80469-.2734-2.57031-.7656v.1094c0 1.3672.4375 2.5703 1.3125 3.6094.875 1.0937 1.96875 1.75 3.28125 2.0234-.54688.1094-1.03907.1641-1.53125.1641-.32813 0-.71094 0-1.03906-.0547.32812 1.1484.98437 2.0781 1.96874 2.8437.98438.7656 2.07813 1.0938 3.39063 1.0938-2.13281 1.6406-4.53906 2.4609-7.16406 2.4609-.546878 0-.984378 0-1.36719-.0547 2.625 1.75 5.57812 2.5703 8.80469 2.5703 3.33591 0 6.28901-.8203 8.91411-2.5703 2.3515-1.5312 4.2109-3.5547 5.5234-6.1797 1.2578-2.4062 1.914-4.9765 1.914-7.60153 0-.32813-.0546-.54688-.0546-.71094z" fill="#222"/></svg>