<svg fill="none" height="28" viewBox="0 0 28 28" width="28" xmlns="http://www.w3.org/2000/svg"><path d="m27.4359 6.57692c.2051.92308.4103 2.35898.5128 4.20518l.0513 2.5641-.0513 2.5641c-.1025 1.9487-.3077 3.3333-.5128 4.2564-.2051.6154-.5128 1.1282-.9231 1.5384-.4615.4616-.9743.7693-1.5897.9231-.9231.2564-2.9744.4103-6.2564.5128l-4.6667.0513-4.66667-.0513c-3.28205-.1025-5.38461-.2564-6.25641-.5128-.61538-.1538-1.17948-.4615-1.58974-.9231-.46154-.4102-.769231-.923-.923077-1.5384-.256411-.9231-.410257-2.3077-.5128209-4.2564l-.0512821-2.5641c0-.718 0-1.5898.0512821-2.5641.1025639-1.8462.2564099-3.2821.5128209-4.20518.153846-.61538.461537-1.1282.923077-1.58974.41026-.41026.97436-.71795 1.58974-.92308.8718-.20513 2.97436-.41025 6.25641-.51282l4.66667-.05128 4.6667.05128c3.282.10257 5.3333.30769 6.2564.51282.6154.20513 1.1282.51282 1.5897.92308.4103.46154.718.97436.9231 1.58974zm-16.3077 10.97438 7.3333-4.2051-7.3333-4.15389z" fill="#222"/></svg>