<svg fill="none" height="28" viewBox="0 0 28 28" width="28" xmlns="http://www.w3.org/2000/svg"><path d="m17.7336 3.11111v5.22667h5.2267" stroke="#222" stroke-width="1.5"/><path d="m5.53763 24.0178v-20.90669h12.19557l5.2266 5.22667v15.68002z" stroke="#222" stroke-width="1.5"/><path d="m4.66667 14.4356h19.1644v10.4533h-19.1644z" fill="#222"/><g fill="#fff"><path d="m8.54068 19.3304v-2.118h.52537c.31522 0 .53996.0911.67422.2733s.20139.449.20139.8003c0 .3579-.0788.6214-.23641.7906-.15178.1692-.35317.2538-.60418.2538zm-1.26088-3.1526v6.9689h1.26088v-2.7817h.67422c.29771 0 .56915-.0423.8143-.1269.2452-.0846.4524-.2115.6217-.3807.1751-.1691.3094-.3871.4028-.6539.0992-.2668.1488-.5791.1488-.937 0-.2603-.0291-.514-.0875-.7613-.0584-.2538-.1547-.4783-.289-.6735-.1342-.1952-.3123-.3513-.5341-.4685-.216-.1236-.4845-.1854-.80556-.1854z"/><path d="m13.5803 22.1121v-4.8997h.5341c.2394 0 .4291.052.5692.1562.1459.0976.2539.2472.324.4489.0758.1952.1255.4425.1488.7418.0234.2993.035.6475.035 1.0444 0 .475-.0146.8719-.0437 1.1907-.0234.3189-.0759.5759-.1577.7711-.0758.1952-.1809.3351-.3152.4197-.1342.0846-.3123.1269-.5341.1269zm-1.2609-5.9343v6.9689h1.9877c.4203 0 .7676-.0716 1.042-.2147.2743-.1432.4932-.3612.6567-.654.1634-.2928.2772-.6637.3414-1.1127.0701-.4554.1051-.989.1051-1.6007 0-.514-.0262-.9793-.0788-1.3957-.0525-.4164-.1547-.7711-.3064-1.0639-.146-.2993-.3532-.527-.6217-.6832-.2686-.1627-.6217-.244-1.0595-.244z"/><path d="m17.7239 16.1778v6.9689h1.2609v-3.0257h2.1014v-1.1517h-2.1014v-1.6398h2.2328v-1.1517z"/></g></svg>