<svg fill="none" height="28" viewBox="0 0 28 28" width="28" xmlns="http://www.w3.org/2000/svg"><path d="m2.54821 3.44242-.01441.00298-.01451.00242c-.0463.00773-.07736.02072-.10871.0399-.02546.01558-.05629.03848-.09747.07557-.07577.14242-.0908.22413-.0908.26415 0 3.95511.98536 7.61956 2.95798 11.00696 1.98061 3.3039 4.56504 5.9352 7.85101 7.8622 3.3837 1.9762 7.0441 2.9632 10.9948 2.9632.1093 0 .1618-.0099.1852-.017.0059-.0017.0091-.0031.0104-.0037.0005-.0004.0014-.0013.0028-.0026l.0653-.0654.0791-.0475c.0103-.0062.016-.0113.0189-.0141.0028-.0028.0036-.0043.0037-.0044 0 0 .0003-.0005.0008-.0023.0005-.0019.0017-.0074.0017-.0177v-.0838l.0185-.0817 1.2083-5.3409-6.003-2.6535-1.7009 2.2849-.3636.4884-.5527-.2554c-1.9706-.9107-3.7485-2.1293-5.2755-3.7081-1.515-1.5179-2.7812-3.292-3.69444-5.2732l-.25491-.553.48885-.36305 2.3048-1.71172-2.55207-5.92635z" stroke="#222" stroke-width="1.5"/></svg>