<svg width="24" height="21" xmlns="http://www.w3.org/2000/svg">
    <g fill="currentColor" fill-rule="nonzero">
        <path d="M15.3105882.151724L6.78691765 5.07257106v9.84197644l8.52367055 4.9211294 8.5236706-4.9211294V5.07285341L15.3105882.151724zM22.752 5.26315929l-7.4414118 3.94051765-7.44197644-3.94051765L15.3103059.96687694 22.752 5.2631593zm-15.2592.5994353l7.4648471 3.95294117v9.00141174L7.4928 14.5071122V5.86259459zm8.1707294 12.95435291V9.81553576l7.4648471-3.95294117v8.64451761l-7.4648471 4.3098353z"/>
        <path d="M14.9576471 5.07680635h1v1h-1zM14.9576471 1.68857106h1v1h-1zM14.9576471 6.20621812h1v1h-1zM14.9576471 2.81798282h1v1h-1zM14.9576471 7.33562988h1v1h-1zM14.9576471 3.94739459h1v1h-1zM17.54779655 11.4190113l-.47905352-.29950027.37418822-.59851762.47905352.29950026zM16.59005902 10.82023001l-.47905352-.29950026.37418824-.59851766.47905352.29950026zM19.46335454 12.61540384l-.4786312-.2991445.373968-.59834879.47863119.2991445zM18.50532159 12.01764185l-.47905352-.29950026.37418822-.59851763.47905352.29950026zM22.33627123 14.41248786l-.47905352-.29950026.37418822-.59851763.47905352.29950026zM20.42089385 13.21398533l-.47863119-.2991445.373968-.59834878.47863119.29914449zM21.378598 13.81409634l-.47905353-.29950027.37418823-.59851762.47905352.29950026zM13.0942715 11.41788232l-.3744706-.5983765.47894049-.29972623.3744706.5983765zM13.67665842 10.2213946l.4790536-.29950032.37418826.59851768-.4790536.29950031zM11.17824333 12.61631976l-.37389743-.59834879.47863111-.299088.37389743.59834879zM12.13654453 12.01638355l-.3744706-.5983765.47894048-.29972624.3744706.5983765zM8.30579614 14.41136468l-.37447059-.59837647.47894057-.29972629.37447059.59837648zM10.22058136 13.21502862l-.37389743-.59834879.47863112-.299088.37389742.5983488zM9.26337275 13.81262443l-.37447059-.59837646.47894049-.29972624.37447058.59837647zM4.16470588.20621812h8.75294118v1H4.16470588zM4.16470588 19.1238652h8.75294118v1H4.16470588zM0 9.95614753h5.68235294v1H0zM1.30588235 8.54438282h4.94117647v1H1.30588235zM1.30588235 11.3679122h4.94117647v1H1.30588235z"/>
    </g>
</svg>