<svg width="24" height="24" xmlns="http://www.w3.org/2000/svg">
    <g fill="currentColor" fill-rule="nonzero">
        <path d="M10.248 23.2h-.7888c-.2208 0-.4.1792-.4.4 0 .2208.1792.4.4.4h.7888c.2212 0 .4-.1792.4-.4 0-.2208-.1788-.4-.4-.4M14.9792 23.2h-.7884c-.2212 0-.4.1792-.4.4 0 .2208.1788.4.4.4h.7884c.2212 0 .4-.1792.4-.4 0-.2208-.1788-.4-.4-.4M17.3448 23.2h-.7884c-.2212 0-.4.1792-.4.4 0 .2208.1788.4.4.4h.7884c.2212 0 .4-.1792.4-.4 0-.2208-.1788-.4-.4-.4M12.6136 23.2h-.7884c-.2212 0-.4004.1792-.4004.4 0 .2208.1792.4.4004.4h.7884c.2212 0 .4-.1792.4-.4 0-.2208-.1788-.4-.4-.4M5.2 21.298c.2212 0 .4-.1792.4-.4v-.7888c0-.2208-.1788-.4-.4-.4-.2212 0-.4.1792-.4.4v.7888c0 .2208.1788.4.4.4M19.7104 23.2h-.7884c-.2212 0-.4.1792-.4.4 0 .2208.1788.4.4.4h.7884c.2212 0 .4-.1792.4-.4 0-.2208-.1788-.4-.4-.4M5.6384 22.3676c-.0568-.2136-.276-.3396-.4896-.2844-.2132.0568-.3404.276-.284.4896.0852.3208.2544.6164.4896.8544.078.0796.1816.1192.2848.1192.1016 0 .2028-.038.2808-.1152.1572-.1552.1588-.4084.004-.5656-.1376-.1392-.2364-.3116-.2856-.498M7.8824 23.2h-.7888c-.2208 0-.4.1792-.4.4 0 .2208.1792.4.4.4h.7888c.2212 0 .4-.1792.4-.4 0-.2208-.1788-.4-.4-.4M23.6 12.2248c-.2212 0-.4.1788-.4.4v.7884c0 .2208.1788.4.4.4.2212 0 .4-.1792.4-.4v-.7884c0-.2212-.1788-.4-.4-.4M23.6 16.956c-.2212 0-.4.1792-.4.4v.7884c0 .2212.1788.4.4.4.2212 0 .4-.1788.4-.4v-.7884c0-.2208-.1788-.4-.4-.4M23.6 14.5904c-.2212 0-.4.1792-.4.4v.7884c0 .2212.1788.4.4.4.2212 0 .4-.1788.4-.4v-.7884c0-.2208-.1788-.4-.4-.4M23.6 9.8588c-.2212 0-.4.1792-.4.4v.7888c0 .2208.1788.4.4.4.2212 0 .4-.1792.4-.4v-.7888c0-.2208-.1788-.4-.4-.4M23.6 7.4932c-.2212 0-.4.1792-.4.4v.7888c0 .2208.1788.4.4.4.2212 0 .4-.1792.4-.4v-.7888c0-.2208-.1788-.4-.4-.4M21.6976 5.6c.2212 0 .4-.1792.4-.4 0-.2208-.1788-.4-.4-.4h-.7888c-.2208 0-.4.1792-.4.4 0 .2208.1792.4.4.4h.7888M22.076 23.2h-.7884c-.2212 0-.4.1792-.4.4 0 .2208.1788.4.4.4h.8004l.0056-.4v.4c.2212 0 .3912-.1792.3912-.4 0-.2212-.1876-.4-.4088-.4M23.6 19.3216c-.2212 0-.4.1792-.4.4v.7884c0 .2212.1788.4.4.4.2212 0 .4-.1788.4-.4v-.7884c0-.2208-.1788-.4-.4-.4M23.5456 6.7212c.0352 0 .0708-.0044.106-.0144.2132-.058.3388-.2784.2804-.4912-.088-.3204-.2584-.6148-.4944-.8512-.1564-.1564-.4096-.1564-.5656-.0004-.1568.156-.1568.4092-.0008.5656.1376.1384.2376.3104.2888.4968.0488.178.21.2948.3856.2948M23.6028 21.6872H23.6c-.2196 0-.3984.1772-.4.3972-.0016.1952-.0536.3868-.1504.554-.1112.1912-.046.436.1448.5468.0636.0368.132.0544.2004.0544.138 0 .272-.0716.3468-.1992.1668-.2876.256-.616.2584-.95.0016-.2212-.176-.4016-.3972-.4032M19.3316 4.8H19.2V1.924C19.2.8632 18.3372 0 17.276 0H1.924C.8628 0 0 .8632 0 1.924v15.352C0 18.3368.8628 19.2 1.924 19.2H5.6V5.6h13.7316c.2212 0 .4-.1792.4-.4 0-.2208-.1788-.4-.4-.4zM2 16.8c-.2208 0-.4-.1792-.4-.4 0-.2208.1792-.4.4-.4.2208 0 .4.1792.4.4 0 .2208-.1792.4-.4.4zm0-2.4c-.2208 0-.4-.1792-.4-.4 0-.2208.1792-.4.4-.4.2208 0 .4.1792.4.4 0 .2208-.1792.4-.4.4zM2 12c-.2208 0-.4-.1792-.4-.4 0-.2208.1792-.4.4-.4.2208 0 .4.1792.4.4 0 .2208-.1792.4-.4.4zm0-2.4c-.2208 0-.4-.1792-.4-.4 0-.2208.1792-.4.4-.4.2208 0 .4.1792.4.4 0 .2208-.1792.4-.4.4zm0-2.4c-.2208 0-.4-.1792-.4-.4 0-.2208.1792-.4.4-.4.2208 0 .4.1792.4.4 0 .2208-.1792.4-.4.4zm0-2.4c-.2208 0-.4-.1792-.4-.4 0-.2208.1792-.4.4-.4.2208 0 .4.1792.4.4 0 .2208-.1792.4-.4.4zm0-2.4c-.2208 0-.4-.1792-.4-.4 0-.2208.1792-.4.4-.4.2208 0 .4.1792.4.4 0 .2208-.1792.4-.4.4zM3.2 18c-.2208 0-.4-.1792-.4-.4 0-.2208.1792-.4.4-.4.2208 0 .4.1792.4.4 0 .2208-.1792.4-.4.4zm0-2.4c-.2208 0-.4-.1792-.4-.4 0-.2208.1792-.4.4-.4.2208 0 .4.1792.4.4 0 .2208-.1792.4-.4.4zm0-2.4c-.2208 0-.4-.1792-.4-.4 0-.2208.1792-.4.4-.4.2208 0 .4.1792.4.4 0 .2208-.1792.4-.4.4zm0-2.4c-.2208 0-.4-.1792-.4-.4 0-.2208.1792-.4.4-.4.2208 0 .4.1792.4.4 0 .2208-.1792.4-.4.4zm0-2.4c-.2208 0-.4-.1792-.4-.4 0-.2208.1792-.4.4-.4.2208 0 .4.1792.4.4 0 .2208-.1792.4-.4.4zm0-2.4c-.2208 0-.4-.1792-.4-.4 0-.2208.1792-.4.4-.4.2208 0 .4.1792.4.4 0 .2208-.1792.4-.4.4zm0-2.4c-.2208 0-.4-.1792-.4-.4 0-.2208.1792-.4.4-.4.2208 0 .4.1792.4.4 0 .2208-.1792.4-.4.4zm1.2 1.2c-.2208 0-.4-.1792-.4-.4 0-.2208.1792-.4.4-.4.2208 0 .4.1792.4.4 0 .2208-.1792.4-.4.4zm0-2.4c-.2208 0-.4-.1792-.4-.4 0-.2208.1792-.4.4-.4.2208 0 .4.1792.4.4 0 .2208-.1792.4-.4.4zm1.2 1.2c-.2208 0-.4-.1792-.4-.4 0-.2208.1792-.4.4-.4.2208 0 .4.1792.4.4 0 .2208-.1792.4-.4.4zm1.2-1.2c-.2208 0-.4-.1792-.4-.4 0-.2208.1792-.4.4-.4.2208 0 .4.1792.4.4 0 .2208-.1792.4-.4.4zM8 3.6c-.2208 0-.4-.1792-.4-.4 0-.2208.1792-.4.4-.4.2208 0 .4.1792.4.4 0 .2208-.1792.4-.4.4zm1.2-1.2c-.2208 0-.4-.1792-.4-.4 0-.2208.1792-.4.4-.4.2208 0 .4.1792.4.4 0 .2208-.1792.4-.4.4zm1.2 1.2c-.2208 0-.4-.1792-.4-.4 0-.2208.1792-.4.4-.4.2208 0 .4.1792.4.4 0 .2208-.1792.4-.4.4zm1.2-1.2c-.2208 0-.4-.1792-.4-.4 0-.2208.1792-.4.4-.4.2208 0 .4.1792.4.4 0 .2208-.1792.4-.4.4zm1.2 1.2c-.2208 0-.4-.1792-.4-.4 0-.2208.1792-.4.4-.4.2208 0 .4.1792.4.4 0 .2208-.1792.4-.4.4zM14 2.4c-.2208 0-.4-.1792-.4-.4 0-.2208.1792-.4.4-.4.2208 0 .4.1792.4.4 0 .2208-.1792.4-.4.4zm1.2 1.2c-.2208 0-.4-.1792-.4-.4 0-.2208.1792-.4.4-.4.2208 0 .4.1792.4.4 0 .2208-.1792.4-.4.4zm1.2-1.2c-.2208 0-.4-.1792-.4-.4 0-.2208.1792-.4.4-.4.2208 0 .4.1792.4.4 0 .2208-.1792.4-.4.4zm1.2 1.2c-.2208 0-.4-.1792-.4-.4 0-.2208.1792-.4.4-.4.2208 0 .4.1792.4.4 0 .2208-.1792.4-.4.4z"/>
    </g>
</svg>