<svg width="32" height="32" xmlns="http://www.w3.org/2000/svg">
    <path d="M23.06336 18.81696c.0892859-.0892859.1339288-.1919645.1339288-.308036 0-.1160715-.0446429-.2187501-.1339288-.308036l-6.241072-6.241072c-.0892859-.0892859-.1919645-.1339288-.308036-.1339288-.1160715 0-.2187501.0446429-.308036.1339288l-6.241072 6.241072c-.08928587.0892859-.1339288.1919645-.1339288.308036 0 .1160715.04464293.2187501.1339288.308036l.6696432.6696432c.0892859.0892859.1919645.1339288.308036.1339288.1160715 0 .2187501-.0446429.308036-.1339288l5.263392-5.263392 5.263392 5.263392c.0892859.0892859.1919645.1339288.308036.1339288.1160715 0 .2187501-.0446429.308036-.1339288l.6696448-.6696432z" fill="currentColor" fill-rule="evenodd"/>
</svg>