<svg width="20" height="17" xmlns="http://www.w3.org/2000/svg">
    <path d="M7.08333.610388c.68917 0 1.25.560833 1.25 1.25l-.00033 2.083h3.333l.00067-2.083c0-.689167.56083-1.25 1.25-1.25H16.25c.68917 0 1.25.560833 1.25 1.25l-.001 2.083 1.251.000333c.68917 0 1.25.560833 1.25 1.25v10.833333c0 .23-.18667.416667-.41667.416667H.41667c-.23 0-.41667-.186667-.41667-.416667V5.193721c0-.689167.56083-1.25 1.25-1.25l1.249-.000333.001-2.083c0-.689167.56083-1.25 1.25-1.25h3.33333zM18.75 4.777054H1.25c-.23 0-.41667.186667-.41667.416667v10.416667h18.33334V5.193721c0-.23-.18667-.416667-.41667-.416667zM7.08333 1.443721H3.75c-.23 0-.41667.186667-.41667.416667v2.083333H7.5V1.860388c0-.23-.18667-.416667-.41667-.416667zm9.16667 0h-3.33333c-.23 0-.41667.186667-.41667.416667v2.083333h4.16667V1.860388c0-.23-.18667-.416667-.41667-.416667z" fill="currentColor" fill-rule="nonzero"/>
</svg>