<svg xmlns="http://www.w3.org/2000/svg" width="24" height="24" viewBox="0 0 24 24">
  <path fill="currentColor" d="M20.03125 3.671875H3.96875c-.269531 0-.515625.222656-.539062.492187v2.816407c0 .269531.21875.488281.488281.488281s.488281-.21875.488281-.488281V4.652344h7.105469v14.695312H8.375c-.269531 0-.488281.21875-.488281.488282 0 .269531.21875.492187.488281.492187h7.25c.269531 0 .488281-.222656.488281-.492187 0-.269532-.21875-.488282-.488281-.488282h-3.136719V4.652344h7.105469v2.328125c0 .269531.21875.488281.488281.488281s.488281-.21875.488281-.488281V4.164062c-.023437-.269531-.269531-.492187-.539062-.492187zm0 0"/>
</svg>
