<svg width="294" height="36" viewBox="0 0 294 36" fill="none" xmlns="http://www.w3.org/2000/svg">
<g clip-path="url(#clip0_565_5467)">
<path d="M181.561 5.54806V11.9309C181.561 13.8392 182.285 14.8097 183.568 14.8097C184.884 14.8097 185.608 13.8887 185.608 11.9309V5.54806H188.108V11.7667C188.108 15.1885 186.381 16.8168 183.486 16.8168C180.689 16.8168 179.044 15.2704 179.044 11.7333V5.54806H181.561ZM189.686 11.1577C189.686 10.1544 189.654 9.29881 189.621 8.59148H191.793L191.908 9.69365H191.957C192.286 9.18353 193.109 8.41032 194.441 8.41032C196.087 8.41032 197.32 9.49602 197.32 11.8651V16.6356H194.819V12.1775C194.819 11.1413 194.458 10.4339 193.552 10.4339C192.861 10.4339 192.451 10.9111 192.286 11.3718C192.22 11.52 192.188 11.7667 192.188 11.9968V16.6356H189.686V11.1577ZM206.711 4.95601V14.2341C206.711 15.139 206.744 16.093 206.777 16.6361H204.556L204.442 15.4515H204.409C203.899 16.3565 202.928 16.8168 201.892 16.8168C199.983 16.8168 198.453 15.188 198.453 12.6877C198.437 9.97363 200.131 8.41074 202.055 8.41074C203.043 8.41074 203.816 8.75617 204.177 9.31571H204.21V4.95601H206.711ZM204.211 11.9968C204.211 11.8651 204.195 11.6843 204.178 11.5526C204.03 10.8782 203.487 10.3186 202.714 10.3186C201.579 10.3186 200.987 11.3385 200.987 12.6053C200.987 13.9706 201.661 14.8261 202.698 14.8261C203.421 14.8261 203.997 14.3329 204.146 13.6251C204.195 13.444 204.211 13.2632 204.211 13.0496V11.9968ZM210.231 13.4115C210.313 14.4478 211.333 14.9414 212.501 14.9414C213.356 14.9414 214.047 14.8261 214.722 14.6125L215.051 16.3067C214.229 16.6356 213.225 16.8003 212.139 16.8003C209.408 16.8003 207.845 15.221 207.845 12.7041C207.845 10.6641 209.112 8.41074 211.908 8.41074C214.507 8.41074 215.495 10.4343 215.495 12.4246C215.495 12.8524 215.446 13.2307 215.413 13.4115H210.231ZM213.176 11.7008C213.176 11.0923 212.913 10.072 211.76 10.072C210.707 10.072 210.28 11.0264 210.214 11.7008H213.176ZM216.58 11.2401C216.58 10.0556 216.547 9.28234 216.514 8.59148H218.67L218.752 10.072H218.817C219.229 8.90397 220.216 8.41032 220.989 8.41032C221.219 8.41032 221.334 8.41032 221.515 8.44326V10.7958C221.293 10.7526 221.067 10.7306 220.841 10.7299C219.919 10.7299 219.294 11.2232 219.13 11.9968C219.097 12.1615 219.081 12.3587 219.081 12.5559V16.6356H216.58V11.2401ZM229.97 8.59148C229.937 9.10161 229.904 9.776 229.904 10.9766V15.4676C229.904 17.014 229.592 18.2804 228.687 19.0866C227.798 19.8433 226.598 20.0735 225.413 20.0735C224.36 20.0735 223.241 19.8598 222.518 19.4485L223.012 17.5571C223.521 17.8531 224.41 18.1656 225.347 18.1656C226.532 18.1656 227.436 17.5237 227.436 16.0436V15.517H227.403C226.926 16.1914 226.153 16.5698 225.232 16.5698C223.241 16.5698 221.827 14.9575 221.827 12.6378C221.827 10.0551 223.505 8.4099 225.479 8.4099C226.58 8.4099 227.271 8.88708 227.683 9.54501H227.716L227.798 8.59106H229.97V8.59148ZM227.403 11.8651C227.403 11.7008 227.387 11.5361 227.354 11.4048C227.173 10.7464 226.696 10.3026 226.006 10.3026C225.101 10.3026 224.361 11.1252 224.361 12.5893C224.361 13.7903 224.953 14.7277 226.006 14.7277C226.648 14.7277 227.158 14.3 227.322 13.7079C227.387 13.5268 227.403 13.2637 227.403 13.05V11.8651ZM231.498 11.2401C231.498 10.0556 231.466 9.28234 231.433 8.59148H233.588L233.67 10.072H233.736C234.147 8.90397 235.134 8.41032 235.908 8.41032C236.138 8.41032 236.253 8.41032 236.434 8.44326V10.7958C236.212 10.7526 235.986 10.7306 235.759 10.7299C234.838 10.7299 234.213 11.2232 234.048 11.9968C234.016 12.1615 233.999 12.3587 233.999 12.5559V16.6356H231.498V11.2401ZM245.152 12.5234C245.152 15.468 243.062 16.8168 240.907 16.8168C238.555 16.8168 236.745 15.2704 236.745 12.6712C236.745 10.072 238.456 8.41032 241.039 8.41032C243.507 8.41074 245.152 10.105 245.152 12.5234ZM239.328 12.6057C239.328 13.9875 239.904 15.0238 240.973 15.0238C241.945 15.0238 242.569 14.0533 242.569 12.6057C242.569 11.4048 242.108 10.1873 240.973 10.1873C239.772 10.1873 239.328 11.4208 239.328 12.6057ZM253.869 14.0529C253.869 15.1057 253.902 15.9612 253.935 16.6356H251.764L251.649 15.5005H251.599C251.287 15.9942 250.53 16.8168 249.082 16.8168C247.455 16.8168 246.253 15.7965 246.253 13.3127V8.59148H248.77V12.9178C248.77 14.0859 249.148 14.7932 250.02 14.7932C250.712 14.7932 251.106 14.3164 251.271 13.9216C251.336 13.7734 251.353 13.5762 251.353 13.3785V8.59148H253.869V14.0529ZM255.464 11.1577C255.464 10.1544 255.432 9.29881 255.399 8.59148H257.57L257.685 9.69365H257.734C258.063 9.18353 258.886 8.41032 260.219 8.41032C261.864 8.41032 263.097 9.49602 263.097 11.8651V16.6356H260.597V12.1775C260.597 11.1413 260.235 10.4339 259.33 10.4339C258.638 10.4339 258.228 10.9111 258.063 11.3718C257.997 11.52 257.965 11.7667 257.965 11.9968V16.6356H255.464V11.1577ZM272.489 4.95601V14.2341C272.489 15.139 272.522 16.093 272.555 16.6361H270.334L270.22 15.4515H270.187C269.677 16.3565 268.707 16.8168 267.67 16.8168C265.761 16.8168 264.231 15.188 264.231 12.6877C264.215 9.97363 265.91 8.41074 267.834 8.41074C268.821 8.41074 269.594 8.75617 269.956 9.31571H269.988V4.95601H272.489ZM269.989 11.9968C269.989 11.8651 269.973 11.6843 269.957 11.5526C269.808 10.8782 269.265 10.3186 268.492 10.3186C267.357 10.3186 266.765 11.3385 266.765 12.6053C266.765 13.9706 267.439 14.8261 268.476 14.8261C269.199 14.8261 269.775 14.3329 269.924 13.6251C269.973 13.444 269.989 13.2632 269.989 13.0496V11.9968ZM179.06 20.7931C179.866 20.6613 181.067 20.5625 182.399 20.5625C184.045 20.5625 185.196 20.8091 185.986 21.4341C186.644 21.9607 187.005 22.7339 187.005 23.7537C187.005 25.1688 186.002 26.1384 185.048 26.4846V26.5341C185.821 26.8461 186.249 27.5868 186.528 28.6066C186.874 29.8566 187.219 31.3046 187.434 31.732H184.867C184.686 31.4195 184.423 30.5141 184.094 29.1489C183.798 27.7676 183.321 27.3888 182.301 27.3723H181.544V31.732H179.06V20.7931ZM181.544 25.5636H182.532C183.782 25.5636 184.522 24.9391 184.522 23.9678C184.522 22.948 183.831 22.4379 182.68 22.4218C182.072 22.4218 181.725 22.4708 181.545 22.5037L181.544 25.5636ZM190.081 28.5082C190.163 29.545 191.183 30.0382 192.351 30.0382C193.207 30.0382 193.897 29.9233 194.572 29.7097L194.901 31.4043C194.079 31.7328 193.075 31.8979 191.989 31.8979C189.258 31.8979 187.695 30.3186 187.695 27.8018C187.695 25.7621 188.962 23.5084 191.758 23.5084C194.357 23.5084 195.345 25.532 195.345 27.5222C195.345 27.95 195.295 28.3284 195.262 28.5091L190.081 28.5082ZM193.026 26.7976C193.026 26.1895 192.763 25.1692 191.611 25.1692C190.558 25.1692 190.13 26.1236 190.065 26.7976H193.026ZM196.348 29.545C196.808 29.8245 197.763 30.1531 198.503 30.1531C199.26 30.1531 199.572 29.89 199.572 29.4782C199.572 29.0669 199.325 28.8701 198.387 28.5568C196.726 27.9977 196.084 27.0927 196.101 26.1384C196.101 24.6414 197.384 23.5063 199.374 23.5063C200.312 23.5063 201.151 23.7204 201.644 23.967L201.2 25.6941C200.839 25.4965 200.147 25.2334 199.456 25.2334C198.848 25.2334 198.502 25.4804 198.502 25.8922C198.502 26.2705 198.814 26.4673 199.801 26.8136C201.331 27.3398 201.973 28.113 201.99 29.2975C201.99 30.7945 200.805 31.8967 198.502 31.8967C197.449 31.8967 196.511 31.6657 195.903 31.3376L196.348 29.545ZM205.017 28.5082C205.098 29.545 206.118 30.0382 207.287 30.0382C208.142 30.0382 208.833 29.9233 209.508 29.7097L209.836 31.4043C209.014 31.7328 208.011 31.8979 206.924 31.8979C204.193 31.8979 202.63 30.3186 202.63 27.8018C202.63 25.7621 203.897 23.5084 206.694 23.5084C209.293 23.5084 210.28 25.532 210.28 27.5222C210.28 27.95 210.231 28.3284 210.198 28.5091L205.017 28.5082ZM207.961 26.7976C207.961 26.1895 207.698 25.1692 206.546 25.1692C205.493 25.1692 205.066 26.1236 205 26.7976H207.961ZM215.938 31.7328L215.79 30.9271H215.741C215.215 31.569 214.392 31.9144 213.438 31.9144C211.81 31.9144 210.839 30.7299 210.839 29.4466C210.839 27.3575 212.714 26.3542 215.56 26.3702V26.2553C215.56 25.8276 215.33 25.219 214.096 25.219C213.274 25.219 212.401 25.4986 211.876 25.8276L211.414 24.2157C211.973 23.9036 213.077 23.5084 214.54 23.5084C217.221 23.5084 218.077 25.0877 218.077 26.98V29.776C218.077 30.5492 218.109 31.2894 218.191 31.7341H215.938V31.7328H215.938ZM215.642 27.9327C214.326 27.9162 213.306 28.2287 213.306 29.1995C213.306 29.8414 213.734 30.1531 214.294 30.1531C214.919 30.1531 215.429 29.7422 215.593 29.2325C215.627 29.0921 215.643 28.9482 215.642 28.8038V27.9327ZM219.639 26.3368C219.639 25.1523 219.606 24.3787 219.573 23.6887H221.729L221.811 25.1692H221.876C222.288 24.0007 223.275 23.5071 224.048 23.5071C224.279 23.5071 224.393 23.5071 224.575 23.54V25.8922C224.352 25.8491 224.126 25.8272 223.9 25.8267C222.978 25.8267 222.353 26.3204 222.189 27.0936C222.156 27.2583 222.14 27.4551 222.14 27.6523V31.7324H219.639V26.3368ZM231.384 31.5352C230.94 31.7328 230.101 31.8971 229.147 31.8971C226.548 31.8971 224.886 30.3177 224.886 27.7844C224.886 25.4323 226.498 23.5075 229.493 23.5075C230.15 23.5075 230.874 23.6224 231.401 23.82L231.006 25.6785C230.71 25.5467 230.266 25.4319 229.607 25.4319C228.292 25.4319 227.436 26.3698 227.452 27.686C227.452 29.1666 228.439 29.9394 229.657 29.9394C230.249 29.9394 230.71 29.8414 231.088 29.6928L231.384 31.5352ZM232.387 20.0528H234.888V24.6426H234.92C235.184 24.2972 235.513 24.0341 235.908 23.82C236.269 23.6224 236.746 23.5075 237.207 23.5075C238.803 23.5075 240.02 24.6097 240.02 27.0277V31.7328H237.519V27.3073C237.519 26.2545 237.158 25.5307 236.22 25.5307C235.562 25.5307 235.151 25.9585 234.97 26.4019C234.904 26.567 234.888 26.7802 234.888 26.9618V31.7324H232.387V20.0528ZM244.608 20.6453H251.386V22.7014H247.125V25.2347H251.106V27.2747H247.125V31.7328H244.608V20.6453ZM256.83 31.7328L256.682 30.9271H256.632C256.106 31.569 255.284 31.9144 254.33 31.9144C252.701 31.9144 251.731 30.7299 251.731 29.4466C251.731 27.3575 253.606 26.3542 256.452 26.3702V26.2553C256.452 25.8276 256.222 25.219 254.988 25.219C254.166 25.219 253.293 25.4986 252.767 25.8276L252.306 24.2157C252.865 23.9036 253.968 23.5084 255.432 23.5084C258.113 23.5084 258.969 25.0877 258.969 26.98V29.776C258.969 30.5492 259.001 31.2894 259.083 31.7341H256.83V31.7328H256.83ZM256.534 27.9327C255.218 27.9162 254.198 28.2287 254.198 29.1995C254.198 29.8414 254.626 30.1531 255.185 30.1531C255.81 30.1531 256.32 29.7422 256.484 29.2325C256.518 29.0921 256.534 28.9482 256.534 28.8038V27.9327ZM266.436 31.5352C265.992 31.7328 265.154 31.8971 264.199 31.8971C261.6 31.8971 259.938 30.3177 259.938 27.7844C259.938 25.4323 261.55 23.5075 264.544 23.5075C265.202 23.5075 265.926 23.6224 266.453 23.82L266.058 25.6785C265.762 25.5467 265.318 25.4319 264.659 25.4319C263.344 25.4319 262.488 26.3698 262.504 27.686C262.504 29.1666 263.491 29.9394 264.709 29.9394C265.301 29.9394 265.762 29.8414 266.14 29.6928L266.436 31.5352ZM269.989 21.451C269.989 22.1423 269.462 22.7009 268.64 22.7009C267.851 22.7009 267.324 22.1423 267.341 21.451C267.324 20.7272 267.851 20.1841 268.657 20.1841C269.463 20.1841 269.972 20.7272 269.989 21.451ZM267.405 31.7328V23.6887H269.906V31.7328H267.405ZM271.501 20.0528H274.002V31.7324H271.501V20.0528ZM278.196 21.451C278.196 22.1423 277.67 22.7009 276.847 22.7009C276.057 22.7009 275.531 22.1423 275.548 21.451C275.531 20.7272 276.057 20.1841 276.863 20.1841C277.67 20.1841 278.179 20.7272 278.196 21.451ZM275.613 31.7328V23.6887H278.114V31.7328H275.613ZM282.505 21.3859V23.6887H284.298V25.5311H282.505V28.4432C282.505 29.4132 282.735 29.8579 283.492 29.8579C283.804 29.8579 284.051 29.8254 284.232 29.7924L284.249 31.6838C283.92 31.8156 283.327 31.8979 282.62 31.8979C281.814 31.8979 281.14 31.6184 280.746 31.2071C280.284 30.7295 280.054 29.9567 280.054 28.8216V25.5315H278.985V23.6895H280.054V21.9455L282.505 21.3859ZM287.44 23.6887L288.641 27.6362C288.773 28.1138 288.937 28.7059 289.036 29.1336H289.086C289.2 28.7059 289.332 28.0974 289.447 27.6362L290.434 23.6887H293.116L291.241 28.9854C290.089 32.1767 289.316 33.46 288.411 34.2657C287.731 34.863 286.89 35.2464 285.993 35.3679L285.466 33.2463C285.779 33.1969 286.174 33.0483 286.552 32.8181C286.93 32.6205 287.342 32.2261 287.588 31.8143C287.67 31.6999 287.72 31.5677 287.72 31.4533C287.72 31.3709 287.704 31.2388 287.606 31.0415L284.66 23.6878H287.44V23.6887ZM44.0294 25.795C45.588 26.5936 47.9824 27.3913 50.4536 27.3913C53.1149 27.3913 54.5215 26.2887 54.5215 24.6156C54.5215 23.0189 53.3053 22.1068 50.2265 21.005C45.9685 19.5224 43.1937 17.1652 43.1937 13.4398C43.1937 9.06867 46.8431 5.72331 52.8873 5.72331C55.7761 5.72331 57.9053 6.33098 59.4256 7.01551L58.1329 11.6919C57.1064 11.1978 55.2817 10.4749 52.7724 10.4749C50.264 10.4749 49.0474 11.6155 49.0474 12.9457C49.0474 14.5804 50.4916 15.3029 53.7994 16.5575C58.3234 18.2298 60.4517 20.5866 60.4517 24.198C60.4517 28.493 57.1448 32.142 50.1124 32.142C47.1851 32.142 44.2958 31.3828 42.8512 30.5846L44.0294 25.795ZM74.0975 31.7628L73.7559 29.9009H73.6419C72.4253 31.384 70.525 32.1813 68.3198 32.1813C64.5564 32.1813 62.3136 29.4449 62.3136 26.4792C62.3136 21.6503 66.6471 19.3319 73.2234 19.3704V19.1052C73.2234 18.1162 72.6913 16.7104 69.8404 16.7104C67.9397 16.7104 65.925 17.3561 64.708 18.1166L63.6438 14.3916C64.9364 13.6691 67.4832 12.7569 70.8666 12.7569C77.0628 12.7569 79.0395 16.4059 79.0395 20.7779V27.2393C79.0395 29.0264 79.1156 30.7371 79.3056 31.7637H74.0975V31.7628ZM73.4138 22.9813C70.3725 22.9442 68.0157 23.6659 68.0157 25.9091C68.0157 27.3921 69.0043 28.1142 70.2961 28.1142C71.7407 28.1142 72.9193 27.1641 73.2994 25.9847C73.377 25.6612 73.4154 25.3296 73.4138 24.9969V22.9813ZM82.6509 19.1047C82.6509 16.7855 82.5749 14.8088 82.4989 13.1737H87.5165L87.7826 15.7205H87.8966C88.6571 14.5419 90.5579 12.7557 93.6372 12.7557C97.4386 12.7557 100.289 15.2645 100.289 20.7373V31.762H94.5113V21.4615C94.5113 19.0663 93.6752 17.4321 91.584 17.4321C89.9873 17.4321 89.0372 18.5342 88.6571 19.5988C88.5051 19.9409 88.4287 20.5105 88.4287 21.043V31.7632H82.6505L82.6509 19.1047ZM104.623 31.7628V17.4316H102.189V13.1737H104.623V12.452C104.623 10.2097 105.307 7.73804 106.979 6.21738C108.424 4.84875 110.439 4.3551 112.111 4.3551C113.404 4.3551 114.392 4.50754 115.19 4.73473L114.962 9.18311C114.468 9.03066 113.86 8.91707 113.1 8.91707C111.199 8.91707 110.401 10.3993 110.401 12.224V13.1741H114.126V17.4321H110.439V31.7632L104.623 31.7628ZM133.969 22.2597C133.969 29.0648 129.141 32.1813 124.161 32.1813C118.725 32.1813 114.544 28.6071 114.544 22.6013C114.544 16.5951 118.498 12.7561 124.466 12.7561C130.168 12.7561 133.969 16.6715 133.969 22.2597ZM120.512 22.4488C120.512 25.6422 121.843 28.0365 124.313 28.0365C126.557 28.0365 128.001 25.7946 128.001 22.4488C128.001 19.6753 126.937 16.8616 124.313 16.8616C121.539 16.8616 120.512 19.7124 120.512 22.4488ZM136.592 19.2939C136.592 16.5575 136.515 14.7712 136.44 13.1733H141.419L141.609 16.5951H141.761C142.712 13.8958 144.993 12.7557 146.78 12.7557C147.312 12.7557 147.578 12.7557 147.996 12.8321V18.2682C147.578 18.1926 147.084 18.1162 146.437 18.1162C144.309 18.1162 142.864 19.2564 142.484 21.043C142.408 21.4227 142.37 21.8788 142.37 22.3365V31.7624H136.592V19.2939ZM167.801 4.77274V26.2114C167.801 28.3039 167.877 30.5082 167.952 31.7628H162.821L162.554 29.026H162.478C161.299 31.1159 159.057 32.1821 156.663 32.1821C152.253 32.1821 148.718 28.4191 148.718 22.6397C148.68 16.3679 152.596 12.7569 157.043 12.7569C159.324 12.7569 161.111 13.555 161.947 14.8477H162.023V4.77274H167.801ZM162.023 21.0426C162.023 20.7382 161.984 20.3209 161.947 20.0165C161.604 18.4582 160.351 17.1652 158.563 17.1652C155.939 17.1652 154.572 19.5228 154.572 22.4488C154.572 25.6042 156.13 27.5805 158.525 27.5805C160.198 27.5805 161.527 26.4407 161.87 24.8065C161.984 24.388 162.022 23.9708 162.022 23.4754V21.0426H162.023ZM20.35 0.619119C16.7526 0.133202 13.0935 0.793711 9.89293 2.50674L11.6839 5.62534C14.3859 4.17821 17.4754 3.61966 20.513 4.02909C28.5238 5.09874 34.1508 12.4592 33.082 20.47C32.0128 28.4804 24.6519 34.1078 16.6411 33.0385C8.6303 31.9693 3.00247 24.6084 4.0717 16.5981C4.4753 13.5361 5.8419 10.6818 7.97406 8.44748L5.44245 5.90362C2.94141 8.54554 1.33862 11.9098 0.862742 15.5166C-0.404543 25.0117 6.26549 33.7374 15.7606 35.0039C25.2558 36.2703 33.9806 29.6015 35.2479 20.1068C36.5148 10.6117 29.8452 1.8864 20.35 0.619119Z" fill="white"/>
<path d="M20.5025 4.89763C17.6234 4.50829 14.6948 5.03703 12.1336 6.40858L13.9199 9.51999C15.9928 8.39576 18.3696 7.96007 20.7065 8.27593C26.8208 9.09137 31.1158 14.7103 30.2991 20.8238C29.4837 26.9385 23.8656 31.2327 17.7513 30.4177C11.637 29.6019 7.34148 23.9829 8.15734 17.8695C8.4668 15.527 9.51431 13.344 11.148 11.6369L8.61172 9.08799C6.59068 11.207 5.2954 13.9135 4.9129 16.8167C3.89814 24.4115 9.23417 31.3915 16.8303 32.405C24.4268 33.4193 31.4064 28.0825 32.4199 20.4872C33.4346 12.8911 28.0977 5.91112 20.5025 4.89763Z" fill="white"/>
<path d="M20.6967 9.15006C18.5192 8.85604 16.3046 9.26199 14.373 10.3092L16.1605 13.4228C17.6005 12.6306 19.2567 12.3217 20.8855 12.5415C25.1041 13.1044 28.0673 16.9814 27.5044 21.2C26.9415 25.4178 23.0649 28.3815 18.8463 27.8185C14.6276 27.2552 11.6636 23.379 12.2269 19.1612C12.442 17.5289 13.1767 16.0091 14.3223 14.8264L11.7898 12.2813C10.2678 13.8719 9.29196 15.906 9.004 18.0886C8.24346 23.7853 12.2455 29.0208 17.9426 29.7809C23.6396 30.541 28.8743 26.5394 29.6349 20.8411C30.3958 15.1457 26.3934 9.91018 20.6967 9.15006Z" fill="white"/>
<path d="M20.8737 13.4211C19.406 13.223 17.9134 13.5018 16.6162 14.2163L18.8551 18.1144C19.517 17.7319 20.2871 17.5799 21.0447 17.6824C21.4963 17.7426 21.9315 17.8912 22.3257 18.1197C22.7198 18.3481 23.0651 18.652 23.3418 19.0139C23.6185 19.3758 23.8212 19.7887 23.9383 20.2289C24.0554 20.6691 24.0846 21.1282 24.0244 21.5797C23.9642 22.0313 23.8157 22.4666 23.5873 22.8608C23.3589 23.255 23.055 23.6003 22.6931 23.8771C22.3312 24.1538 21.9183 24.3565 21.478 24.4735C21.0377 24.5906 20.5786 24.6198 20.1271 24.5594C19.6756 24.4991 19.2403 24.3506 18.8462 24.1221C18.4522 23.8937 18.1069 23.5899 17.8303 23.228C17.5536 22.8662 17.351 22.4533 17.2339 22.0131C17.1168 21.5729 17.0875 21.114 17.1478 20.6625C17.2475 19.904 17.5965 19.2002 18.1398 18.6617L14.9688 15.4751C13.9359 16.54 13.2734 17.9092 13.0795 19.38C12.5719 23.1776 15.2404 26.6683 19.0384 27.175C22.8365 27.6809 26.3262 25.0137 26.833 21.2153C27.3397 17.4176 24.6721 13.9274 20.8737 13.4211Z" fill="white"/>
</g>
<defs>
<clipPath id="clip0_565_5467">
<rect width="293.384" height="36" fill="white"/>
</clipPath>
</defs>
</svg>
