<svg fill="none" height="36" viewBox="0 0 294 36" width="294" xmlns="http://www.w3.org/2000/svg" xmlns:xlink="http://www.w3.org/1999/xlink"><clipPath id="a"><path d="m0 0h293.384v36h-293.384z"/></clipPath><g clip-path="url(#a)" fill="#fff"><path d="m181.561 5.54806v6.38284c0 1.9083.724 2.8788 2.007 2.8788 1.316 0 2.04-.921 2.04-2.8788v-6.38284h2.5v6.21864c0 3.4218-1.727 5.0501-4.622 5.0501-2.797 0-4.442-1.5464-4.442-5.0835v-6.18524zm8.125 5.60964c0-1.0033-.032-1.85889-.065-2.56622h2.172l.115 1.10217h.049c.329-.51012 1.152-1.28333 2.484-1.28333 1.646 0 2.879 1.0857 2.879 3.45478v4.7705h-2.501v-4.4581c0-1.0362-.361-1.7436-1.267-1.7436-.691 0-1.101.4772-1.266.9379-.066.1482-.098.3949-.098.625v4.6388h-2.502zm17.025-6.20169v9.27809c0 .9049.033 1.8589.066 2.402h-2.221l-.114-1.1846h-.033c-.51.905-1.481 1.3653-2.517 1.3653-1.909 0-3.439-1.6288-3.439-4.1291-.016-2.71407 1.678-4.27696 3.602-4.27696.988 0 1.761.34543 2.122.90497h.033v-4.3597zm-2.5 7.04079c0-.1317-.016-.3125-.033-.4442-.148-.6744-.691-1.234-1.464-1.234-1.135 0-1.727 1.0199-1.727 2.2867 0 1.3653.674 2.2208 1.711 2.2208.723 0 1.299-.4932 1.448-1.201.049-.1811.065-.3619.065-.5755zm6.02 1.4147c.082 1.0363 1.102 1.5299 2.27 1.5299.855 0 1.546-.1153 2.221-.3289l.329 1.6942c-.822.3289-1.826.4936-2.912.4936-2.731 0-4.294-1.5793-4.294-4.0962 0-2.04 1.267-4.29336 4.063-4.29336 2.599 0 3.587 2.02356 3.587 4.01386 0 .4278-.049.8061-.082.9869zm2.945-1.7107c0-.6085-.263-1.6288-1.416-1.6288-1.053 0-1.48.9544-1.546 1.6288zm3.404-.4607c0-1.1845-.033-1.95776-.066-2.64862h2.156l.082 1.48052h.065c.412-1.16803 1.399-1.66168 2.172-1.66168.23 0 .345 0 .526.03294v2.35254c-.222-.0432-.448-.0652-.674-.0659-.922 0-1.547.4933-1.711 1.2669-.033.1647-.049.3619-.049.5591v4.0797h-2.501zm13.39-2.64862c-.033.51013-.066 1.18452-.066 2.38512v4.491c0 1.5464-.312 2.8128-1.217 3.619-.889.7567-2.089.9869-3.274.9869-1.053 0-2.172-.2137-2.895-.625l.494-1.8914c.509.296 1.398.6085 2.335.6085 1.185 0 2.089-.6419 2.089-2.122v-.5266h-.033c-.477.6744-1.25 1.0528-2.171 1.0528-1.991 0-3.405-1.6123-3.405-3.932 0-2.5827 1.678-4.2279 3.652-4.2279 1.101 0 1.792.47718 2.204 1.13511h.033l.082-.95395h2.172zm-2.567 3.27362c0-.1643-.016-.329-.049-.4603-.181-.6584-.658-1.1022-1.348-1.1022-.905 0-1.645.8226-1.645 2.2867 0 1.201.592 2.1384 1.645 2.1384.642 0 1.152-.4277 1.316-1.0198.065-.1811.081-.4442.081-.6579zm4.095-.625c0-1.1845-.032-1.95776-.065-2.64862h2.155l.082 1.48052h.066c.411-1.16803 1.398-1.66168 2.172-1.66168.23 0 .345 0 .526.03294v2.35254c-.222-.0432-.448-.0652-.675-.0659-.921 0-1.546.4933-1.711 1.2669-.032.1647-.049.3619-.049.5591v4.0797h-2.501zm13.654 1.2833c0 2.9446-2.09 4.2934-4.245 4.2934-2.352 0-4.162-1.5464-4.162-4.1456s1.711-4.26088 4.294-4.26088c2.468.00042 4.113 1.69468 4.113 4.11308zm-5.824.0823c0 1.3818.576 2.4181 1.645 2.4181.972 0 1.596-.9705 1.596-2.4181 0-1.2009-.461-2.4184-1.596-2.4184-1.201 0-1.645 1.2335-1.645 2.4184zm14.541 1.4472c0 1.0528.033 1.9083.066 2.5827h-2.171l-.115-1.1351h-.05c-.312.4937-1.069 1.3163-2.517 1.3163-1.627 0-2.829-1.0203-2.829-3.5041v-4.72122h2.517v4.32632c0 1.1681.378 1.8754 1.25 1.8754.692 0 1.086-.4768 1.251-.8716.065-.1482.082-.3454.082-.5431v-4.78702h2.516zm1.595-2.8952c0-1.0033-.032-1.85889-.065-2.56622h2.171l.115 1.10217h.049c.329-.51012 1.152-1.28333 2.485-1.28333 1.645 0 2.878 1.0857 2.878 3.45478v4.7705h-2.5v-4.4581c0-1.0362-.362-1.7436-1.267-1.7436-.692 0-1.102.4772-1.267.9379-.066.1482-.098.3949-.098.625v4.6388h-2.501zm17.025-6.20169v9.27809c0 .9049.033 1.8589.066 2.402h-2.221l-.114-1.1846h-.033c-.51.905-1.48 1.3653-2.517 1.3653-1.909 0-3.439-1.6288-3.439-4.1291-.016-2.71407 1.679-4.27696 3.603-4.27696.987 0 1.76.34543 2.122.90497h.032v-4.3597zm-2.5 7.04079c0-.1317-.016-.3125-.032-.4442-.149-.6744-.692-1.234-1.465-1.234-1.135 0-1.727 1.0199-1.727 2.2867 0 1.3653.674 2.2208 1.711 2.2208.723 0 1.299-.4932 1.448-1.201.049-.1811.065-.3619.065-.5755zm-90.929 8.7963c.806-.1318 2.007-.2306 3.339-.2306 1.646 0 2.797.2466 3.587.8716.658.5266 1.019 1.2998 1.019 2.3196 0 1.4151-1.003 2.3847-1.957 2.7309v.0495c.773.312 1.201 1.0527 1.48 2.0725.346 1.25.691 2.698.906 3.1254h-2.567c-.181-.3125-.444-1.2179-.773-2.5831-.296-1.3813-.773-1.7601-1.793-1.7766h-.757v4.3597h-2.484zm2.484 4.7705h.988c1.25 0 1.99-.6245 1.99-1.5958 0-1.0198-.691-1.5299-1.842-1.546-.608 0-.955.049-1.135.0819zm8.537 2.9446c.082 1.0368 1.102 1.53 2.27 1.53.856 0 1.546-.1149 2.221-.3285l.329 1.6946c-.822.3285-1.826.4936-2.912.4936-2.731 0-4.294-1.5793-4.294-4.0961 0-2.0397 1.267-4.2934 4.063-4.2934 2.599 0 3.587 2.0236 3.587 4.0138 0 .4278-.05.8062-.083.9869zm2.945-1.7106c0-.6081-.263-1.6284-1.415-1.6284-1.053 0-1.481.9544-1.546 1.6284zm3.322 2.7474c.46.2795 1.415.6081 2.155.6081.757 0 1.069-.2631 1.069-.6749 0-.4113-.247-.6081-1.185-.9214-1.661-.5591-2.303-1.4641-2.286-2.4184 0-1.497 1.283-2.6321 3.273-2.6321.938 0 1.777.2141 2.27.4607l-.444 1.7271c-.361-.1976-1.053-.4607-1.744-.4607-.608 0-.954.247-.954.6588 0 .3783.312.5751 1.299.9214 1.53.5262 2.172 1.2994 2.189 2.4839 0 1.497-1.185 2.5992-3.488 2.5992-1.053 0-1.991-.231-2.599-.5591zm8.669-1.0368c.081 1.0368 1.101 1.53 2.27 1.53.855 0 1.546-.1149 2.221-.3285l.328 1.6946c-.822.3285-1.825.4936-2.912.4936-2.731 0-4.294-1.5793-4.294-4.0961 0-2.0397 1.267-4.2934 4.064-4.2934 2.599 0 3.586 2.0236 3.586 4.0138 0 .4278-.049.8062-.082.9869zm2.944-1.7106c0-.6081-.263-1.6284-1.415-1.6284-1.053 0-1.48.9544-1.546 1.6284zm7.977 4.9352-.148-.8057h-.049c-.526.6419-1.349.9873-2.303.9873-1.628 0-2.599-1.1845-2.599-2.4678 0-2.0891 1.875-3.0924 4.721-3.0764v-.1149c0-.4277-.23-1.0363-1.464-1.0363-.822 0-1.695.2796-2.22.6086l-.462-1.6119c.559-.3121 1.663-.7073 3.126-.7073 2.681 0 3.537 1.5793 3.537 3.4716v2.796c0 .7732.032 1.5134.114 1.9581h-2.253zm-.296-3.8001c-1.316-.0165-2.336.296-2.336 1.2668 0 .6419.428.9536.988.9536.625 0 1.135-.4109 1.299-.9206.034-.1404.05-.2843.049-.4287zm3.997-1.5959c0-1.1845-.033-1.9581-.066-2.6481h2.156l.082 1.4805h.065c.412-1.1685 1.399-1.6621 2.172-1.6621.231 0 .345 0 .527.0329v2.3522c-.223-.0431-.449-.065-.675-.0655-.922 0-1.547.4937-1.711 1.2669-.033.1647-.049.3615-.049.5587v4.0801h-2.501zm11.745 5.1984c-.444.1976-1.283.3619-2.237.3619-2.599 0-4.261-1.5794-4.261-4.1127 0-2.3521 1.612-4.2769 4.607-4.2769.657 0 1.381.1149 1.908.3125l-.395 1.8585c-.296-.1318-.74-.2466-1.399-.2466-1.315 0-2.171.9379-2.155 2.2541 0 1.4806.987 2.2534 2.205 2.2534.592 0 1.053-.098 1.431-.2466zm1.003-11.4824h2.501v4.5898h.032c.264-.3454.593-.6085.988-.8226.361-.1976.838-.3125 1.299-.3125 1.596 0 2.813 1.1022 2.813 3.5202v4.7051h-2.501v-4.4255c0-1.0528-.361-1.7766-1.299-1.7766-.658 0-1.069.4278-1.25.8712-.066.1651-.082.3783-.082.5599v4.7706h-2.501zm12.221.5925h6.778v2.0561h-4.261v2.5333h3.981v2.04h-3.981v4.4581h-2.517zm12.222 11.0875-.148-.8057h-.05c-.526.6419-1.348.9873-2.302.9873-1.629 0-2.599-1.1845-2.599-2.4678 0-2.0891 1.875-3.0924 4.721-3.0764v-.1149c0-.4277-.23-1.0363-1.464-1.0363-.822 0-1.695.2796-2.221.6086l-.461-1.6119c.559-.3121 1.662-.7073 3.126-.7073 2.681 0 3.537 1.5793 3.537 3.4716v2.796c0 .7732.032 1.5134.114 1.9581h-2.253zm-.296-3.8001c-1.316-.0165-2.336.296-2.336 1.2668 0 .6419.428.9536.987.9536.625 0 1.135-.4109 1.299-.9206.034-.1404.05-.2843.05-.4287zm9.902 3.6025c-.444.1976-1.282.3619-2.237.3619-2.599 0-4.261-1.5794-4.261-4.1127 0-2.3521 1.612-4.2769 4.606-4.2769.658 0 1.382.1149 1.909.3125l-.395 1.8585c-.296-.1318-.74-.2466-1.399-.2466-1.315 0-2.171.9379-2.155 2.2541 0 1.4806.987 2.2534 2.205 2.2534.592 0 1.053-.098 1.431-.2466zm3.553-10.0842c0 .6913-.527 1.2499-1.349 1.2499-.789 0-1.316-.5586-1.299-1.2499-.017-.7238.51-1.2669 1.316-1.2669s1.315.5431 1.332 1.2669zm-2.584 10.2818v-8.0441h2.501v8.0441zm4.096-11.68h2.501v11.6796h-2.501zm6.695 1.3982c0 .6913-.526 1.2499-1.349 1.2499-.79 0-1.316-.5586-1.299-1.2499-.017-.7238.509-1.2669 1.315-1.2669.807 0 1.316.5431 1.333 1.2669zm-2.583 10.2818v-8.0441h2.501v8.0441zm6.892-10.3469v2.3028h1.793v1.8424h-1.793v2.9121c0 .97.23 1.4147.987 1.4147.312 0 .559-.0325.74-.0655l.017 1.8914c-.329.1318-.922.2141-1.629.2141-.806 0-1.48-.2795-1.874-.6908-.462-.4776-.692-1.2504-.692-2.3855v-3.2901h-1.069v-1.842h1.069v-1.744zm4.935 2.3028 1.201 3.9475c.132.4776.296 1.0697.395 1.4974h.05c.114-.4277.246-1.0362.361-1.4974l.987-3.9475h2.682l-1.875 5.2967c-1.152 3.1913-1.925 4.4746-2.83 5.2803-.68.5973-1.521.9807-2.418 1.1022l-.527-2.1216c.313-.0494.708-.198 1.086-.4282.378-.1976.79-.592 1.036-1.0038.082-.1144.132-.2466.132-.361 0-.0824-.016-.2145-.114-.4118l-2.946-7.3537h2.78zm-243.4106 2.1063c1.5586.7986 3.953 1.5963 6.4242 1.5963 2.6613 0 4.0679-1.1026 4.0679-2.7757 0-1.5967-1.2162-2.5088-4.295-3.6106-4.258-1.4826-7.0328-3.8398-7.0328-7.5652 0-4.37113 3.6494-7.71649 9.6936-7.71649 2.8888 0 5.018.60767 6.5383 1.2922l-1.2927 4.67639c-1.0265-.4941-2.8512-1.217-5.3605-1.217-2.5084 0-3.725 1.1406-3.725 2.4708 0 1.6347 1.4442 2.3572 4.752 3.6118 4.524 1.6723 6.6523 4.0291 6.6523 7.6405 0 4.295-3.3069 7.944-10.3393 7.944-2.9273 0-5.8166-.7592-7.2612-1.5574zm30.0681 5.9678-.3416-1.8619h-.114c-1.2166 1.4831-3.1169 2.2804-5.3221 2.2804-3.7634 0-6.0062-2.7364-6.0062-5.7021 0-4.8289 4.3335-7.1473 10.9098-7.1088v-.2652c0-.989-.5321-2.3948-3.383-2.3948-1.9007 0-3.9154.6457-5.1324 1.4062l-1.0642-3.725c1.2926-.7225 3.8394-1.6347 7.2228-1.6347 6.1962 0 8.1729 3.649 8.1729 8.021v6.4614c0 1.7871.0761 3.4978.2661 4.5244h-5.2081zm-.6837-8.7815c-3.0413-.0371-5.3981.6846-5.3981 2.9278 0 1.483.9886 2.2051 2.2804 2.2051 1.4446 0 2.6232-.9501 3.0033-2.1295.0776-.3235.116-.6551.1144-.9878zm9.2371-3.8766c0-2.3192-.076-4.2959-.152-5.931h5.0176l.2661 2.5468h.114c.7605-1.1786 2.6613-2.9648 5.7406-2.9648 3.8014 0 6.6518 2.5088 6.6518 7.9816v11.0247h-5.7777v-10.3005c0-2.3952-.8361-4.0294-2.9273-4.0294-1.5967 0-2.5468 1.1021-2.9269 2.1667-.152.3421-.2284.9117-.2284 1.4442v10.7202h-5.7782zm21.9721 12.6581v-14.3312h-2.434v-4.2579h2.434v-.7217c0-2.2423.684-4.71396 2.356-6.23462 1.445-1.36863 3.46-1.86228 5.132-1.86228 1.293 0 2.281.15244 3.079.37963l-.228 4.44838c-.494-.15245-1.102-.26604-1.862-.26604-1.901 0-2.699 1.48223-2.699 3.30693v.9501h3.725v4.258h-3.687v14.3311zm29.346-9.5031c0 6.8051-4.828 9.9216-9.808 9.9216-5.436 0-9.617-3.5742-9.617-9.58 0-6.0062 3.954-9.8452 9.922-9.8452 5.702 0 9.503 3.9154 9.503 9.5036zm-13.457.1891c0 3.1934 1.331 5.5877 3.801 5.5877 2.244 0 3.688-2.2419 3.688-5.5877 0-2.7735-1.064-5.5872-3.688-5.5872-2.774 0-3.801 2.8508-3.801 5.5872zm16.08-3.1549c0-2.7364-.077-4.5227-.152-6.1206h4.979l.19 3.4218h.152c.951-2.6993 3.232-3.8394 5.019-3.8394.532 0 .798 0 1.216.0764v5.4361c-.418-.0756-.912-.152-1.559-.152-2.128 0-3.573 1.1402-3.953 2.9268-.076.3797-.114.8358-.114 1.2935v9.4259h-5.778zm31.209-14.52116v21.43866c0 2.0925.076 4.2968.151 5.5514h-5.131l-.267-2.7368h-.076c-1.179 2.0899-3.421 3.1561-5.815 3.1561-4.41 0-7.945-3.763-7.945-9.5424-.038-6.2718 3.878-9.8828 8.325-9.8828 2.281 0 4.068.7981 4.904 2.0908h.076v-10.07496zm-5.778 16.26986c0-.3044-.039-.7217-.076-1.0261-.343-1.5583-1.596-2.8513-3.384-2.8513-2.624 0-3.991 2.3576-3.991 5.2836 0 3.1554 1.558 5.1317 3.953 5.1317 1.673 0 3.002-1.1398 3.345-2.774.114-.4185.152-.8357.152-1.3311v-2.4328zm-141.673-20.423481c-3.5974-.485917-7.2565.174592-10.45707 1.887621l1.79097 3.1186c2.702-1.44713 5.7915-2.00568 8.8291-1.59625 8.0108 1.06965 13.6378 8.43011 12.569 16.44091-1.0692 8.0104-8.4301 13.6378-16.4409 12.5685-8.0108-1.0692-13.63863-8.4301-12.5694-16.4404.4036-3.062 1.7702-5.9163 3.90236-8.15062l-2.53161-2.54386c-2.50104 2.64192-4.10383 6.00618-4.579708 9.61298-1.267285 9.4951 5.402748 18.2208 14.897858 19.4873 9.4952 1.2664 18.22-5.4024 19.4873-14.8971 1.2669-9.4951-5.4027-18.2204-14.8979-19.487681z"/><path d="m20.5025 4.89763c-2.8791-.38934-5.8077.1394-8.3689 1.51095l1.7863 3.11141c2.0729-1.12423 4.4497-1.55992 6.7866-1.24406 6.1143.81544 10.4093 6.43437 9.5926 12.54787-.8154 6.1147-6.4335 10.4089-12.5478 9.5939-6.1143-.8158-10.40982-6.4348-9.59396-12.5482.30946-2.3425 1.35697-4.5255 2.99066-6.2326l-2.53628-2.54891c-2.02104 2.11901-3.31632 4.82551-3.69882 7.72871-1.01476 7.5948 4.32127 14.5748 11.9174 15.5883 7.5965 1.0143 14.5761-4.3225 15.5896-11.9178 1.0147-7.5961-4.3222-14.57608-11.9174-15.58957z"/><path d="m20.6967 9.15006c-2.1775-.29402-4.3921.11193-6.3237 1.15914l1.7875 3.1136c1.44-.7922 3.0962-1.1011 4.725-.8813 4.2186.5629 7.1818 4.4399 6.6189 8.6585-.5629 4.2178-4.4395 7.1815-8.6581 6.6185-4.2187-.5633-7.1827-4.4395-6.6194-8.6573.2151-1.6323.9498-3.1521 2.0954-4.3348l-2.5325-2.5451c-1.522 1.5906-2.49784 3.6247-2.7858 5.8073-.76054 5.6967 3.2415 10.9322 8.9386 11.6923 5.697.7601 10.9317-3.2415 11.6923-8.9398.7609-5.6954-3.2415-10.93092-8.9382-11.69104z"/><path d="m20.8737 13.4211c-1.4677-.1981-2.9603.0807-4.2575.7952l2.2389 3.8981c.6619-.3825 1.432-.5345 2.1896-.432.4516.0602.8868.2088 1.281.4373.3941.2284.7394.5323 1.0161.8942s.4794.7748.5965 1.215.1463.8993.0861 1.3508c-.0602.4516-.2087.8869-.4371 1.2811s-.5323.7395-.8942 1.0163c-.3619.2767-.7748.4794-1.2151.5964-.4403.1171-.8994.1463-1.3509.0859-.4515-.0603-.8868-.2088-1.2809-.4373-.394-.2284-.7393-.5322-1.0159-.8941-.2767-.3618-.4793-.7747-.5964-1.2149s-.1464-.8991-.0861-1.3506c.0997-.7585.4487-1.4623.992-2.0008l-3.171-3.1866c-1.0329 1.0649-1.6954 2.4341-1.8893 3.9049-.5076 3.7976 2.1609 7.2883 5.9589 7.795 3.7981.5059 7.2878-2.1613 7.7946-5.9597.5067-3.7977-2.1609-7.2879-5.9593-7.7942z"/></g></svg>