<svg width="23" height="24" xmlns="http://www.w3.org/2000/svg">
  <g fill="#5C606B" fill-rule="nonzero">
    <path d="M21.66168976 15.34253084l-19.49999996 8.625c-.247915.1096547-.5266898-.07186775-.5266898-.34295075v-8.625c0-.20710678.1678932-.375.375-.375h19.5c.40539735 0 .52243996.55396508.15168976.71795075zm-1.92612976.03204925H2.385v7.67448l17.35056-7.67448zM21.51 9.2995801H2.01c-.1656854 0-.3-.1343146-.3-.3v-8.625c0-.2168664.2230198-.3620844.4213518-.2743606l19.5 8.625c.29660017.1311885.20296608.5743606-.1213518.5743606z"/>
    <path d="M11.83804 15.26474513l-.53033-.53033008-7.881375 7.881375.53033.53033008zM15.01129004 15.26474513l-.53033008-.53033008-5.36474996 5.36475.53033.53033008zM5.49154 15.26474513l-.53033-.53033008-3.216375 3.216375.53033.53033008zM8.66479 15.26474513l-.53033-.53033008-6.389625 6.389625.53033.53033008zM18.25354004 15.26474513l-.53033008-.53033008-2.793 2.793.53033008.53033008zM20.791875 12.3745799H19.3173c-.20710679 0-.375-.2238576-.375-.5s.16789321-.5.375-.5h1.474575c.20710678 0 .375.2238576.375.5s-.16789322.5-.375.5zm-3.3178125 0h-1.474575c-.20710679 0-.375-.2238576-.375-.5s.16789321-.5.375-.5h1.474575c.20710678 0 .375.2238576.375.5s-.16789322.5-.375.5zm-3.3178125 0h-1.474575c-.2071068 0-.375-.2238576-.375-.5s.1678932-.5.375-.5h1.474575c.20710678 0 .375.2238576.375.5s-.16789322.5-.375.5zm-3.3178125 0h-1.474575c-.2071068 0-.375-.2238576-.375-.5s.1678932-.5.375-.5h1.474575c.2071068 0 .375.2238576.375.5s-.1678932.5-.375.5zm-3.3178125 0H6.04605c-.2071068 0-.375-.2238576-.375-.5s.1678932-.5.375-.5h1.474575c.2071068 0 .375.2238576.375.5s-.1678932.5-.375.5zm-3.3178125 0h-1.474575c-.2071068 0-.375-.2238576-.375-.5s.1678932-.5.375-.5h1.474575c.2071068 0 .375.2238576.375.5s-.1678932.5-.375.5z"/>
  </g>
</svg>
