<svg width="24" height="24" xmlns="http://www.w3.org/2000/svg">
  <path d="M22.8476 0c-.0258 0-.0516.00077-.07736.002401-.30266.00904-.59072.132136-.80645.344617l-5.15751 5.16454V3.598542c-.00257-.659247-.53636-1.193032-1.19561-1.195601-.65924.002571-1.19303.536356-1.1956 1.195601v4.803516c.00263.659223.53638 1.192977 1.1956 1.195613h4.80352c.65925-.002571 1.19304-.536363 1.19561-1.195613.00124-.318337-.12403-.62413-.34825-.850107-.22422-.225977-.52902-.353627-.84736-.354868h-1.90593l5.15751-5.148144c.22648-.22528.35381-.531544.35381-.850985s-.12733-.625705-.35381-.850984C23.44749.130892 23.15467.006716 22.8476 0zM1.24934.002401C.9159-.012231.59143.112633.35381.347018.12733.572297 0 .878561 0 1.198002s.12733.625705.35381.850985l5.15751 5.148144H3.60539c-.31834.001241-.62314.128891-.84736.354868-.22422.225977-.34949.53177-.34825.850107.00257.65925.53636 1.193042 1.19561 1.195613h4.80352c.65922-.002636 1.19297-.53639 1.1956-1.195613V3.598542c-.00257-.659245-.53636-1.19303-1.1956-1.195601-.65925.002571-1.19303.536356-1.19561 1.195601V5.51151L2.05579.34697C1.84007.134489 1.552.011393 1.24934.002353v.000048zm2.35605 14.401126c-.66014.002626-1.1943.537809-1.19561 1.197954-.00124.318339.12402.624135.34824.850114.22422.22598.52903.353631.84737.354873h1.90359L.35381 21.952259C.12733 22.177539 0 22.483803 0 22.803244s.12733.625705.35381.850984c.23762.234385.56209.359249.89553.344616.30266-.009039.59073-.132135.80645-.344616l5.15751-5.16454v1.912968c.00258.659245.53636 1.19303 1.19561 1.195601.65924-.002571 1.19303-.536356 1.1956-1.195601v-4.801175c-.00134-.660137-.53547-1.19531-1.1956-1.197954H3.60539zm12.00528 0c-.65922.002684-1.19297.536438-1.1956 1.195661v4.803468c.00257.659245.53636 1.19303 1.1956 1.195601.65925-.002571 1.19303-.536356 1.19561-1.195601v-1.912968l5.15751 5.16454c.21573.212481.50379.335577.80645.344616.33344.014633.65792-.110231.89553-.344616.22648-.225279.35381-.531543.35381-.850984s-.12733-.625705-.35381-.850985l-5.15751-5.148144h1.90593c.31834-.001241.62314-.128891.84736-.354868.22422-.225977.34949-.53177.34825-.850107-.00257-.65925-.53636-1.193042-1.19561-1.195613h-4.80352z" fill="#5C606B" fill-rule="nonzero"/>
</svg>
