<svg width="25" height="26" xmlns="http://www.w3.org/2000/svg">
  <g fill-rule="nonzero" fill="none">
    <path d="M22.8476005 1c-.0258054 0-.0516051.00076992-.0773589.00240149-.3026609.00903964-.5907223.13213592-.8064475.34461637l-5.1575127 5.16454042V4.59854192c-.002573-.65924658-.5363625-1.19303229-1.1956091-1.19560072-.6592452.00257041-1.1930325.53635554-1.1956055 1.19560072v4.80351603c.0026318.65922265.5363828 1.19297695 1.1956055 1.19561275h4.8035196c.6592499-.0025705 1.1930391-.5363629 1.1956055-1.19561275.0012438-.31833716-.124023-.62413-.3482428-.85010693-.2242198-.22597692-.5290255-.35362689-.8473627-.35486808h-1.9059358L23.66577 3.04893853c.2264772-.22527915.353812-.53154321.353812-.85098434 0-.31944112-.1273348-.62570519-.353812-.85098434-.2182849-.21607751-.5110983-.34025367-.8181695-.34696985zm-21.59825679.00240149c-.33344055-.0146326-.65791734.11023179-.8955317.34461637C.12733479 1.57229701 0 1.87856108 0 2.1980022c0 .31944113.12733479.6257052.35381202.85098435l5.15751269 5.1481444H3.60538937c-.31833713.00124126-.62314276.12889125-.84736252.35486817-.22421975.22597692-.34948651.53176972-.34824276.85010684.00256648.65924974.53635552 1.19304214 1.19560528 1.19561274h4.80351975c.65922256-.0026359 1.1929735-.5363902 1.19560528-1.19561274V4.59854192c-.00257306-.65924509-.53636018-1.19303018-1.19560528-1.19560072-.6592451.00257054-1.19303223.53635563-1.19560528 1.19560072v1.91296834L2.05579115 1.34696985c-.21572519-.21248046-.5037866-.33557673-.80644744-.34461637v.00004801zM3.60538937 15.4035273c-.66014116.0026257-1.19429622.5378084-1.19560528 1.1979533-.00124694.3183391.12401841.624135.34823851.8501146.22422009.2259795.52902756.3536311.84736677.3548724h1.90359105l-5.1551684 5.1457918C.12733479 23.1775385 0 23.4838026 0 23.8032437c0 .3194412.12733479.6257052.35381202.8509844.23761435.2343846.56209114.3592489.89553169.3446164.30266084-.0090397.59072225-.132136.80644744-.3446164l5.15751269-5.1645404v1.9129683c.00257305.6592451.53636018 1.1930302 1.19560528 1.1956007.6592451-.0025705 1.19303222-.5363556 1.19560528-1.1956007v-4.8011754c-.00134825-.6601365-.53547276-1.1953099-1.19560528-1.1979533H3.60538937zm12.00528293 0c-.6592227.0026837-1.1929737.536438-1.1956055 1.1956607v4.803468c.002573.6592452.5363603 1.1930303 1.1956055 1.1956007.6592452-.0025704 1.1930325-.5363555 1.1956055-1.1956007v-1.9129683l5.1575127 5.1645404c.2157252.2124804.5037866.3355767.8064475.3446164.3334406.0146326.6579176-.1102317.895532-.3446164.2264772-.2252792.353812-.5315432.353812-.8509844 0-.3194411-.1273348-.6257052-.353812-.8509843l-5.1575139-5.1481444h1.9059358c.3183372-.0012412.6231429-.1288912.8473627-.3548681.2242198-.2259769.3494866-.5317698.3482428-.8501069-.0025664-.6592499-.5363556-1.1930423-1.1956055-1.1956127h-4.8035196z" fill="#5C606B"/>
    <path d="M24.00979134 23.8378092c0-.0258055-.00076992-.0516052-.00240149-.077359-.00903964-.3026608-.13213592-.5907222-.34461637-.8064474l-5.16454038-5.1575127h1.9130163c.6592466-.0025731 1.1930323-.5363625 1.1956007-1.1956091-.0025704-.6592452-.5363555-1.1930325-1.1956007-1.1956056h-4.803516c-.6592227.0026318-1.192977.5363829-1.1956127 1.1956056v4.8035196c.0025704.6592498.5363628 1.193039 1.1956127 1.1956055.3183371.0012438.62413-.124023.8501069-.3482428.2259769-.2242198.3536269-.5290255.3548681-.8473627v-1.9059358l5.1481444 5.1575139c.2252792.2264772.53154322.353812.85098435.353812.31944112 0 .62570519-.1273348.85098434-.353812.2160775-.218285.34025367-.5110984.34696985-.8181695zm-.00240149-21.59825683c.01463259-.33344055-.11023179-.65791734-.34461637-.89553169-.22527915-.22647723-.53154322-.35381202-.85098434-.35381202-.31944113 0-.62570524.12733479-.85098434.35381202L16.8126604 6.5015334V4.595598c-.0012413-.3183371-.1288913-.6231427-.3548682-.84736248-.2259769-.22421976-.5317697-.34948652-.8501068-.34824276-.6592498.00256647-1.1930422.53635554-1.1956127 1.19560524v4.8035198c.0026358.6592225.5363901 1.1929735 1.1956127 1.1956053h4.803564c.6592451-.0025731 1.1930302-.5363602 1.1956007-1.1956053-.0025705-.6592451-.5363556-1.1930322-1.1956007-1.1956053h-1.9129683l5.16454039-5.15751269c.21248045-.21572519.33557673-.5037866.34461637-.80644744h-.00004801z" fill="#A9ACB1"/>
  </g>
</svg>
