<svg data-bs-tooltip-label="All" width="42" height="22" xmlns="http://www.w3.org/2000/svg"><g fill="currentColor" fill-rule="nonzero"><path d="M16.86 5.79a2.763 2.763 0 012.76-2.76h6.21v-.69c0-1.141-.929-2.07-2.07-2.07H3.06C1.919.27.99 1.199.99 2.34v10.35h15.87v-6.9zM16.86 14.07H.99v.69c0 1.141.929 2.07 2.07 2.07h13.8v-2.76zM9.832 18.21a2.066 2.066 0 01-1.942 1.38v1.38h6.917a3.418 3.418 0 01-.707-2.07v-.69H9.832z"/><path d="M37.56 7.86V5.79a1.38 1.38 0 00-1.38-1.38H19.62a1.38 1.38 0 00-1.38 1.38v11.73h13.11v-6.9a2.763 2.763 0 012.76-2.76h3.45zM15.48 18.9c0 1.145.925 2.07 2.07 2.07h14.184a2.725 2.725 0 01-.384-1.38v-.69H15.48z"/><path d="M39.63 9.24h-5.52a1.38 1.38 0 00-1.38 1.38v8.97c0 .762.618 1.38 1.38 1.38h5.52a1.38 1.38 0 001.38-1.38v-8.97a1.38 1.38 0 00-1.38-1.38zm-2.07 9.66h-1.38v-1.38h1.38v1.38z"/></g></svg>