<svg width="20" height="20" xmlns="http://www.w3.org/2000/svg"><path d="M11.463 11.463H8.537V8.537h2.926v2.926zM6.641 3.171H8.05a.49.49 0 01.488.488v1.463h2.926V3.659a.49.49 0 01.488-.488h1.408L10 .166 6.641 3.17zm4.822 13.17v-1.463H8.537v1.463a.49.49 0 01-.488.488H6.64L10 19.834l3.359-3.005H11.95a.49.49 0 01-.488-.488zM19.834 10L16.83 6.641V8.05a.49.49 0 01-.488.488h-1.463v2.926h1.463a.49.49 0 01.488.488v1.408L19.834 10zM3.171 8.049V6.64L.166 10l3.005 3.359V11.95a.49.49 0 01.488-.488h1.463V8.537H3.659a.49.49 0 01-.488-.488z" fill="currentColor" fill-rule="nonzero"/></svg>