<svg version="1.1" xmlns="http://www.w3.org/2000/svg" viewBox="0 0 137.144 137.144" xmlns:xlink="http://www.w3.org/1999/xlink" enable-background="new 0 0 137.144 137.144">
  <g>
    <g>
      <path fill="#787878" d="M75.429,27.429H61.715v54.858H48.001l20.571,27.428l20.571-27.428H75.429V27.429z M109.715,0H27.429    C12.28,0,0,12.28,0,27.429v82.286c0,15.149,12.28,27.429,27.429,27.429h82.286c15.149,0,27.429-12.28,27.429-27.429V27.429    C137.144,12.28,124.864,0,109.715,0z M123.43,102.858c0,11.362-9.21,20.572-20.571,20.572H34.286    c-11.361,0-20.572-9.21-20.572-20.572V34.286c0-11.362,9.21-20.572,20.572-20.572h68.572c11.361,0,20.571,9.21,20.571,20.572    V102.858z"/>
    </g>
  </g>
</svg>
